SplineFontDB: 3.0
FontName: Meddon
FullName: Meddon
FamilyName: Meddon
Weight: Book
Copyright: Copyright (c) 2011 by Vernon Adams. All rights reserved.
Version: 1.000
ItalicAngle: 0
UnderlinePosition: -103
UnderlineWidth: 102
Ascent: 1438
Descent: 610
LayerCount: 2
Layer: 0 1 "Back"  1
Layer: 1 1 "Fore"  0
XUID: [1021 823 301787212 14108143]
FSType: 0
OS2Version: 3
OS2_WeightWidthSlopeOnly: 0
OS2_UseTypoMetrics: 1
CreationTime: 1295899611
ModificationTime: 1296005235
PfmFamily: 17
TTFWeight: 400
TTFWidth: 5
LineGap: 0
VLineGap: 0
Panose: 2 0 0 0 0 0 0 0 0 0
OS2TypoAscent: 2860
OS2TypoAOffset: 0
OS2TypoDescent: -1457
OS2TypoDOffset: 0
OS2TypoLinegap: 0
OS2WinAscent: 2860
OS2WinAOffset: 0
OS2WinDescent: 1457
OS2WinDOffset: 0
HheadAscent: 2860
HheadAOffset: 0
HheadDescent: -1457
HheadDOffset: 0
OS2SubXSize: 1434
OS2SubYSize: 1331
OS2SubXOff: 0
OS2SubYOff: 287
OS2SupXSize: 1434
OS2SupYSize: 1331
OS2SupXOff: 0
OS2SupYOff: 977
OS2StrikeYSize: 102
OS2StrikeYPos: 512
OS2Vendor: 'NEWT'
OS2CodePages: 20000093.00000000
OS2UnicodeRanges: a00000af.5000204a.00000000.00000000
DEI: 91125
TtTable: prep
PUSHW_1
 511
SCANCTRL
PUSHB_1
 1
SCANTYPE
SVTCA[y-axis]
MPPEM
PUSHB_1
 8
LT
IF
PUSHB_2
 1
 1
INSTCTRL
EIF
PUSHB_2
 70
 6
CALL
IF
POP
PUSHB_1
 16
EIF
MPPEM
PUSHB_1
 20
GT
IF
POP
PUSHB_1
 128
EIF
SCVTCI
PUSHB_1
 6
CALL
NOT
IF
SVTCA[y-axis]
PUSHB_1
 6
DUP
RCVT
PUSHB_1
 3
CALL
WCVTP
PUSHB_1
 7
DUP
RCVT
PUSHB_3
 6
 29
 2
CALL
PUSHB_1
 3
CALL
WCVTP
PUSHB_1
 8
DUP
RCVT
PUSHB_3
 7
 29
 2
CALL
PUSHB_1
 3
CALL
WCVTP
PUSHB_1
 9
DUP
RCVT
PUSHB_3
 8
 153
 2
CALL
PUSHB_1
 3
CALL
WCVTP
PUSHB_1
 10
DUP
RCVT
PUSHB_3
 9
 86
 2
CALL
PUSHB_1
 3
CALL
WCVTP
PUSHB_1
 11
DUP
RCVT
PUSHB_3
 10
 81
 2
CALL
PUSHB_1
 3
CALL
WCVTP
PUSHB_1
 12
DUP
RCVT
PUSHB_3
 11
 51
 2
CALL
PUSHB_1
 3
CALL
WCVTP
PUSHB_1
 13
DUP
RCVT
PUSHB_3
 12
 41
 2
CALL
PUSHB_1
 3
CALL
WCVTP
PUSHB_1
 14
DUP
RCVT
PUSHB_3
 13
 38
 2
CALL
PUSHB_1
 3
CALL
WCVTP
PUSHB_1
 15
DUP
RCVT
PUSHB_3
 14
 34
 2
CALL
PUSHB_1
 3
CALL
WCVTP
PUSHB_1
 16
DUP

StartChar: exclam
Encoding: 33 33 3
Width: 729
Flags: W
HStem: -35 243<50.9336 191.867>
VStem: 10 236<18.525 167.777>
LayerCount: 2
Fore
SplineSet
498 1402 m 0,0,1
 529 1512 529 1512 566.5 1558.5 c 128,-1,2
 604 1605 604 1605 648 1605 c 0,3,4
 670 1605 670 1605 682.5 1597.5 c 128,-1,5
 695 1590 695 1590 700.5 1574 c 128,-1,6
 706 1558 706 1558 707 1533.5 c 128,-1,7
 708 1509 708 1509 708 1475 c 0,8,9
 708 1454 708 1454 691 1395 c 128,-1,10
 674 1336 674 1336 645 1254.5 c 128,-1,11
 616 1173 616 1173 578 1076.5 c 128,-1,12
 540 980 540 980 498 883 c 0,13,14
 473 826 473 826 444 761 c 128,-1,15
 415 696 415 696 385 629.5 c 128,-1,16
 355 563 355 563 326 498 c 128,-1,17
 297 433 297 433 272 376 c 0,18,19
 267 364 267 364 259 358 c 128,-1,20
 251 352 251 352 244 352 c 0,21,22
 228 352 228 352 228 371 c 0,23,24
 228 374 228 374 228.5 376.5 c 128,-1,25
 229 379 229 379 230 383 c 2,26,-1
 338 799 l 2,27,28
 360 883 360 883 383 970 c 128,-1,29
 406 1057 406 1057 427 1137.5 c 128,-1,30
 448 1218 448 1218 466.5 1286.5 c 128,-1,31
 485 1355 485 1355 498 1402 c 0,0,1
77 -35 m 0,32,33
 42 -35 42 -35 26 -9.5 c 128,-1,34
 10 16 10 16 10 48 c 0,35,36
 10 75 10 75 19 103.5 c 128,-1,37
 28 132 28 132 44.5 155 c 128,-1,38
 61 178 61 178 84.5 193 c 128,-1,39
 108 208 108 208 137 208 c 0,40,41
 167 208 167 208 188 200 c 128,-1,42
 209 192 209 192 222 179 c 128,-1,43
 235 166 235 166 240.5 149 c 128,-1,44
 246 132 246 132 246 114 c 0,45,46
 246 83 246 83 230.5 56 c 128,-1,47
 215 29 215 29 190.5 8.5 c 128,-1,48
 166 -12 166 -12 136 -23.5 c 128,-1,49
 106 -35 106 -35 77 -35 c 0,32,33
EndSplineSet
Validated: 1
EndChar

StartChar: quotedbl
Encoding: 34 34 4
Width: 899
Flags: W
HStem: 1455 509
LayerCount: 2
Fore
SplineSet
207 1494 m 0,0,1
 194 1477 194 1477 173.5 1466 c 128,-1,2
 153 1455 153 1455 142 1455 c 0,3,4
 129 1455 129 1455 121 1465 c 128,-1,5
 113 1475 113 1475 113 1496 c 0,6,7
 113 1523 113 1523 122 1568 c 128,-1,8
 131 1613 131 1613 146 1665 c 128,-1,9
 161 1717 161 1717 181.5 1770.5 c 128,-1,10
 202 1824 202 1824 224 1867 c 128,-1,11
 246 1910 246 1910 269 1937 c 128,-1,12
 292 1964 292 1964 313 1964 c 0,13,14
 344 1964 344 1964 365 1957 c 128,-1,15
 386 1950 386 1950 398.5 1939 c 128,-1,16
 411 1928 411 1928 416 1913 c 128,-1,17
 421 1898 421 1898 421 1883 c 0,18,19
 421 1861 421 1861 414 1840 c 128,-1,20
 407 1819 407 1819 400 1805 c 0,21,22
 373 1752 373 1752 352 1713 c 128,-1,23
 331 1674 331 1674 309.5 1639.5 c 128,-1,24
 288 1605 288 1605 264 1571 c 128,-1,25
 240 1537 240 1537 207 1494 c 0,0,1
592 1509 m 0,26,27
 567 1478 567 1478 549 1466 c 128,-1,28
 531 1454 531 1454 518 1454 c 0,29,30
 501 1454 501 1454 492.5 1470.5 c 128,-1,31
 484 1487 484 1487 484 1508 c 0,32,33
 484 1513 484 1513 484 1517.5 c 128,-1,34
 484 1522 484 1522 485 1527 c 0,35,36
 490 1555 490 1555 498.5 1598 c 128,-1,37
 507 1641 507 1641 519 1689.5 c 128,-1,38
 531 1738 531 1738 546.5 1787 c 128,-1,39
 562 1836 562 1836 581 1875.5 c 128,-1,40
 600 1915 600 1915 622.5 1939.5 c 128,-1,41
 645 1964 645 1964 672 1964 c 0,42,43
 712 1964 712 1964 738.5 1957 c 128,-1,44
 765 1950 765 1950 780.5 1938 c 128,-1,45
 796 1926 796 1926 802.5 1911 c 128,-1,46
 809 1896 809 1896 809 1880 c 0,47,48
 809 1854 809 1854 787 1807 c 128,-1,49
 765 1760 765 1760 732 1706 c 128,-1,50
 699 1652 699 1652 661 1599 c 128,-1,51
 623 1546 623 1546 592 1509 c 0,26,27
EndSplineSet
Validated: 1
EndChar

StartChar: numbersign
Encoding: 35 35 5
Width: 1900
Flags: W
HStem: 622 88<280.88 435 602 1134 1329 1394> 630.5 63.5<266.367 433.938 1380.56 1496.65> 1223 63<1618 1720.85> 1227 93<498.912 664 798 1362> 1238.5 63.5<484.815 662.903>
VStem: 43 33.5<-487.762 -423.754> 743 33.5<-487.762 -423.808>
LayerCount: 2
Fore
SplineSet
494 1247 m 0,0,1
 483 1252 483 1252 483 1261 c 256,2,3
 483 1270 483 1270 490 1280.5 c 128,-1,4
 497 1291 497 1291 498 1302 c 1,5,6
 527 1309 527 1309 580 1312.5 c 128,-1,7
 633 1316 633 1316 699 1318 c 1,8,-1
 816 1615 l 2,9,10
 832 1654 832 1654 858.5 1717.5 c 128,-1,11
 885 1781 885 1781 917 1853.5 c 128,-1,12
 949 1926 949 1926 983 1999 c 128,-1,13
 1017 2072 1017 2072 1048 2131.5 c 128,-1,14
 1079 2191 1079 2191 1103.5 2228 c 128,-1,15
 1128 2265 1128 2265 1142 2265 c 0,16,17
 1150 2265 1150 2265 1156 2259 c 128,-1,18
 1162 2253 1162 2253 1162 2238 c 1,19,20
 1161 2231 1161 2231 1160.5 2222.5 c 128,-1,21
 1160 2214 1160 2214 1157 2202 c 0,22,23
 1148 2166 1148 2166 1141 2147 c 128,-1,24
 1134 2128 1134 2128 1128.5 2118 c 128,-1,25
 1123 2108 1123 2108 1118.5 2102 c 128,-1,26
 1114 2096 1114 2096 1110 2086 c 0,27,28
 1099 2063 1099 2063 1080 2018.5 c 128,-1,29
 1061 1974 1061 1974 1039 1919.5 c 128,-1,30
 1017 1865 1017 1865 993.5 1807.5 c 128,-1,31
 970 1750 970 1750 951 1701 c 128,-1,32
 932 1652 932 1652 919 1618.5 c 128,-1,33
 906 1585 906 1585 904 1578 c 1,34,35
 892 1552 892 1552 864.5 1484.5 c 128,-1,36
 837 1417 837 1417 798 1320 c 1,37,-1
 841 1320 l 2,38,39
 946 1320 946 1320 1018 1319.5 c 128,-1,40
 1090 1319 1090 1319 1139.5 1317.5 c 128,-1,41
 1189 1316 1189 1316 1221.5 1315 c 128,-1,42
 1254 1314 1254 1314 1280.5 1312.5 c 128,-1,43
 1307 1311 1307 1311 1333 1309.5 c 128,-1,44
 1359 1308 1359 1308 1395 1307 c 1,45,46
 1427 1392 1427 1392 1457.5 1469 c 128,-1,47
 1488 1546 1488 1546 1516 1615 c 0,48,49
 1532 1654 1532 1654 1558.5 1717.5 c 128,-1,50
 1585 1781 1585 1781 1616.5 1853.5 c 128,-1,51
 1648 1926 1648 1926 1682 1999 c 128,-1,52
 1716 2072 1716 2072 1747 2131.5 c 128,-1,53
 1778 2191 1778 2191 1803 2228 c 128,-1,54
 1828 2265 1828 2265 1842 2265 c 0,55,56
 1850 2265 1850 2265 1856 2259 c 128,-1,57
 1862 2253 1862 2253 1862 2238 c 1,58,59
 1861 2231 1861 2231 1860.5 2222.5 c 128,-1,60
 1860 2214 1860 2214 1857 2202 c 0,61,62
 1848 2166 1848 2166 1841 2147 c 128,-1,63
 1834 2128 1834 2128 1828.5 2118 c 128,-1,64
 1823 2108 1823 2108 1818.5 2102 c 128,-1,65
 1814 2096 1814 2096 1810 2086 c 0,66,67
 1799 2063 1799 2063 1780 2018.5 c 128,-1,68
 1761 1974 1761 1974 1739 1919.5 c 128,-1,69
 1717 1865 1717 1865 1693.5 1807.5 c 128,-1,70
 1670 1750 1670 1750 1651 1701 c 128,-1,71
 1632 1652 1632 1652 1619 1618.5 c 128,-1,72
 1606 1585 1606 1585 1604 1578 c 1,73,74
 1591 1551 1591 1551 1562 1479 c 128,-1,75
 1533 1407 1533 1407 1491 1301 c 1,76,77
 1534 1298 1534 1298 1565.5 1295 c 128,-1,78
 1597 1292 1597 1292 1618 1290 c 2,79,-1
 1660 1286 l 1,80,81
 1683 1285 1683 1285 1702 1274.5 c 128,-1,82
 1721 1264 1721 1264 1721 1253 c 0,83,84
 1721 1236 1721 1236 1653.5 1230.5 c 128,-1,85
 1586 1225 1586 1225 1459 1223 c 1,86,-1
 1252 696 l 1,87,88
 1329 692 1329 692 1379 690 c 128,-1,89
 1429 688 1429 688 1457.5 683 c 128,-1,90
 1486 678 1486 678 1497 671.5 c 128,-1,91
 1508 665 1508 665 1508 652 c 0,92,93
 1508 644 1508 644 1488 638.5 c 128,-1,94
 1468 633 1468 633 1431 629.5 c 128,-1,95
 1394 626 1394 626 1341 624 c 128,-1,96
 1288 622 1288 622 1222 621 c 1,97,98
 1168 484 1168 484 1113.5 347.5 c 128,-1,99
 1059 211 1059 211 1008.5 86.5 c 128,-1,100
 958 -38 958 -38 913 -146 c 128,-1,101
 868 -254 868 -254 833.5 -333 c 128,-1,102
 799 -412 799 -412 776.5 -457 c 128,-1,103
 754 -502 754 -502 748 -502 c 0,104,105
 743 -502 743 -502 743 -488 c 1,106,107
 744 -479 744 -479 745 -465.5 c 128,-1,108
 746 -452 746 -452 750 -436 c 2,109,-1
 759 -398 l 1,110,111
 828 -206 828 -206 920 43.5 c 128,-1,112
 1012 293 1012 293 1134 620 c 1,113,114
 1086 619 1086 619 1037 619 c 128,-1,115
 988 619 988 619 940 619 c 0,116,117
 885 619 885 619 833.5 619 c 128,-1,118
 782 619 782 619 738 619.5 c 128,-1,119
 694 620 694 620 659 620.5 c 128,-1,120
 624 621 624 621 602 622 c 1,121,-1
 522 622 l 1,122,123
 468 485 468 485 413.5 348 c 128,-1,124
 359 211 359 211 308.5 86.5 c 128,-1,125
 258 -38 258 -38 213 -145.5 c 128,-1,126
 168 -253 168 -253 133.5 -332.5 c 128,-1,127
 99 -412 99 -412 76.5 -457 c 128,-1,128
 54 -502 54 -502 48 -502 c 0,129,130
 43 -502 43 -502 43 -488 c 1,131,132
 44 -479 44 -479 45 -465.5 c 128,-1,133
 46 -452 46 -452 50 -436 c 2,134,-1
 59 -398 l 1,135,136
 94 -301 94 -301 134.5 -190.5 c 128,-1,137
 175 -80 175 -80 221.5 46 c 128,-1,138
 268 172 268 172 321 315 c 128,-1,139
 374 458 374 458 435 622 c 1,140,141
 401 623 401 623 370.5 625 c 128,-1,142
 340 627 340 627 316.5 630.5 c 128,-1,143
 293 634 293 634 279 640 c 128,-1,144
 265 646 265 646 265 655 c 0,145,146
 265 663 265 663 272 673 c 128,-1,147
 279 683 279 683 280 694 c 1,148,149
 308 700 308 700 357.5 703.5 c 128,-1,150
 407 707 407 707 467 709 c 1,151,-1
 664 1228 l 1,152,153
 638 1228 638 1228 611.5 1229 c 128,-1,154
 585 1230 585 1230 562 1232.5 c 128,-1,155
 539 1235 539 1235 521 1238.5 c 128,-1,156
 503 1242 503 1242 494 1247 c 0,0,1
761 1227 m 1,157,158
 716 1115 716 1115 665 984.5 c 128,-1,159
 614 854 614 854 557 710 c 1,160,-1
 640 710 l 2,161,162
 739 710 739 710 807 710 c 128,-1,163
 875 710 875 710 922 709.5 c 128,-1,164
 969 709 969 709 1000 708 c 128,-1,165
 1031 707 1031 707 1056 706 c 128,-1,166
 1081 705 1081 705 1105.5 703.5 c 128,-1,167
 1130 702 1130 702 1164 700 c 1,168,-1
 1362 1222 l 1,169,170
 1336 1222 1336 1222 1309.5 1221.5 c 128,-1,171
 1283 1221 1283 1221 1257 1221 c 0,172,173
 1188 1221 1188 1221 1121 1221.5 c 128,-1,174
 1054 1222 1054 1222 996 1223 c 128,-1,175
 938 1224 938 1224 892 1225 c 128,-1,176
 846 1226 846 1226 819 1227 c 1,177,-1
 761 1227 l 1,157,158
EndSplineSet
Validated: 1
EndChar

StartChar: dollar
Encoding: 36 36 6
Width: 1710
Flags: W
HStem: -191 69<386.397 604 685 807.18> 402 55<256.106 394.936> 1170 38<1281.67 1466.09> 1715 38<1067.99 1301.62> 1921 20G<1475 1487>
VStem: 29 109<54.0781 317.33> 522 230<1117.97 1458.39> 531 19<-439.544 -407.232> 1125 225<125.142 456.399> 1569 89<1284.06 1515.42>
LayerCount: 2
Fore
SplineSet
1481 1844 m 0,0,1
 1476 1828 1476 1828 1472 1820 c 128,-1,2
 1468 1812 1468 1812 1464 1806.5 c 128,-1,3
 1460 1801 1460 1801 1457 1797.5 c 128,-1,4
 1454 1794 1454 1794 1451 1787 c 0,5,6
 1444 1773 1444 1773 1435 1753 c 128,-1,7
 1426 1733 1426 1733 1415 1707 c 1,8,9
 1476 1683 1476 1683 1521.5 1649.5 c 128,-1,10
 1567 1616 1567 1616 1597.5 1577.5 c 128,-1,11
 1628 1539 1628 1539 1643 1497 c 128,-1,12
 1658 1455 1658 1455 1658 1414 c 0,13,14
 1658 1366 1658 1366 1637 1322 c 128,-1,15
 1616 1278 1616 1278 1574.5 1244 c 128,-1,16
 1533 1210 1533 1210 1470 1190 c 128,-1,17
 1407 1170 1407 1170 1323 1170 c 0,18,19
 1253 1170 1253 1170 1208 1192 c 1,20,-1
 1049 790 l 1,21,22
 1105 730 1105 730 1159 668.5 c 128,-1,23
 1213 607 1213 607 1255.5 543.5 c 128,-1,24
 1298 480 1298 480 1324 414.5 c 128,-1,25
 1350 349 1350 349 1350 281 c 0,26,27
 1350 203 1350 203 1320.5 137.5 c 128,-1,28
 1291 72 1291 72 1241 19 c 128,-1,29
 1191 -34 1191 -34 1124 -73.5 c 128,-1,30
 1057 -113 1057 -113 981.5 -139.5 c 128,-1,31
 906 -166 906 -166 826.5 -179.5 c 128,-1,32
 747 -193 747 -193 671 -193 c 2,33,-1
 654 -193 l 1,34,35
 630 -250 630 -250 610 -296 c 128,-1,36
 590 -342 590 -342 575 -374.5 c 128,-1,37
 560 -407 560 -407 550 -425 c 128,-1,38
 540 -443 540 -443 536 -443 c 0,39,40
 531 -443 531 -443 531 -430 c 1,41,42
 532 -422 532 -422 533 -411 c 128,-1,43
 534 -400 534 -400 537 -387 c 2,44,-1
 545 -353 l 1,45,46
 555 -329 555 -329 568 -291.5 c 128,-1,47
 581 -254 581 -254 604 -191 c 1,48,49
 449 -185 449 -185 340 -151 c 128,-1,50
 231 -117 231 -117 162 -66 c 128,-1,51
 93 -15 93 -15 61 47 c 128,-1,52
 29 109 29 109 29 171 c 0,53,54
 29 226 29 226 52 277.5 c 128,-1,55
 75 329 75 329 117.5 369 c 128,-1,56
 160 409 160 409 219.5 433 c 128,-1,57
 279 457 279 457 353 457 c 0,58,59
 364 457 364 457 376 458 c 128,-1,60
 388 459 388 459 407 459 c 1,61,62
 400 457 400 457 398.5 450 c 128,-1,63
 397 443 397 443 397 434 c 2,64,-1
 397 425 l 2,65,66
 397 416 397 416 395 409 c 128,-1,67
 393 402 393 402 385 402 c 0,68,69
 325 402 325 402 279 385 c 128,-1,70
 233 368 233 368 201.5 338.5 c 128,-1,71
 170 309 170 309 154 271 c 128,-1,72
 138 233 138 233 138 191 c 0,73,74
 138 136 138 136 166.5 80.5 c 128,-1,75
 195 25 195 25 254 -20 c 128,-1,76
 313 -65 313 -65 403 -93.5 c 128,-1,77
 493 -122 493 -122 617 -122 c 0,78,79
 620 -122 620 -122 623 -121.5 c 128,-1,80
 626 -121 626 -121 629 -121 c 1,81,82
 657 -46 657 -46 691 45.5 c 128,-1,83
 725 137 725 137 763 240.5 c 128,-1,84
 801 344 801 344 843 455.5 c 128,-1,85
 885 567 885 567 928 681 c 1,86,87
 862 756 862 756 790.5 830.5 c 128,-1,88
 719 905 719 905 659 980 c 128,-1,89
 599 1055 599 1055 560.5 1130 c 128,-1,90
 522 1205 522 1205 522 1281 c 0,91,92
 522 1362 522 1362 551.5 1428 c 128,-1,93
 581 1494 581 1494 631 1546.5 c 128,-1,94
 681 1599 681 1599 745.5 1638 c 128,-1,95
 810 1677 810 1677 879.5 1702.5 c 128,-1,96
 949 1728 949 1728 1019 1740.5 c 128,-1,97
 1089 1753 1089 1753 1149 1753 c 0,98,99
 1206 1753 1206 1753 1255 1746.5 c 128,-1,100
 1304 1740 1304 1740 1349 1728 c 1,101,102
 1370 1771 1370 1771 1390 1809.5 c 128,-1,103
 1410 1848 1410 1848 1427 1877.5 c 128,-1,104
 1444 1907 1444 1907 1457.5 1924 c 128,-1,105
 1471 1941 1471 1941 1479 1941 c 0,106,107
 1495 1941 1495 1941 1495 1918 c 0,108,109
 1495 1909 1495 1909 1492.5 1890.5 c 128,-1,110
 1490 1872 1490 1872 1481 1844 c 0,0,1
752 1264 m 0,111,112
 752 1211 752 1211 771.5 1159.5 c 128,-1,113
 791 1108 791 1108 824 1056.5 c 128,-1,114
 857 1005 857 1005 900.5 953.5 c 128,-1,115
 944 902 944 902 992 850 c 1,116,117
 1032 959 1032 959 1070.5 1057.5 c 128,-1,118
 1109 1156 1109 1156 1144 1247 c 1,119,120
 1122 1281 1122 1281 1122 1334 c 0,121,122
 1122 1385 1122 1385 1153 1431 c 128,-1,123
 1184 1477 1184 1477 1250 1509 c 1,124,125
 1268 1551 1268 1551 1288 1596 c 128,-1,126
 1308 1641 1308 1641 1329 1686 c 1,127,128
 1262 1715 1262 1715 1191 1715 c 0,129,130
 1146 1715 1146 1715 1096 1703.5 c 128,-1,131
 1046 1692 1046 1692 997.5 1667.5 c 128,-1,132
 949 1643 949 1643 904.5 1606.5 c 128,-1,133
 860 1570 860 1570 826 1519.5 c 128,-1,134
 792 1469 792 1469 772 1405.5 c 128,-1,135
 752 1342 752 1342 752 1264 c 0,111,112
1125 300 m 0,136,137
 1125 381 1125 381 1084.5 460.5 c 128,-1,138
 1044 540 1044 540 981 618 c 1,139,140
 943 522 943 522 904 423.5 c 128,-1,141
 865 325 865 325 827 230.5 c 128,-1,142
 789 136 789 136 753 48 c 128,-1,143
 717 -40 717 -40 685 -117 c 1,144,145
 763 -107 763 -107 841.5 -75.5 c 128,-1,146
 920 -44 920 -44 983 8.5 c 128,-1,147
 1046 61 1046 61 1085.5 134 c 128,-1,148
 1125 207 1125 207 1125 300 c 0,136,137
1569 1371 m 0,149,150
 1569 1407 1569 1407 1556.5 1445.5 c 128,-1,151
 1544 1484 1544 1484 1521 1521.5 c 128,-1,152
 1498 1559 1498 1559 1465.5 1592.5 c 128,-1,153
 1433 1626 1433 1626 1393 1652 c 1,154,-1
 1334 1507 l 1,155,-1
 1336 1503 l 1,156,-1
 1331 1499 l 1,157,158
 1314 1455 1314 1455 1303 1427.5 c 128,-1,159
 1292 1400 1292 1400 1285 1382 c 128,-1,160
 1278 1364 1278 1364 1274 1353.5 c 128,-1,161
 1270 1343 1270 1343 1266 1333.5 c 128,-1,162
 1262 1324 1262 1324 1257 1312 c 128,-1,163
 1252 1300 1252 1300 1244 1280 c 1,164,165
 1254 1241 1254 1241 1285.5 1224.5 c 128,-1,166
 1317 1208 1317 1208 1359 1208 c 0,167,168
 1414 1208 1414 1208 1454 1221 c 128,-1,169
 1494 1234 1494 1234 1519.5 1256 c 128,-1,170
 1545 1278 1545 1278 1557 1307.5 c 128,-1,171
 1569 1337 1569 1337 1569 1371 c 0,149,150
EndSplineSet
Validated: 1
EndChar

StartChar: percent
Encoding: 37 37 7
Width: 2232
Flags: W
HStem: 302 63<1526.25 1722.04> 773 62<241.98 434.772> 1259 65<1776.79 1959.05> 1710 64<487.243 664.706>
VStem: 42 148<876.716 1283.74> 728 157<1190.21 1646.35> 1322 152<403.996 820.112> 2024 160<731.972 1190.59>
LayerCount: 2
Fore
SplineSet
1678 2148 m 1,0,1
 1669 2122 1669 2122 1647 2073 c 128,-1,2
 1625 2024 1625 2024 1596.5 1964 c 128,-1,3
 1568 1904 1568 1904 1536.5 1839 c 128,-1,4
 1505 1774 1505 1774 1477.5 1717 c 128,-1,5
 1450 1660 1450 1660 1430.5 1618 c 128,-1,6
 1411 1576 1411 1576 1406 1561 c 0,7,8
 1396 1532 1396 1532 1368.5 1469.5 c 128,-1,9
 1341 1407 1341 1407 1301 1320.5 c 128,-1,10
 1261 1234 1261 1234 1211 1129.5 c 128,-1,11
 1161 1025 1161 1025 1106 913 c 128,-1,12
 1051 801 1051 801 994 687 c 128,-1,13
 937 573 937 573 883 466.5 c 128,-1,14
 829 360 829 360 780 267 c 128,-1,15
 731 174 731 174 692.5 105 c 128,-1,16
 654 36 654 36 628.5 -3.5 c 128,-1,17
 603 -43 603 -43 596 -43 c 0,18,19
 594 -43 594 -43 584 -40.5 c 128,-1,20
 574 -38 574 -38 562.5 -33 c 128,-1,21
 551 -28 551 -28 542 -19.5 c 128,-1,22
 533 -11 533 -11 533 0 c 0,23,24
 533 6 533 6 534 7 c 0,25,26
 536 14 536 14 557 59.5 c 128,-1,27
 578 105 578 105 613 180 c 128,-1,28
 648 255 648 255 695.5 355.5 c 128,-1,29
 743 456 743 456 799 573 c 128,-1,30
 855 690 855 690 916.5 819.5 c 128,-1,31
 978 949 978 949 1041.5 1082.5 c 128,-1,32
 1105 1216 1105 1216 1168.5 1348.5 c 128,-1,33
 1232 1481 1232 1481 1291 1605 c 0,34,35
 1309 1643 1309 1643 1339.5 1704.5 c 128,-1,36
 1370 1766 1370 1766 1406 1836 c 128,-1,37
 1442 1906 1442 1906 1480.5 1976.5 c 128,-1,38
 1519 2047 1519 2047 1553.5 2104 c 128,-1,39
 1588 2161 1588 2161 1615.5 2197 c 128,-1,40
 1643 2233 1643 2233 1656 2233 c 0,41,42
 1664 2233 1664 2233 1669.5 2228 c 128,-1,43
 1675 2223 1675 2223 1678.5 2216 c 128,-1,44
 1682 2209 1682 2209 1683.5 2201 c 128,-1,45
 1685 2193 1685 2193 1685 2186 c 0,46,47
 1685 2162 1685 2162 1678 2148 c 1,0,1
1952 1324 m 0,48,49
 2007 1324 2007 1324 2050.5 1296 c 128,-1,50
 2094 1268 2094 1268 2123.5 1219.5 c 128,-1,51
 2153 1171 2153 1171 2168.5 1106.5 c 128,-1,52
 2184 1042 2184 1042 2184 969 c 0,53,54
 2184 862 2184 862 2156 771 c 128,-1,55
 2128 680 2128 680 2081.5 605.5 c 128,-1,56
 2035 531 2035 531 1973 474.5 c 128,-1,57
 1911 418 1911 418 1843 379.5 c 128,-1,58
 1775 341 1775 341 1704.5 321.5 c 128,-1,59
 1634 302 1634 302 1571 302 c 0,60,61
 1518 302 1518 302 1473 315.5 c 128,-1,62
 1428 329 1428 329 1394 357 c 128,-1,63
 1360 385 1360 385 1341 426.5 c 128,-1,64
 1322 468 1322 468 1322 525 c 0,65,66
 1322 640 1322 640 1346 744 c 128,-1,67
 1370 848 1370 848 1412.5 937 c 128,-1,68
 1455 1026 1455 1026 1514 1097.5 c 128,-1,69
 1573 1169 1573 1169 1643 1219.5 c 128,-1,70
 1713 1270 1713 1270 1791.5 1297 c 128,-1,71
 1870 1324 1870 1324 1952 1324 c 0,48,49
1474 550 m 0,72,73
 1474 502 1474 502 1484.5 467.5 c 128,-1,74
 1495 433 1495 433 1513.5 410 c 128,-1,75
 1532 387 1532 387 1557 376 c 128,-1,76
 1582 365 1582 365 1612 365 c 0,77,78
 1653 365 1653 365 1699 385 c 128,-1,79
 1745 405 1745 405 1791 443.5 c 128,-1,80
 1837 482 1837 482 1879 538 c 128,-1,81
 1921 594 1921 594 1953.5 666 c 128,-1,82
 1986 738 1986 738 2005 825.5 c 128,-1,83
 2024 913 2024 913 2024 1014 c 0,84,85
 2024 1077 2024 1077 2012.5 1123.5 c 128,-1,86
 2001 1170 2001 1170 1981.5 1200 c 128,-1,87
 1962 1230 1962 1230 1934.5 1244.5 c 128,-1,88
 1907 1259 1907 1259 1876 1259 c 0,89,90
 1835 1259 1835 1259 1789.5 1236 c 128,-1,91
 1744 1213 1744 1213 1699.5 1169.5 c 128,-1,92
 1655 1126 1655 1126 1614 1063.5 c 128,-1,93
 1573 1001 1573 1001 1542 922 c 128,-1,94
 1511 843 1511 843 1492.5 749.5 c 128,-1,95
 1474 656 1474 656 1474 550 c 0,72,73
659 1774 m 0,96,97
 713 1774 713 1774 755.5 1746.5 c 128,-1,98
 798 1719 798 1719 826.5 1672 c 128,-1,99
 855 1625 855 1625 870 1561.5 c 128,-1,100
 885 1498 885 1498 885 1426 c 0,101,102
 885 1321 885 1321 858 1232 c 128,-1,103
 831 1143 831 1143 785 1070 c 128,-1,104
 739 997 739 997 678.5 942 c 128,-1,105
 618 887 618 887 551.5 849 c 128,-1,106
 485 811 485 811 416 792 c 128,-1,107
 347 773 347 773 285 773 c 0,108,109
 234 773 234 773 189.5 786.5 c 128,-1,110
 145 800 145 800 112 827 c 128,-1,111
 79 854 79 854 60.5 895 c 128,-1,112
 42 936 42 936 42 992 c 0,113,114
 42 1105 42 1105 65.5 1206.5 c 128,-1,115
 89 1308 89 1308 130.5 1395 c 128,-1,116
 172 1482 172 1482 230 1552 c 128,-1,117
 288 1622 288 1622 356.5 1671.5 c 128,-1,118
 425 1721 425 1721 502 1747.5 c 128,-1,119
 579 1774 579 1774 659 1774 c 0,96,97
190 1016 m 0,120,121
 190 923 190 923 228.5 879 c 128,-1,122
 267 835 267 835 326 835 c 0,123,124
 366 835 366 835 411.5 854.5 c 128,-1,125
 457 874 457 874 501.5 911.5 c 128,-1,126
 546 949 546 949 587 1004 c 128,-1,127
 628 1059 628 1059 659.5 1129.5 c 128,-1,128
 691 1200 691 1200 709.5 1285.5 c 128,-1,129
 728 1371 728 1371 728 1470 c 0,130,131
 728 1532 728 1532 717 1577.5 c 128,-1,132
 706 1623 706 1623 686.5 1652.5 c 128,-1,133
 667 1682 667 1682 641 1696 c 128,-1,134
 615 1710 615 1710 584 1710 c 0,135,136
 524 1710 524 1710 455 1660 c 128,-1,137
 386 1610 386 1610 327 1519 c 128,-1,138
 268 1428 268 1428 229 1300 c 128,-1,139
 190 1172 190 1172 190 1016 c 0,120,121
EndSplineSet
Validated: 1
EndChar

StartChar: ampersand
Encoding: 38 38 8
Width: 2711
Flags: W
HStem: -262 209<762.743 1362.34> 792 85<1209.93 1451.88> 953 70<2592.31 2798.7> 985 119<2801.34 2930.13> 1066 136<2052.5 2315.23> 1369 71<1552.24 1619.33> 2565 72<1333.26 1515.04>
VStem: 350 195<48.5 318.442> 840 181<1430.63 1816.73> 1449 68<1018.22 1324.3> 1538 152<2228.71 2541.36> 1621 56<1163.24 1368.33> 2547 44<777.158 971>
LayerCount: 2
Fore
SplineSet
-42 382 m 0,0,1
 8 415 8 415 59 449 c 0,2,3
 103 478 103 478 154 512 c 128,-1,4
 205 546 205 546 250 578 c 0,5,6
 318 625 318 625 386 683 c 128,-1,7
 454 741 454 741 511 792 c 1,8,9
 576 852 576 852 638 913 c 1,10,-1
 741 1062 l 1,11,12
 761 1086 761 1086 782.5 1117.5 c 128,-1,13
 804 1149 804 1149 823 1178 c 0,14,15
 845 1211 845 1211 866 1246 c 1,16,17
 852 1288 852 1288 846 1339.5 c 128,-1,18
 840 1391 840 1391 840 1451 c 0,19,20
 840 1535 840 1535 852 1631 c 128,-1,21
 864 1727 864 1727 886.5 1826 c 128,-1,22
 909 1925 909 1925 941 2023.5 c 128,-1,23
 973 2122 973 2122 1013 2212.5 c 128,-1,24
 1053 2303 1053 2303 1100 2380.5 c 128,-1,25
 1147 2458 1147 2458 1200 2515 c 128,-1,26
 1253 2572 1253 2572 1310.5 2604.5 c 128,-1,27
 1368 2637 1368 2637 1429 2637 c 0,28,29
 1499 2637 1499 2637 1549 2621 c 128,-1,30
 1599 2605 1599 2605 1630 2575.5 c 128,-1,31
 1661 2546 1661 2546 1675.5 2505 c 128,-1,32
 1690 2464 1690 2464 1690 2413 c 0,33,34
 1690 2354 1690 2354 1673 2285 c 128,-1,35
 1656 2216 1656 2216 1625.5 2140.5 c 128,-1,36
 1595 2065 1595 2065 1554 1985.5 c 128,-1,37
 1513 1906 1513 1906 1465 1826 c 128,-1,38
 1417 1746 1417 1746 1364.5 1668 c 128,-1,39
 1312 1590 1312 1590 1259 1518 c 128,-1,40
 1206 1446 1206 1446 1154.5 1382 c 128,-1,41
 1103 1318 1103 1318 1058 1267 c 1,42,43
 1066 1192 1066 1192 1086 1121.5 c 128,-1,44
 1106 1051 1106 1051 1140 996.5 c 128,-1,45
 1174 942 1174 942 1223.5 909.5 c 128,-1,46
 1273 877 1273 877 1340 877 c 0,47,48
 1375 877 1375 877 1405 890.5 c 128,-1,49
 1435 904 1435 904 1460 926 c 1,50,51
 1455 974 1455 974 1452 1019.5 c 128,-1,52
 1449 1065 1449 1065 1449 1110 c 0,53,54
 1449 1174 1449 1174 1459 1233.5 c 128,-1,55
 1469 1293 1469 1293 1488.5 1339 c 128,-1,56
 1508 1385 1508 1385 1535.5 1412.5 c 128,-1,57
 1563 1440 1563 1440 1599 1440 c 0,58,59
 1640 1440 1640 1440 1658.5 1402 c 128,-1,60
 1677 1364 1677 1364 1677 1305 c 0,61,62
 1677 1220 1677 1220 1646.5 1121 c 128,-1,63
 1616 1022 1616 1022 1548 928 c 1,64,65
 1563 858 1563 858 1582.5 792 c 128,-1,66
 1602 726 1602 726 1619.5 673.5 c 128,-1,67
 1637 621 1637 621 1649.5 585.5 c 128,-1,68
 1662 550 1662 550 1662 541 c 0,69,70
 1662 527 1662 527 1656.5 514.5 c 128,-1,71
 1651 502 1651 502 1642 492.5 c 128,-1,72
 1633 483 1633 483 1622 477 c 128,-1,73
 1611 471 1611 471 1599 471 c 0,74,75
 1590 471 1590 471 1576.5 479 c 128,-1,76
 1563 487 1563 487 1546 523.5 c 128,-1,77
 1529 560 1529 560 1510 635.5 c 128,-1,78
 1491 711 1491 711 1471 846 c 1,79,80
 1439 821 1439 821 1403.5 806.5 c 128,-1,81
 1368 792 1368 792 1326 792 c 0,82,83
 1287 792 1287 792 1245 806 c 0,84,85
 1140 843 1140 843 1071 924 c 128,-1,86
 1002 1005 1002 1005 963 1116 c 1,87,88
 875 998 875 998 799 883.5 c 128,-1,89
 723 769 723 769 666.5 662 c 128,-1,90
 610 555 610 555 577.5 457.5 c 128,-1,91
 545 360 545 360 545 278 c 0,92,93
 545 191 545 191 583.5 128.5 c 128,-1,94
 622 66 622 66 690.5 25.5 c 128,-1,95
 759 -15 759 -15 852 -34 c 128,-1,96
 945 -53 945 -53 1055 -53 c 0,97,98
 1166 -53 1166 -53 1289.5 -34 c 128,-1,99
 1413 -15 1413 -15 1538.5 20.5 c 128,-1,100
 1664 56 1664 56 1787.5 107.5 c 128,-1,101
 1911 159 1911 159 2023 224.5 c 128,-1,102
 2135 290 2135 290 2231 368.5 c 128,-1,103
 2327 447 2327 447 2397 536 c 128,-1,104
 2467 625 2467 625 2507 724 c 128,-1,105
 2547 823 2547 823 2547 930 c 0,106,107
 2547 944 2547 944 2547 956.5 c 128,-1,108
 2547 969 2547 969 2545 983 c 1,109,110
 2498 995 2498 995 2448 1009.5 c 128,-1,111
 2398 1024 2398 1024 2349 1036.5 c 128,-1,112
 2300 1049 2300 1049 2253.5 1057.5 c 128,-1,113
 2207 1066 2207 1066 2168 1066 c 0,114,115
 2138 1066 2138 1066 2118 1060 c 128,-1,116
 2098 1054 2098 1054 2083.5 1045 c 128,-1,117
 2069 1036 2069 1036 2057 1025 c 128,-1,118
 2045 1014 2045 1014 2031 1005 c 128,-1,119
 2017 996 2017 996 1997.5 990 c 128,-1,120
 1978 984 1978 984 1949 984 c 0,121,122
 1929 984 1929 984 1915 991.5 c 128,-1,123
 1901 999 1901 999 1891.5 1011 c 128,-1,124
 1882 1023 1882 1023 1877.5 1037 c 128,-1,125
 1873 1051 1873 1051 1873 1064 c 0,126,127
 1873 1108 1873 1108 1900 1135 c 128,-1,128
 1927 1162 1927 1162 1965.5 1177 c 128,-1,129
 2004 1192 2004 1192 2045 1197 c 128,-1,130
 2086 1202 2086 1202 2114 1202 c 0,131,132
 2168 1202 2168 1202 2219 1188.5 c 128,-1,133
 2270 1175 2270 1175 2319.5 1155.5 c 128,-1,134
 2369 1136 2369 1136 2417 1112.5 c 128,-1,135
 2465 1089 2465 1089 2513.5 1069.5 c 128,-1,136
 2562 1050 2562 1050 2610.5 1036.5 c 128,-1,137
 2659 1023 2659 1023 2710 1023 c 0,138,139
 2738 1023 2738 1023 2761.5 1035.5 c 128,-1,140
 2785 1048 2785 1048 2807 1063.5 c 128,-1,141
 2829 1079 2829 1079 2851 1091.5 c 128,-1,142
 2873 1104 2873 1104 2899 1104 c 0,143,144
 2926 1104 2926 1104 2936 1093 c 128,-1,145
 2946 1082 2946 1082 2946 1065 c 0,146,147
 2946 1041 2946 1041 2920 1020.5 c 128,-1,148
 2894 1000 2894 1000 2857.5 985 c 128,-1,149
 2821 970 2821 970 2782 961.5 c 128,-1,150
 2743 953 2743 953 2716 953 c 256,151,152
 2689 953 2689 953 2657.5 958 c 128,-1,153
 2626 963 2626 963 2591 971 c 1,154,-1
 2591 961 l 1,155,156
 2595 933 2595 933 2597 906 c 128,-1,157
 2599 879 2599 879 2599 853 c 0,158,159
 2599 722 2599 722 2556 604.5 c 128,-1,160
 2513 487 2513 487 2436.5 384 c 128,-1,161
 2360 281 2360 281 2255.5 193.5 c 128,-1,162
 2151 106 2151 106 2028.5 34 c 128,-1,163
 1906 -38 1906 -38 1770 -93 c 128,-1,164
 1634 -148 1634 -148 1495.5 -185.5 c 128,-1,165
 1357 -223 1357 -223 1220 -242.5 c 128,-1,166
 1083 -262 1083 -262 958 -262 c 0,167,168
 828 -262 828 -262 717 -240.5 c 128,-1,169
 606 -219 606 -219 524.5 -175 c 128,-1,170
 443 -131 443 -131 396.5 -64 c 128,-1,171
 350 3 350 3 350 94 c 0,172,173
 350 148 350 148 368.5 224 c 128,-1,174
 387 300 387 300 416 384 c 128,-1,175
 445 468 445 468 481 553.5 c 128,-1,176
 517 639 517 639 552 711 c 1,177,178
 549 704 549 704 525 684.5 c 128,-1,179
 501 665 501 665 463.5 637 c 128,-1,180
 426 609 426 609 379 576 c 128,-1,181
 332 543 332 543 282 509 c 128,-1,182
 232 475 232 475 183 442 c 128,-1,183
 134 409 134 409 93.5 383 c 128,-1,184
 53 357 53 357 23.5 339 c 128,-1,185
 -6 321 -6 321 -16 317 c 1,186,187
 -27 310 -27 310 -36 310 c 0,188,189
 -49 310 -49 310 -55.5 320 c 128,-1,190
 -62 330 -62 330 -62 343 c 0,191,192
 -62 368 -62 368 -42 382 c 0,0,1
1439 2565 m 0,193,194
 1381 2565 1381 2565 1332.5 2529 c 128,-1,195
 1284 2493 1284 2493 1244 2432 c 128,-1,196
 1204 2371 1204 2371 1172 2290.5 c 128,-1,197
 1140 2210 1140 2210 1115 2119.5 c 128,-1,198
 1090 2029 1090 2029 1072.5 1935 c 128,-1,199
 1055 1841 1055 1841 1043.5 1753.5 c 128,-1,200
 1032 1666 1032 1666 1026.5 1590 c 128,-1,201
 1021 1514 1021 1514 1021 1461 c 2,202,-1
 1021 1430 l 1,203,204
 1076 1488 1076 1488 1136 1569 c 128,-1,205
 1196 1650 1196 1650 1253.5 1742 c 128,-1,206
 1311 1834 1311 1834 1362.5 1932 c 128,-1,207
 1414 2030 1414 2030 1453 2123 c 128,-1,208
 1492 2216 1492 2216 1515 2298 c 128,-1,209
 1538 2380 1538 2380 1538 2441 c 0,210,211
 1538 2499 1538 2499 1515 2532 c 128,-1,212
 1492 2565 1492 2565 1439 2565 c 0,193,194
1585 1139 m 0,213,214
 1603 1187 1603 1187 1612 1232.5 c 128,-1,215
 1621 1278 1621 1278 1621 1312 c 0,216,217
 1621 1337 1621 1337 1614.5 1353 c 128,-1,218
 1608 1369 1608 1369 1593 1369 c 0,219,220
 1577 1369 1577 1369 1563 1351 c 128,-1,221
 1549 1333 1549 1333 1539 1304.5 c 128,-1,222
 1529 1276 1529 1276 1523 1239.5 c 128,-1,223
 1517 1203 1517 1203 1517 1167 c 0,224,225
 1517 1132 1517 1132 1520 1094 c 128,-1,226
 1523 1056 1523 1056 1531 1017 c 1,227,228
 1550 1049 1550 1049 1562 1080.5 c 128,-1,229
 1574 1112 1574 1112 1585 1139 c 0,213,214
EndSplineSet
Validated: 1
EndChar

StartChar: quotesingle
Encoding: 39 39 9
Width: 688
Flags: W
HStem: 1475 489
VStem: 180 308
LayerCount: 2
Fore
SplineSet
274 1514 m 0,0,1
 261 1497 261 1497 240.5 1486 c 128,-1,2
 220 1475 220 1475 209 1475 c 0,3,4
 196 1475 196 1475 188 1485 c 128,-1,5
 180 1495 180 1495 180 1516 c 0,6,7
 180 1543 180 1543 189 1586.5 c 128,-1,8
 198 1630 198 1630 213 1680 c 128,-1,9
 228 1730 228 1730 248.5 1780.5 c 128,-1,10
 269 1831 269 1831 291 1872 c 128,-1,11
 313 1913 313 1913 336 1938.5 c 128,-1,12
 359 1964 359 1964 380 1964 c 0,13,14
 411 1964 411 1964 432 1957 c 128,-1,15
 453 1950 453 1950 465.5 1939 c 128,-1,16
 478 1928 478 1928 483 1913 c 128,-1,17
 488 1898 488 1898 488 1883 c 0,18,19
 488 1861 488 1861 481 1840 c 128,-1,20
 474 1819 474 1819 467 1805 c 0,21,22
 440 1752 440 1752 419 1716 c 128,-1,23
 398 1680 398 1680 377 1649.5 c 128,-1,24
 356 1619 356 1619 331.5 1588 c 128,-1,25
 307 1557 307 1557 274 1514 c 0,0,1
EndSplineSet
Validated: 1
EndChar

StartChar: parenleft
Encoding: 40 40 10
Width: 1399
Flags: W
HStem: -301 94<543.072 846.341> -256.5 70.5<741.874 871.969> 2089 82<1019.02 1348.07>
VStem: 89 234<142.373 875.879>
LayerCount: 2
Fore
SplineSet
1363 2125 m 1,0,1
 1395 2111 1395 2111 1395 2097 c 0,2,3
 1395 2086 1395 2086 1380.5 2077.5 c 128,-1,4
 1366 2069 1366 2069 1349 2069 c 0,5,6
 1347 2069 1347 2069 1343.5 2069.5 c 128,-1,7
 1340 2070 1340 2070 1335 2071 c 0,8,9
 1257 2089 1257 2089 1188 2089 c 0,10,11
 1099 2089 1099 2089 1014 2046 c 128,-1,12
 929 2003 929 2003 851.5 1927 c 128,-1,13
 774 1851 774 1851 704.5 1747 c 128,-1,14
 635 1643 635 1643 576.5 1520.5 c 128,-1,15
 518 1398 518 1398 471 1261.5 c 128,-1,16
 424 1125 424 1125 391 985.5 c 128,-1,17
 358 846 358 846 340.5 707.5 c 128,-1,18
 323 569 323 569 323 442 c 0,19,20
 323 304 323 304 345 185.5 c 128,-1,21
 367 67 367 67 413.5 -20 c 128,-1,22
 460 -107 460 -107 533 -157 c 128,-1,23
 606 -207 606 -207 708 -207 c 0,24,25
 767 -207 767 -207 833 -189 c 0,26,27
 835 -189 835 -189 838.5 -187.5 c 128,-1,28
 842 -186 842 -186 846 -186 c 0,29,30
 856 -186 856 -186 864 -196 c 128,-1,31
 872 -206 872 -206 872 -220 c 0,32,33
 872 -241 872 -241 846 -256.5 c 128,-1,34
 820 -272 820 -272 784 -282 c 128,-1,35
 748 -292 748 -292 710.5 -296.5 c 128,-1,36
 673 -301 673 -301 649 -301 c 0,37,38
 501 -301 501 -301 395 -237.5 c 128,-1,39
 289 -174 289 -174 221 -64.5 c 128,-1,40
 153 45 153 45 121 192 c 128,-1,41
 89 339 89 339 89 507 c 0,42,43
 89 642 89 642 108.5 785.5 c 128,-1,44
 128 929 128 929 165.5 1071.5 c 128,-1,45
 203 1214 203 1214 257 1351 c 128,-1,46
 311 1488 311 1488 379 1610 c 128,-1,47
 447 1732 447 1732 529 1835 c 128,-1,48
 611 1938 611 1938 704 2012.5 c 128,-1,49
 797 2087 797 2087 900 2129 c 128,-1,50
 1003 2171 1003 2171 1115 2171 c 0,51,52
 1237 2171 1237 2171 1363 2125 c 1,0,1
EndSplineSet
Validated: 1
EndChar

StartChar: parenright
Encoding: 41 41 11
Width: 1344
Flags: W
HStem: -239 62<14.7374 217.072> 2155 78<460.717 810.998>
VStem: 1030 238<1156.83 1827.27>
LayerCount: 2
Fore
SplineSet
42 -236 m 0,0,1
 22 -234 22 -234 14.5 -228.5 c 128,-1,2
 7 -223 7 -223 7 -217 c 0,3,4
 7 -210 7 -210 12.5 -203 c 128,-1,5
 18 -196 18 -196 27 -190 c 128,-1,6
 36 -184 36 -184 46.5 -180.5 c 128,-1,7
 57 -177 57 -177 68 -177 c 0,8,9
 162 -177 162 -177 253 -130.5 c 128,-1,10
 344 -84 344 -84 429.5 -2 c 128,-1,11
 515 80 515 80 592.5 192 c 128,-1,12
 670 304 670 304 737 435 c 128,-1,13
 804 566 804 566 858 710 c 128,-1,14
 912 854 912 854 950 1001 c 128,-1,15
 988 1148 988 1148 1009 1291.5 c 128,-1,16
 1030 1435 1030 1435 1030 1564 c 0,17,18
 1030 1691 1030 1691 1008.5 1799.5 c 128,-1,19
 987 1908 987 1908 941 1987 c 128,-1,20
 895 2066 895 2066 822.5 2110.5 c 128,-1,21
 750 2155 750 2155 649 2155 c 0,22,23
 608 2155 608 2155 561 2148.5 c 128,-1,24
 514 2142 514 2142 459 2129 c 0,25,26
 457 2129 457 2129 456.5 2128.5 c 128,-1,27
 456 2128 456 2128 455 2128 c 0,28,29
 444 2128 444 2128 435.5 2139 c 128,-1,30
 427 2150 427 2150 427 2162 c 256,31,32
 427 2174 427 2174 443 2184.5 c 128,-1,33
 459 2195 459 2195 484 2203 c 128,-1,34
 509 2211 509 2211 539 2216.5 c 128,-1,35
 569 2222 569 2222 598.5 2225.5 c 128,-1,36
 628 2229 628 2229 652.5 2231 c 128,-1,37
 677 2233 677 2233 690 2233 c 0,38,39
 844 2233 844 2233 953.5 2175.5 c 128,-1,40
 1063 2118 1063 2118 1133 2018 c 128,-1,41
 1203 1918 1203 1918 1235.5 1783 c 128,-1,42
 1268 1648 1268 1648 1268 1492 c 0,43,44
 1268 1355 1268 1355 1244.5 1208 c 128,-1,45
 1221 1061 1221 1061 1177 914 c 128,-1,46
 1133 767 1133 767 1070.5 624 c 128,-1,47
 1008 481 1008 481 930 353 c 128,-1,48
 852 225 852 225 759.5 116.5 c 128,-1,49
 667 8 667 8 563.5 -71 c 128,-1,50
 460 -150 460 -150 346.5 -194.5 c 128,-1,51
 233 -239 233 -239 114 -239 c 0,52,53
 79 -239 79 -239 42 -236 c 0,0,1
EndSplineSet
Validated: 1
EndChar

StartChar: asterisk
Encoding: 42 42 12
Width: 946
Flags: W
LayerCount: 2
Fore
SplineSet
521 1286 m 1,0,1
 535 1297 535 1297 549 1301 c 128,-1,2
 563 1305 563 1305 579 1305 c 0,3,4
 599 1305 599 1305 608 1296 c 128,-1,5
 617 1287 617 1287 617 1261 c 0,6,7
 617 1239 617 1239 608 1200 c 128,-1,8
 599 1161 599 1161 585.5 1114.5 c 128,-1,9
 572 1068 572 1068 555.5 1018 c 128,-1,10
 539 968 539 968 524 924 c 1,11,12
 601 955 601 955 686 989 c 128,-1,13
 771 1023 771 1023 852 1044 c 0,14,15
 861 1047 861 1047 867 1047 c 0,16,17
 886 1047 886 1047 895.5 1034 c 128,-1,18
 905 1021 905 1021 905 1002 c 1,19,20
 903 987 903 987 894 970.5 c 128,-1,21
 885 954 885 954 862 939 c 1,22,23
 851 934 851 934 812 924.5 c 128,-1,24
 773 915 773 915 723 903 c 128,-1,25
 673 891 673 891 621 879.5 c 128,-1,26
 569 868 569 868 533 861 c 1,27,28
 578 773 578 773 613 705 c 128,-1,29
 648 637 648 637 665 592 c 0,30,31
 665 590 665 590 665.5 590 c 128,-1,32
 666 590 666 590 666 589 c 256,33,34
 666 588 666 588 667 588 c 1,35,36
 666 581 666 581 656 572.5 c 128,-1,37
 646 564 646 564 633 556 c 128,-1,38
 620 548 620 548 606 542.5 c 128,-1,39
 592 537 592 537 582 537 c 0,40,41
 575 537 575 537 571 540 c 1,42,43
 549 573 549 573 530.5 614 c 128,-1,44
 512 655 512 655 496 695 c 128,-1,45
 480 735 480 735 467.5 768.5 c 128,-1,46
 455 802 455 802 445 820 c 1,47,48
 432 812 432 812 409 792.5 c 128,-1,49
 386 773 386 773 357.5 748 c 128,-1,50
 329 723 329 723 297.5 694 c 128,-1,51
 266 665 266 665 235.5 638.5 c 128,-1,52
 205 612 205 612 177.5 589.5 c 128,-1,53
 150 567 150 567 131 555 c 1,54,55
 127 551 127 551 115 551 c 0,56,57
 94 551 94 551 75 566 c 128,-1,58
 56 581 56 581 56 604 c 0,59,60
 56 614 56 614 63 626 c 128,-1,61
 70 638 70 638 86 650 c 0,62,63
 123 678 123 678 165.5 709.5 c 128,-1,64
 208 741 208 741 247 770.5 c 128,-1,65
 286 800 286 800 318 825 c 128,-1,66
 350 850 350 850 368 867 c 1,67,68
 346 875 346 875 315 887 c 128,-1,69
 284 899 284 899 250 913 c 128,-1,70
 216 927 216 927 182.5 941.5 c 128,-1,71
 149 956 149 956 122 969.5 c 128,-1,72
 95 983 95 983 78.5 994 c 128,-1,73
 62 1005 62 1005 62 1011 c 0,74,75
 63 1019 63 1019 68 1029.5 c 128,-1,76
 73 1040 73 1040 80.5 1049 c 128,-1,77
 88 1058 88 1058 96.5 1064.5 c 128,-1,78
 105 1071 105 1071 113 1071 c 2,79,-1
 115 1071 l 1,80,81
 138 1066 138 1066 178 1048 c 128,-1,82
 218 1030 218 1030 262.5 1008 c 128,-1,83
 307 986 307 986 349.5 964.5 c 128,-1,84
 392 943 392 943 419 932 c 1,85,86
 429 970 429 970 441 1024.5 c 128,-1,87
 453 1079 453 1079 465.5 1132 c 128,-1,88
 478 1185 478 1185 492 1228 c 128,-1,89
 506 1271 506 1271 521 1286 c 1,0,1
EndSplineSet
Validated: 1
EndChar

StartChar: plus
Encoding: 43 43 13
Width: 888
Flags: W
HStem: 661 80<539 847.81>
LayerCount: 2
Fore
SplineSet
568 1206 m 0,0,1
 585 1221 585 1221 602.5 1226 c 128,-1,2
 620 1231 620 1231 638 1231 c 2,3,-1
 653 1231 l 1,4,5
 668 1230 668 1230 672 1210 c 128,-1,6
 676 1190 676 1190 671 1156.5 c 128,-1,7
 666 1123 666 1123 654 1078.5 c 128,-1,8
 642 1034 642 1034 625 984 c 0,9,10
 606 927 606 927 583.5 863.5 c 128,-1,11
 561 800 561 800 539 742 c 1,12,13
 566 740 566 740 592 740 c 0,14,15
 599 740 599 740 605.5 740.5 c 128,-1,16
 612 741 612 741 667 741 c 2,17,-1
 746 741 l 2,18,19
 807 741 807 741 839 735 c 128,-1,20
 871 729 871 729 863 706 c 0,21,22
 854 677 854 677 848 669 c 128,-1,23
 842 661 842 661 826 661 c 0,24,25
 808 661 808 661 776.5 661 c 128,-1,26
 745 661 745 661 704 660.5 c 128,-1,27
 663 660 663 660 614.5 659.5 c 128,-1,28
 566 659 566 659 514 658 c 1,29,30
 475 552 475 552 428.5 441.5 c 128,-1,31
 382 331 382 331 330 201 c 0,32,33
 322 179 322 179 301.5 170 c 128,-1,34
 281 161 281 161 259 161 c 0,35,36
 247 161 247 161 234.5 165 c 128,-1,37
 222 169 222 169 212 175 c 128,-1,38
 202 181 202 181 196.5 188.5 c 128,-1,39
 191 196 191 196 193 203 c 0,40,41
 199 227 199 227 212 266 c 128,-1,42
 225 305 225 305 240.5 351.5 c 128,-1,43
 256 398 256 398 273 447 c 128,-1,44
 290 496 290 496 305.5 539.5 c 128,-1,45
 321 583 321 583 332 618 c 128,-1,46
 343 653 343 653 347 670 c 1,47,48
 321 670 321 670 291.5 671 c 128,-1,49
 262 672 262 672 246 671 c 0,50,51
 231 670 231 670 208.5 670.5 c 128,-1,52
 186 671 186 671 161 673 c 128,-1,53
 136 675 136 675 111 678 c 128,-1,54
 86 681 86 681 67 685.5 c 128,-1,55
 48 690 48 690 37 696 c 128,-1,56
 26 702 26 702 29 710 c 0,57,58
 30 714 30 714 31 717.5 c 128,-1,59
 32 721 32 721 34 726 c 0,60,61
 38 738 38 738 65 744 c 128,-1,62
 92 750 92 750 133.5 752.5 c 128,-1,63
 175 755 175 755 226 755 c 128,-1,64
 277 755 277 755 330 755 c 0,65,66
 341 755 341 755 353 755 c 128,-1,67
 365 755 365 755 376 754 c 1,68,-1
 426 893 l 2,69,70
 429 903 429 903 437.5 927 c 128,-1,71
 446 951 446 951 457.5 982 c 128,-1,72
 469 1013 469 1013 483 1047 c 128,-1,73
 497 1081 497 1081 511.5 1112.5 c 128,-1,74
 526 1144 526 1144 540.5 1169 c 128,-1,75
 555 1194 555 1194 568 1206 c 0,0,1
EndSplineSet
Validated: 1
EndChar

StartChar: comma
Encoding: 44 44 14
Width: 639
Flags: W
HStem: -227 54<68.7992 214.82>
VStem: 156 404<39.7427 265.993>
LayerCount: 2
Fore
SplineSet
71 -166 m 1,0,1
 93 -173 93 -173 120 -173 c 0,2,3
 184 -173 184 -173 237.5 -131 c 128,-1,4
 291 -89 291 -89 333 -25 c 1,5,6
 285 -22 285 -22 251.5 -7 c 128,-1,7
 218 8 218 8 197 30.5 c 128,-1,8
 176 53 176 53 166 80 c 128,-1,9
 156 107 156 107 156 133 c 0,10,11
 156 174 156 174 173.5 216 c 128,-1,12
 191 258 191 258 221 291.5 c 128,-1,13
 251 325 251 325 290 346.5 c 128,-1,14
 329 368 329 368 373 368 c 0,15,16
 407 368 407 368 440.5 356 c 128,-1,17
 474 344 474 344 500.5 323 c 128,-1,18
 527 302 527 302 543.5 272.5 c 128,-1,19
 560 243 560 243 560 209 c 0,20,21
 560 165 560 165 545.5 116 c 128,-1,22
 531 67 531 67 504.5 18.5 c 128,-1,23
 478 -30 478 -30 441 -74.5 c 128,-1,24
 404 -119 404 -119 359 -153 c 128,-1,25
 314 -187 314 -187 263 -207 c 128,-1,26
 212 -227 212 -227 157 -227 c 0,27,28
 115 -227 115 -227 59 -213 c 1,29,-1
 71 -166 l 1,0,1
EndSplineSet
Validated: 1
EndChar

StartChar: hyphen
Encoding: 45 45 15
Width: 1690
Flags: W
HStem: 328 137<164.64 968.412> 329 121<914.728 1532.99> 335.5 100<1247.14 1532.99>
LayerCount: 2
Fore
SplineSet
167 371 m 0,0,1
 150 383 150 383 145 399 c 128,-1,2
 140 415 140 415 140 434 c 0,3,4
 140 446 140 446 162.5 453.5 c 128,-1,5
 185 461 185 461 221.5 465 c 128,-1,6
 258 469 258 469 304.5 470.5 c 128,-1,7
 351 472 351 472 399 472 c 0,8,9
 449 472 449 472 524.5 470 c 128,-1,10
 600 468 600 468 689 465 c 128,-1,11
 778 462 778 462 875 458 c 128,-1,12
 972 454 972 454 1066 450 c 128,-1,13
 1160 446 1160 446 1244.5 442 c 128,-1,14
 1329 438 1329 438 1393 435.5 c 128,-1,15
 1457 433 1457 433 1495 430.5 c 128,-1,16
 1533 428 1533 428 1533 427 c 0,17,18
 1555 425 1555 425 1574.5 410 c 128,-1,19
 1594 395 1594 395 1594 380 c 0,20,21
 1594 368 1594 368 1582 361 c 0,22,23
 1570 355 1570 355 1533 350 c 128,-1,24
 1496 345 1496 345 1441.5 341.5 c 128,-1,25
 1387 338 1387 338 1318 335.5 c 128,-1,26
 1249 333 1249 333 1173.5 331.5 c 128,-1,27
 1098 330 1098 330 1018.5 329 c 128,-1,28
 939 328 939 328 863 328 c 0,29,30
 800 328 800 328 741.5 328 c 128,-1,31
 683 328 683 328 634.5 328.5 c 128,-1,32
 586 329 586 329 549.5 330 c 128,-1,33
 513 331 513 331 492 332 c 0,34,35
 481 332 481 332 456.5 332.5 c 128,-1,36
 432 333 432 333 400 334 c 128,-1,37
 368 335 368 335 332 337.5 c 128,-1,38
 296 340 296 340 263.5 344.5 c 128,-1,39
 231 349 231 349 205 355.5 c 128,-1,40
 179 362 179 362 167 371 c 0,0,1
EndSplineSet
Validated: 1
EndChar

StartChar: period
Encoding: 46 46 16
Width: 664
Flags: W
HStem: -17 462<231.625 403.902>
VStem: 111 459<133.289 309.979>
LayerCount: 2
Fore
SplineSet
241 -17 m 0,0,1
 207 -17 207 -17 182.5 -4 c 128,-1,2
 158 9 158 9 142 31 c 128,-1,3
 126 53 126 53 118.5 81.5 c 128,-1,4
 111 110 111 110 111 141 c 0,5,6
 111 192 111 192 128 245.5 c 128,-1,7
 145 299 145 299 177 343.5 c 128,-1,8
 209 388 209 388 254.5 416.5 c 128,-1,9
 300 445 300 445 357 445 c 0,10,11
 416 445 416 445 457 430 c 128,-1,12
 498 415 498 415 523 390 c 128,-1,13
 548 365 548 365 559 332.5 c 128,-1,14
 570 300 570 300 570 266 c 0,15,16
 570 208 570 208 540 156.5 c 128,-1,17
 510 105 510 105 462.5 66.5 c 128,-1,18
 415 28 415 28 356.5 5.5 c 128,-1,19
 298 -17 298 -17 241 -17 c 0,0,1
EndSplineSet
Validated: 1
EndChar

StartChar: slash
Encoding: 47 47 17
Width: 1151
Flags: W
LayerCount: 2
Fore
SplineSet
1128 2153 m 0,0,1
 1123 2135 1123 2135 1118 2125 c 128,-1,2
 1113 2115 1113 2115 1109 2109 c 128,-1,3
 1105 2103 1105 2103 1101 2098.5 c 128,-1,4
 1097 2094 1097 2094 1093 2086 c 0,5,6
 1082 2063 1082 2063 1063 2018.5 c 128,-1,7
 1044 1974 1044 1974 1022 1919.5 c 128,-1,8
 1000 1865 1000 1865 976.5 1807.5 c 128,-1,9
 953 1750 953 1750 934 1701 c 128,-1,10
 915 1652 915 1652 902 1618.5 c 128,-1,11
 889 1585 889 1585 887 1578 c 1,12,13
 874 1551 874 1551 844 1477.5 c 128,-1,14
 814 1404 814 1404 772 1298 c 128,-1,15
 730 1192 730 1192 679 1060.5 c 128,-1,16
 628 929 628 929 572.5 786.5 c 128,-1,17
 517 644 517 644 459.5 496.5 c 128,-1,18
 402 349 402 349 347.5 212 c 128,-1,19
 293 75 293 75 244 -46 c 128,-1,20
 195 -167 195 -167 157 -256.5 c 128,-1,21
 119 -346 119 -346 93.5 -398 c 128,-1,22
 68 -450 68 -450 61 -450 c 1,23,24
 60 -451 60 -451 56 -451 c 1,25,26
 54 -452 54 -452 50.5 -452 c 128,-1,27
 47 -452 47 -452 44 -452 c 0,28,29
 31 -452 31 -452 18.5 -446.5 c 128,-1,30
 6 -441 6 -441 6 -424 c 0,31,32
 6 -413 6 -413 12 -398 c 0,33,34
 77 -227 77 -227 144.5 -50 c 128,-1,35
 212 127 212 127 280 304.5 c 128,-1,36
 348 482 348 482 416 656.5 c 128,-1,37
 484 831 484 831 549.5 998 c 128,-1,38
 615 1165 615 1165 678 1320.5 c 128,-1,39
 741 1476 741 1476 799 1615 c 0,40,41
 815 1654 815 1654 841.5 1717.5 c 128,-1,42
 868 1781 868 1781 900 1853.5 c 128,-1,43
 932 1926 932 1926 966 1999 c 128,-1,44
 1000 2072 1000 2072 1031 2131.5 c 128,-1,45
 1062 2191 1062 2191 1087 2228 c 128,-1,46
 1112 2265 1112 2265 1125 2265 c 0,47,48
 1133 2265 1133 2265 1139 2259 c 128,-1,49
 1145 2253 1145 2253 1145 2238 c 0,50,51
 1145 2226 1145 2226 1141.5 2205.5 c 128,-1,52
 1138 2185 1138 2185 1128 2153 c 0,0,1
EndSplineSet
Validated: 1
EndChar

StartChar: zero
Encoding: 48 48 18
Width: 1386
Flags: W
HStem: -26 83<419.447 678.027> 1238 86<752.918 990.862>
VStem: 150 200<127.014 610.569> 1076 212<588.628 1114.58>
LayerCount: 2
Fore
SplineSet
982 1324 m 0,0,1
 1055 1324 1055 1324 1112 1287 c 128,-1,2
 1169 1250 1169 1250 1208 1186 c 128,-1,3
 1247 1122 1247 1122 1267.5 1037 c 128,-1,4
 1288 952 1288 952 1288 855 c 0,5,6
 1288 713 1288 713 1251.5 592.5 c 128,-1,7
 1215 472 1215 472 1153 374.5 c 128,-1,8
 1091 277 1091 277 1009 202 c 128,-1,9
 927 127 927 127 837 76.5 c 128,-1,10
 747 26 747 26 654.5 0 c 128,-1,11
 562 -26 562 -26 478 -26 c 0,12,13
 409 -26 409 -26 349 -8 c 128,-1,14
 289 10 289 10 244.5 46.5 c 128,-1,15
 200 83 200 83 175 138.5 c 128,-1,16
 150 194 150 194 150 269 c 0,17,18
 150 421 150 421 181.5 558.5 c 128,-1,19
 213 696 213 696 269.5 813 c 128,-1,20
 326 930 326 930 403.5 1024.5 c 128,-1,21
 481 1119 481 1119 573.5 1185.5 c 128,-1,22
 666 1252 666 1252 770 1288 c 128,-1,23
 874 1324 874 1324 982 1324 c 0,0,1
350 302 m 0,24,25
 350 239 350 239 364 193 c 128,-1,26
 378 147 378 147 402.5 116.5 c 128,-1,27
 427 86 427 86 460.5 71.5 c 128,-1,28
 494 57 494 57 533 57 c 0,29,30
 587 57 587 57 648 83.5 c 128,-1,31
 709 110 709 110 769.5 161 c 128,-1,32
 830 212 830 212 885.5 286 c 128,-1,33
 941 360 941 360 983 455 c 128,-1,34
 1025 550 1025 550 1050.5 665.5 c 128,-1,35
 1076 781 1076 781 1076 914 c 0,36,37
 1076 998 1076 998 1061 1059 c 128,-1,38
 1046 1120 1046 1120 1020 1160 c 128,-1,39
 994 1200 994 1200 958.5 1219 c 128,-1,40
 923 1238 923 1238 881 1238 c 0,41,42
 827 1238 827 1238 767 1207.5 c 128,-1,43
 707 1177 707 1177 648 1119.5 c 128,-1,44
 589 1062 589 1062 535 980 c 128,-1,45
 481 898 481 898 440 794 c 128,-1,46
 399 690 399 690 374.5 566 c 128,-1,47
 350 442 350 442 350 302 c 0,24,25
EndSplineSet
Validated: 1
EndChar

StartChar: one
Encoding: 49 49 19
Width: 832
Flags: W
LayerCount: 2
Fore
SplineSet
102 92 m 1,0,1
 103 108 103 108 108.5 117 c 128,-1,2
 114 126 114 126 121.5 131.5 c 128,-1,3
 129 137 129 137 137 141.5 c 128,-1,4
 145 146 145 146 151 154 c 1,5,6
 163 176 163 176 181.5 217 c 128,-1,7
 200 258 200 258 220.5 307 c 128,-1,8
 241 356 241 356 262.5 408 c 128,-1,9
 284 460 284 460 302 503.5 c 128,-1,10
 320 547 320 547 332.5 578 c 128,-1,11
 345 609 345 609 348 615 c 0,12,13
 366 646 366 646 390.5 695.5 c 128,-1,14
 415 745 415 745 444 804.5 c 128,-1,15
 473 864 473 864 505.5 929.5 c 128,-1,16
 538 995 538 995 571 1059 c 128,-1,17
 604 1123 604 1123 637 1181 c 128,-1,18
 670 1239 670 1239 700.5 1283 c 128,-1,19
 731 1327 731 1327 757.5 1353 c 128,-1,20
 784 1379 784 1379 804 1379 c 0,21,22
 828 1379 828 1379 837.5 1352 c 128,-1,23
 847 1325 847 1325 847 1292 c 1,24,25
 841 1264 841 1264 828 1218 c 128,-1,26
 815 1172 815 1172 786.5 1094 c 128,-1,27
 758 1016 758 1016 711 897.5 c 128,-1,28
 664 779 664 779 591 605 c 0,29,30
 576 569 576 569 549 510.5 c 128,-1,31
 522 452 522 452 487.5 384.5 c 128,-1,32
 453 317 453 317 413 249 c 128,-1,33
 373 181 373 181 332 125.5 c 128,-1,34
 291 70 291 70 251.5 35.5 c 128,-1,35
 212 1 212 1 178 1 c 0,36,37
 161 1 161 1 147 2.5 c 128,-1,38
 133 4 133 4 123 12 c 128,-1,39
 113 20 113 20 107.5 36 c 128,-1,40
 102 52 102 52 102 81 c 2,41,-1
 102 92 l 1,0,1
EndSplineSet
Validated: 1
EndChar

StartChar: two
Encoding: 50 50 20
Width: 1059
Flags: W
HStem: 8 160.5<268.784 816.438> 31 66<4.45862 125.367> 1249 82<457.312 769.062>
VStem: 816 202<814.043 1200.35>
LayerCount: 2
Fore
SplineSet
873 45 m 0,0,1
 859 32 859 32 828.5 25 c 128,-1,2
 798 18 798 18 764.5 14.5 c 128,-1,3
 731 11 731 11 702.5 10 c 128,-1,4
 674 9 674 9 664 9 c 0,5,6
 652 9 652 9 631.5 8.5 c 128,-1,7
 611 8 611 8 584 8 c 0,8,9
 541 8 541 8 484.5 8.5 c 128,-1,10
 428 9 428 9 367.5 10 c 128,-1,11
 307 11 307 11 248 13 c 128,-1,12
 189 15 189 15 140.5 17.5 c 128,-1,13
 92 20 92 20 58.5 23.5 c 128,-1,14
 25 27 25 27 17 31 c 1,15,16
 9 33 9 33 6.5 41 c 128,-1,17
 4 49 4 49 4 57 c 0,18,19
 4 71 4 71 10.5 83.5 c 128,-1,20
 17 96 17 96 29 97 c 1,21,-1
 55 102 l 2,22,23
 68 104 68 104 85.5 107.5 c 128,-1,24
 103 111 103 111 126 116 c 1,25,-1
 127 117 l 1,26,27
 310 234 310 234 440.5 352.5 c 128,-1,28
 571 471 571 471 654.5 590.5 c 128,-1,29
 738 710 738 710 777 830.5 c 128,-1,30
 816 951 816 951 816 1072 c 0,31,32
 816 1121 816 1121 803 1155 c 128,-1,33
 790 1189 790 1189 767 1210 c 128,-1,34
 744 1231 744 1231 711 1240 c 128,-1,35
 678 1249 678 1249 639 1249 c 0,36,37
 594 1249 594 1249 540 1239 c 128,-1,38
 486 1229 486 1229 432 1212 c 0,39,40
 423 1209 423 1209 415 1208 c 128,-1,41
 407 1207 407 1207 402 1207 c 0,42,43
 386 1207 386 1207 381.5 1216.5 c 128,-1,44
 377 1226 377 1226 377 1237 c 1,45,46
 378 1242 378 1242 380 1247.5 c 128,-1,47
 382 1253 382 1253 386 1255 c 0,48,49
 413 1273 413 1273 449 1287 c 128,-1,50
 485 1301 485 1301 524.5 1311 c 128,-1,51
 564 1321 564 1321 606 1326 c 128,-1,52
 648 1331 648 1331 687 1331 c 0,53,54
 751 1331 751 1331 810.5 1315 c 128,-1,55
 870 1299 870 1299 916 1263.5 c 128,-1,56
 962 1228 962 1228 990 1171 c 128,-1,57
 1018 1114 1018 1114 1018 1032 c 0,58,59
 1018 923 1018 923 985 827.5 c 128,-1,60
 952 732 952 732 895.5 647.5 c 128,-1,61
 839 563 839 563 764.5 490 c 128,-1,62
 690 417 690 417 606.5 353.5 c 128,-1,63
 523 290 523 290 436 236.5 c 128,-1,64
 349 183 349 183 268 138 c 1,65,66
 293 142 293 142 329 145.5 c 128,-1,67
 365 149 365 149 406 152.5 c 128,-1,68
 447 156 447 156 490.5 159 c 128,-1,69
 534 162 534 162 572.5 164.5 c 128,-1,70
 611 167 611 167 642.5 168.5 c 128,-1,71
 674 170 674 170 692 171 c 0,72,73
 701 171 701 171 715.5 173 c 128,-1,74
 730 175 730 175 746.5 177 c 128,-1,75
 763 179 763 179 781 181 c 128,-1,76
 799 183 799 183 817 183 c 0,77,78
 851 183 851 183 877 172 c 128,-1,79
 903 161 903 161 903 130 c 0,80,81
 903 105 903 105 896 82 c 128,-1,82
 889 59 889 59 873 45 c 0,0,1
EndSplineSet
Validated: 1
EndChar

StartChar: three
Encoding: 51 51 21
Width: 1218
Flags: W
HStem: -147 86<263.485 611.845> 152 116<196.053 294.336> 767 76<574 628.523> 1200 36<490.593 539.079> 1235 79<600.668 885.405>
VStem: 80 112<-0.488281 152.746> 794 241<151.318 539.062> 937 199<985.104 1190.19>
LayerCount: 2
Fore
SplineSet
220 268 m 1,0,1
 274 263 274 263 295 249.5 c 128,-1,2
 316 236 316 236 316 216 c 0,3,4
 316 193 316 193 303 180.5 c 128,-1,5
 290 168 290 168 273 161.5 c 128,-1,6
 256 155 256 155 240.5 153.5 c 128,-1,7
 225 152 225 152 220 152 c 0,8,9
 216 152 216 152 211.5 144.5 c 128,-1,10
 207 137 207 137 203 127 c 128,-1,11
 199 117 199 117 196.5 108.5 c 128,-1,12
 194 100 194 100 194 97 c 0,13,14
 193 92 193 92 192.5 87.5 c 128,-1,15
 192 83 192 83 192 79 c 0,16,17
 192 42 192 42 218 15.5 c 128,-1,18
 244 -11 244 -11 283.5 -28 c 128,-1,19
 323 -45 323 -45 371.5 -53 c 128,-1,20
 420 -61 420 -61 465 -61 c 0,21,22
 544 -61 544 -61 605.5 -22.5 c 128,-1,23
 667 16 667 16 709 77.5 c 128,-1,24
 751 139 751 139 772.5 216.5 c 128,-1,25
 794 294 794 294 794 373 c 0,26,27
 794 436 794 436 780.5 496 c 128,-1,28
 767 556 767 556 738 608 c 128,-1,29
 709 660 709 660 664.5 701 c 128,-1,30
 620 742 620 742 557 767 c 1,31,-1
 574 843 l 1,32,33
 659 846 659 846 726 871.5 c 128,-1,34
 793 897 793 897 840 934 c 128,-1,35
 887 971 887 971 912 1013.5 c 128,-1,36
 937 1056 937 1056 937 1093 c 0,37,38
 937 1122 937 1122 924 1148 c 128,-1,39
 911 1174 911 1174 888.5 1193.5 c 128,-1,40
 866 1213 866 1213 835.5 1224 c 128,-1,41
 805 1235 805 1235 771 1235 c 0,42,43
 738 1235 738 1235 704 1231.5 c 128,-1,44
 670 1228 670 1228 638 1223 c 128,-1,45
 606 1218 606 1218 578 1212.5 c 128,-1,46
 550 1207 550 1207 531 1202 c 0,47,48
 525 1200 525 1200 520 1200 c 0,49,50
 490 1200 490 1200 490 1224 c 0,51,52
 490 1232 490 1232 497 1236 c 0,53,54
 594 1278 594 1278 683.5 1296 c 128,-1,55
 773 1314 773 1314 852 1314 c 0,56,57
 916 1314 916 1314 968 1295.5 c 128,-1,58
 1020 1277 1020 1277 1057.5 1247 c 128,-1,59
 1095 1217 1095 1217 1115.5 1178 c 128,-1,60
 1136 1139 1136 1139 1136 1098 c 0,61,62
 1136 1060 1136 1060 1114 1012 c 128,-1,63
 1092 964 1092 964 1042 919.5 c 128,-1,64
 992 875 992 875 911 840.5 c 128,-1,65
 830 806 830 806 713 794 c 1,66,67
 795 759 795 759 855.5 709.5 c 128,-1,68
 916 660 916 660 956 600 c 128,-1,69
 996 540 996 540 1015.5 473 c 128,-1,70
 1035 406 1035 406 1035 337 c 0,71,72
 1035 246 1035 246 998.5 159 c 128,-1,73
 962 72 962 72 890 4 c 128,-1,74
 818 -64 818 -64 710 -105.5 c 128,-1,75
 602 -147 602 -147 458 -147 c 0,76,77
 383 -147 383 -147 314.5 -132 c 128,-1,78
 246 -117 246 -117 194 -88.5 c 128,-1,79
 142 -60 142 -60 111 -19 c 128,-1,80
 80 22 80 22 80 75 c 0,81,82
 80 90 80 90 83 107 c 0,83,84
 92 156 92 156 109.5 187 c 128,-1,85
 127 218 127 218 147 236 c 128,-1,86
 167 254 167 254 186.5 261 c 128,-1,87
 206 268 206 268 220 268 c 1,0,1
EndSplineSet
Validated: 1
EndChar

StartChar: four
Encoding: 52 52 22
Width: 1590
Flags: W
HStem: 358 60<1057 1327.3> 394 93<535.204 854.393 1301.24 1570.81>
LayerCount: 2
Fore
SplineSet
871 -49 m 1,0,1
 871 -52 871 -52 856.5 -60 c 128,-1,2
 842 -68 842 -68 818.5 -76.5 c 128,-1,3
 795 -85 795 -85 766 -92 c 128,-1,4
 737 -99 737 -99 709 -99 c 0,5,6
 700 -99 700 -99 684 -97.5 c 128,-1,7
 668 -96 668 -96 654.5 -90.5 c 128,-1,8
 641 -85 641 -85 635 -74.5 c 128,-1,9
 629 -64 629 -64 640 -45 c 1,10,11
 654 -15 654 -15 668.5 7.5 c 128,-1,12
 683 30 683 30 698.5 52.5 c 128,-1,13
 714 75 714 75 732.5 100.5 c 128,-1,14
 751 126 751 126 773.5 162 c 128,-1,15
 796 198 796 198 824 247.5 c 128,-1,16
 852 297 852 297 887 367 c 1,17,18
 736 376 736 376 620.5 392.5 c 128,-1,19
 505 409 505 409 417 426 c 1,20,21
 296 335 296 335 217 335 c 0,22,23
 144 335 144 335 110.5 361 c 128,-1,24
 77 387 77 387 77 424 c 0,25,26
 77 457 77 457 99.5 488 c 128,-1,27
 122 519 122 519 158 545 c 128,-1,28
 194 571 194 571 239 590.5 c 128,-1,29
 284 610 284 610 329 619 c 1,30,31
 390 658 390 658 475.5 720.5 c 128,-1,32
 561 783 561 783 666.5 869.5 c 128,-1,33
 772 956 772 956 895.5 1067.5 c 128,-1,34
 1019 1179 1019 1179 1157 1316 c 1,35,-1
 1324 1311 l 1,36,37
 1337 1331 1337 1331 1350.5 1341 c 128,-1,38
 1364 1351 1364 1351 1374 1351 c 0,39,40
 1392 1351 1392 1351 1392 1329 c 0,41,42
 1392 1321 1392 1321 1389 1311 c 0,43,44
 1343 1178 1343 1178 1298 1053.5 c 128,-1,45
 1253 929 1253 929 1210.5 816 c 128,-1,46
 1168 703 1168 703 1129.5 603.5 c 128,-1,47
 1091 504 1091 504 1057 420 c 1,48,49
 1068 418 1068 418 1078 418 c 128,-1,50
 1088 418 1088 418 1099 418 c 2,51,-1
 1130 418 l 2,52,53
 1179 418 1179 418 1236 429 c 128,-1,54
 1293 440 1293 440 1348 452.5 c 128,-1,55
 1403 465 1403 465 1450.5 476 c 128,-1,56
 1498 487 1498 487 1529 487 c 0,57,58
 1565 487 1565 487 1571 467 c 1,59,-1
 1574 446 l 2,60,61
 1575 443 1575 443 1575 435 c 0,62,63
 1575 409 1575 409 1548.5 394 c 128,-1,64
 1522 379 1522 379 1479 371 c 128,-1,65
 1436 363 1436 363 1381 360.5 c 128,-1,66
 1326 358 1326 358 1269 358 c 0,67,68
 1206 358 1206 358 1148 358 c 128,-1,69
 1090 358 1090 358 1036 360 c 1,70,71
 993 240 993 240 964.5 161 c 128,-1,72
 936 82 936 82 917.5 35.5 c 128,-1,73
 899 -11 899 -11 888.5 -30 c 128,-1,74
 878 -49 878 -49 871 -49 c 1,0,1
517 499 m 1,75,76
 557 491 557 491 599 482 c 128,-1,77
 641 473 641 473 689 465 c 128,-1,78
 737 457 737 457 794 449.5 c 128,-1,79
 851 442 851 442 922 436 c 1,80,81
 1001 575 1001 575 1085.5 759.5 c 128,-1,82
 1170 944 1170 944 1251 1174 c 1,83,84
 1173 1088 1173 1088 1082.5 996.5 c 128,-1,85
 992 905 992 905 896.5 816.5 c 128,-1,86
 801 728 801 728 704 646.5 c 128,-1,87
 607 565 607 565 517 499 c 1,75,76
EndSplineSet
Validated: 1
EndChar

StartChar: five
Encoding: 53 53 23
Width: 1161
Flags: W
HStem: -29 104<194.164 642.805> 696 102<451.385 750.203> 1167.5 130.5<589 1068.99>
VStem: 823 193<269.719 623.896>
LayerCount: 2
Fore
SplineSet
467 1244 m 1,0,1
 475 1258 475 1258 484.5 1269.5 c 128,-1,2
 494 1281 494 1281 518 1284 c 0,3,4
 543 1287 543 1287 589 1289.5 c 128,-1,5
 635 1292 635 1292 690 1294 c 128,-1,6
 745 1296 745 1296 803 1297 c 128,-1,7
 861 1298 861 1298 911 1298 c 256,8,9
 961 1298 961 1298 993.5 1296.5 c 128,-1,10
 1026 1295 1026 1295 1044.5 1290.5 c 128,-1,11
 1063 1286 1063 1286 1070.5 1277.5 c 128,-1,12
 1078 1269 1078 1269 1078 1256 c 0,13,14
 1078 1241 1078 1241 1073.5 1225 c 128,-1,15
 1069 1209 1069 1209 1060.5 1196.5 c 128,-1,16
 1052 1184 1052 1184 1041.5 1175.5 c 128,-1,17
 1031 1167 1031 1167 1019 1167 c 0,18,19
 1000 1167 1000 1167 956.5 1167.5 c 128,-1,20
 913 1168 913 1168 854.5 1169.5 c 128,-1,21
 796 1171 796 1171 727 1172.5 c 128,-1,22
 658 1174 658 1174 589 1176 c 1,23,24
 538 1067 538 1067 478 942.5 c 128,-1,25
 418 818 418 818 343 683 c 1,26,27
 385 714 385 714 421 736 c 128,-1,28
 457 758 457 758 493 771.5 c 128,-1,29
 529 785 529 785 568 791.5 c 128,-1,30
 607 798 607 798 654 798 c 0,31,32
 755 798 755 798 824.5 769.5 c 128,-1,33
 894 741 894 741 936.5 693.5 c 128,-1,34
 979 646 979 646 997.5 585.5 c 128,-1,35
 1016 525 1016 525 1016 462 c 0,36,37
 1016 379 1016 379 981 292 c 128,-1,38
 946 205 946 205 878.5 133.5 c 128,-1,39
 811 62 811 62 712 16.5 c 128,-1,40
 613 -29 613 -29 485 -29 c 0,41,42
 412 -29 412 -29 353 -24.5 c 128,-1,43
 294 -20 294 -20 244.5 -9.5 c 128,-1,44
 195 1 195 1 153.5 18 c 128,-1,45
 112 35 112 35 73 59 c 0,46,47
 57 68 57 68 49 84 c 128,-1,48
 41 100 41 100 41 117 c 0,49,50
 41 122 41 122 43.5 131.5 c 128,-1,51
 46 141 46 141 52 150.5 c 128,-1,52
 58 160 58 160 67.5 167 c 128,-1,53
 77 174 77 174 91 174 c 0,54,55
 102 174 102 174 109 170 c 1,56,57
 139 145 139 145 177.5 127 c 128,-1,58
 216 109 216 109 257 97.5 c 128,-1,59
 298 86 298 86 338 80.5 c 128,-1,60
 378 75 378 75 411 75 c 0,61,62
 494 75 494 75 563 90.5 c 128,-1,63
 632 106 632 106 684.5 145.5 c 128,-1,64
 737 185 737 185 771.5 253.5 c 128,-1,65
 806 322 806 322 820 429 c 0,66,67
 823 450 823 450 823 474 c 0,68,69
 823 511 823 511 813.5 550.5 c 128,-1,70
 804 590 804 590 779.5 622 c 128,-1,71
 755 654 755 654 713 675 c 128,-1,72
 671 696 671 696 607 696 c 0,73,74
 550 696 550 696 494 681.5 c 128,-1,75
 438 667 438 667 389.5 649 c 128,-1,76
 341 631 341 631 303.5 616.5 c 128,-1,77
 266 602 266 602 247 602 c 0,78,79
 218 602 218 602 218 637 c 0,80,81
 218 651 218 651 221 669 c 128,-1,82
 224 687 224 687 235 710 c 0,83,84
 311 871 311 871 365 1003 c 128,-1,85
 419 1135 419 1135 467 1244 c 1,0,1
EndSplineSet
Validated: 1
EndChar

StartChar: six
Encoding: 54 54 24
Width: 1391
Flags: W
HStem: -35 92<403.343 744.601> 713 79<461.64 732.084> 1158 112<889.85 1263.11>
VStem: 148 127<182.642 578.538> 906 180<225.155 557.026>
LayerCount: 2
Fore
SplineSet
1233 1257 m 0,0,1
 1256 1253 1256 1253 1266 1239.5 c 128,-1,2
 1276 1226 1276 1226 1276 1210 c 0,3,4
 1276 1190 1276 1190 1263.5 1174 c 128,-1,5
 1251 1158 1251 1158 1230 1158 c 0,6,7
 1215 1158 1215 1158 1208 1159 c 128,-1,8
 1201 1160 1201 1160 1196 1161.5 c 128,-1,9
 1191 1163 1191 1163 1185 1164 c 128,-1,10
 1179 1165 1179 1165 1166 1165 c 0,11,12
 1035 1165 1035 1165 924 1126 c 128,-1,13
 813 1087 813 1087 724 1028.5 c 128,-1,14
 635 970 635 970 569 902.5 c 128,-1,15
 503 835 503 835 461 778 c 1,16,17
 495 785 495 785 526.5 788.5 c 128,-1,18
 558 792 558 792 588 792 c 0,19,20
 687 792 687 792 777.5 761 c 128,-1,21
 868 730 868 730 936.5 677 c 128,-1,22
 1005 624 1005 624 1045.5 552.5 c 128,-1,23
 1086 481 1086 481 1086 400 c 0,24,25
 1086 296 1086 296 1036 215 c 128,-1,26
 986 134 986 134 904.5 78.5 c 128,-1,27
 823 23 823 23 719.5 -6 c 128,-1,28
 616 -35 616 -35 508 -35 c 0,29,30
 440 -35 440 -35 375 -8 c 128,-1,31
 310 19 310 19 259.5 73.5 c 128,-1,32
 209 128 209 128 178.5 209.5 c 128,-1,33
 148 291 148 291 148 399 c 0,34,35
 148 493 148 493 179.5 594 c 128,-1,36
 211 695 211 695 269 792 c 128,-1,37
 327 889 327 889 408.5 975.5 c 128,-1,38
 490 1062 490 1062 590.5 1127.5 c 128,-1,39
 691 1193 691 1193 807.5 1231.5 c 128,-1,40
 924 1270 924 1270 1052 1270 c 0,41,42
 1097 1270 1097 1270 1141 1267 c 128,-1,43
 1185 1264 1185 1264 1233 1257 c 0,0,1
403 689 m 1,44,45
 360 646 360 646 335 605.5 c 128,-1,46
 310 565 310 565 296.5 523.5 c 128,-1,47
 283 482 283 482 279 438 c 128,-1,48
 275 394 275 394 275 345 c 0,49,50
 275 272 275 272 300 218 c 128,-1,51
 325 164 325 164 367 128 c 128,-1,52
 409 92 409 92 463 74.5 c 128,-1,53
 517 57 517 57 575 57 c 0,54,55
 635 57 635 57 694.5 78.5 c 128,-1,56
 754 100 754 100 801 142.5 c 128,-1,57
 848 185 848 185 877 248 c 128,-1,58
 906 311 906 311 906 395 c 0,59,60
 906 467 906 467 878.5 525.5 c 128,-1,61
 851 584 851 584 803.5 626 c 128,-1,62
 756 668 756 668 692.5 690.5 c 128,-1,63
 629 713 629 713 557 713 c 0,64,65
 481 713 481 713 403 689 c 1,44,45
EndSplineSet
Validated: 1
EndChar

StartChar: seven
Encoding: 55 55 25
Width: 1288
Flags: W
HStem: 1078 287<273.719 474.5> 1078 81<377 506.907> 1152 69<600.278 1069.4>
VStem: 229 148<1159.59 1321.47>
LayerCount: 2
Fore
SplineSet
222 -36 m 1,0,1
 267 51 267 51 321 141 c 128,-1,2
 375 231 375 231 441 328 c 0,3,4
 496 409 496 409 565 501.5 c 128,-1,5
 634 594 634 594 718 693 c 128,-1,6
 802 792 802 792 900.5 895 c 128,-1,7
 999 998 999 998 1113 1100 c 1,8,9
 1087 1113 1087 1113 1053 1123 c 128,-1,10
 1019 1133 1019 1133 980 1139.5 c 128,-1,11
 941 1146 941 1146 899.5 1149 c 128,-1,12
 858 1152 858 1152 816 1152 c 0,13,14
 758 1152 758 1152 701.5 1140.5 c 128,-1,15
 645 1129 645 1129 588.5 1115 c 128,-1,16
 532 1101 532 1101 474.5 1089.5 c 128,-1,17
 417 1078 417 1078 358 1078 c 0,18,19
 343 1078 343 1078 321 1081 c 128,-1,20
 299 1084 299 1084 278.5 1094.5 c 128,-1,21
 258 1105 258 1105 243.5 1125 c 128,-1,22
 229 1145 229 1145 229 1180 c 0,23,24
 229 1209 229 1209 242.5 1250.5 c 128,-1,25
 256 1292 256 1292 289 1349 c 0,26,27
 294 1358 294 1358 310.5 1361.5 c 128,-1,28
 327 1365 327 1365 344 1365 c 0,29,30
 358 1365 358 1365 367.5 1363.5 c 128,-1,31
 377 1362 377 1362 377 1360 c 2,32,-1
 377 1159 l 1,33,34
 406 1159 406 1159 456.5 1168.5 c 128,-1,35
 507 1178 507 1178 565.5 1190 c 128,-1,36
 624 1202 624 1202 683 1211.5 c 128,-1,37
 742 1221 742 1221 787 1221 c 0,38,39
 869 1221 869 1221 964.5 1207 c 128,-1,40
 1060 1193 1060 1193 1157 1167 c 1,41,42
 1178 1186 1178 1186 1200.5 1205.5 c 128,-1,43
 1223 1225 1223 1225 1244.5 1243.5 c 128,-1,44
 1266 1262 1266 1262 1286 1278.5 c 128,-1,45
 1306 1295 1306 1295 1322 1308 c 1,46,-1
 1395 1282 l 1,47,48
 1377 1272 1377 1272 1339.5 1232 c 128,-1,49
 1302 1192 1302 1192 1251 1131 c 128,-1,50
 1200 1070 1200 1070 1138.5 991 c 128,-1,51
 1077 912 1077 912 1011 824.5 c 128,-1,52
 945 737 945 737 877 644 c 128,-1,53
 809 551 809 551 745.5 461.5 c 128,-1,54
 682 372 682 372 625 290 c 128,-1,55
 568 208 568 208 524.5 142 c 128,-1,56
 481 76 481 76 453 29 c 128,-1,57
 425 -18 425 -18 419 -36 c 1,58,-1
 222 -36 l 1,0,1
EndSplineSet
Validated: 1
EndChar

StartChar: eight
Encoding: 56 56 26
Width: 1224
Flags: W
HStem: -47 89<509.634 865.674> 1187 63<698.029 1061.33>
VStem: 102 233<204.882 467.453> 442 94<833.026 1075.09> 917 101<87.0866 334.666> 1172 199<891.401 1115.33>
LayerCount: 2
Fore
SplineSet
103 299 m 0,0,1
 102 304 102 304 102 308.5 c 128,-1,2
 102 313 102 313 102 318 c 0,3,4
 102 368 102 368 121.5 416 c 128,-1,5
 141 464 141 464 172.5 508.5 c 128,-1,6
 204 553 204 553 245 593.5 c 128,-1,7
 286 634 286 634 328 670 c 128,-1,8
 370 706 370 706 410 737 c 128,-1,9
 450 768 450 768 481 793 c 0,10,11
 481 794 481 794 475 806.5 c 128,-1,12
 469 819 469 819 461.5 841 c 128,-1,13
 454 863 454 863 448 894 c 128,-1,14
 442 925 442 925 442 964 c 0,15,16
 442 1038 442 1038 485 1092 c 128,-1,17
 528 1146 528 1146 597 1181 c 128,-1,18
 666 1216 666 1216 753.5 1233 c 128,-1,19
 841 1250 841 1250 931 1250 c 0,20,21
 1017 1250 1017 1250 1096.5 1235.5 c 128,-1,22
 1176 1221 1176 1221 1237 1193 c 128,-1,23
 1298 1165 1298 1165 1334.5 1123.5 c 128,-1,24
 1371 1082 1371 1082 1371 1029 c 0,25,26
 1371 968 1371 968 1336.5 898.5 c 128,-1,27
 1302 829 1302 829 1241 758.5 c 128,-1,28
 1180 688 1180 688 1098 621 c 128,-1,29
 1016 554 1016 554 920 498 c 1,30,31
 960 451 960 451 989 385.5 c 128,-1,32
 1018 320 1018 320 1018 228 c 0,33,34
 1018 156 1018 156 987 104.5 c 128,-1,35
 956 53 956 53 904.5 19 c 128,-1,36
 853 -15 853 -15 785 -31 c 128,-1,37
 717 -47 717 -47 643 -47 c 0,38,39
 551 -47 551 -47 457.5 -23.5 c 128,-1,40
 364 0 364 0 287 44.5 c 128,-1,41
 210 89 210 89 159.5 153.5 c 128,-1,42
 109 218 109 218 103 299 c 0,0,1
336 337 m 0,43,44
 342 265 342 265 376 210 c 128,-1,45
 410 155 410 155 460 117.5 c 128,-1,46
 510 80 510 80 571 61 c 128,-1,47
 632 42 632 42 692 42 c 0,48,49
 753 42 753 42 796 52.5 c 128,-1,50
 839 63 839 63 866 82 c 128,-1,51
 893 101 893 101 905 127 c 128,-1,52
 917 153 917 153 917 185 c 0,53,54
 917 228 917 228 897.5 278.5 c 128,-1,55
 878 329 878 329 846 381.5 c 128,-1,56
 814 434 814 434 772.5 485.5 c 128,-1,57
 731 537 731 537 687.5 583 c 128,-1,58
 644 629 644 629 600.5 666.5 c 128,-1,59
 557 704 557 704 522 727 c 1,60,61
 486 698 486 698 452.5 656.5 c 128,-1,62
 419 615 419 615 393 566.5 c 128,-1,63
 367 518 367 518 351 465 c 128,-1,64
 335 412 335 412 335 361 c 0,65,66
 335 354 335 354 335 348 c 128,-1,67
 335 342 335 342 336 337 c 0,43,44
536 951 m 1,68,69
 537 904 537 904 564.5 858 c 128,-1,70
 592 812 592 812 634.5 766.5 c 128,-1,71
 677 721 677 721 730 675.5 c 128,-1,72
 783 630 783 630 834 584 c 1,73,74
 860 607 860 607 895 637.5 c 128,-1,75
 930 668 930 668 967.5 704 c 128,-1,76
 1005 740 1005 740 1041.5 779.5 c 128,-1,77
 1078 819 1078 819 1107 860 c 128,-1,78
 1136 901 1136 901 1154 942.5 c 128,-1,79
 1172 984 1172 984 1172 1024 c 0,80,81
 1172 1063 1172 1063 1148 1093.5 c 128,-1,82
 1124 1124 1124 1124 1084.5 1145 c 128,-1,83
 1045 1166 1045 1166 992.5 1176.5 c 128,-1,84
 940 1187 940 1187 883 1187 c 0,85,86
 817 1187 817 1187 755 1173 c 128,-1,87
 693 1159 693 1159 644 1129.5 c 128,-1,88
 595 1100 595 1100 565.5 1055.5 c 128,-1,89
 536 1011 536 1011 536 951 c 1,68,69
EndSplineSet
Validated: 1
EndChar

StartChar: nine
Encoding: 57 57 27
Width: 1224
Flags: W
HStem: -71 74<361.5 478.392> 588 103<396.47 888.666> 1251 78<522.612 820.682>
VStem: 130 159<779.971 1045.68> 953 184<641.407 1044.58>
LayerCount: 2
Fore
SplineSet
937 720 m 1,0,1
 945 758 945 758 949 798.5 c 128,-1,2
 953 839 953 839 953 881 c 0,3,4
 953 981 953 981 931 1051.5 c 128,-1,5
 909 1122 909 1122 872 1166.5 c 128,-1,6
 835 1211 835 1211 786.5 1231 c 128,-1,7
 738 1251 738 1251 684 1251 c 0,8,9
 615 1251 615 1251 545 1222.5 c 128,-1,10
 475 1194 475 1194 418 1145 c 128,-1,11
 361 1096 361 1096 325 1031 c 128,-1,12
 289 966 289 966 289 893 c 0,13,14
 289 833 289 833 320.5 794 c 128,-1,15
 352 755 352 755 403.5 732 c 128,-1,16
 455 709 455 709 520.5 700 c 128,-1,17
 586 691 586 691 653 691 c 0,18,19
 738 691 738 691 812.5 700 c 128,-1,20
 887 709 887 709 937 720 c 1,0,1
455 -68 m 0,21,22
 441 -71 441 -71 428 -71 c 0,23,24
 402 -71 402 -71 381.5 -61.5 c 128,-1,25
 361 -52 361 -52 361 -37 c 0,26,27
 361 -30 361 -30 371 -19 c 128,-1,28
 381 -8 381 -8 405 3 c 0,29,30
 496 44 496 44 569.5 98 c 128,-1,31
 643 152 643 152 700 212.5 c 128,-1,32
 757 273 757 273 798.5 335.5 c 128,-1,33
 840 398 840 398 867.5 456 c 128,-1,34
 895 514 895 514 909 563.5 c 128,-1,35
 923 613 923 613 925 648 c 1,36,37
 858 617 858 617 782 602.5 c 128,-1,38
 706 588 706 588 628 588 c 0,39,40
 533 588 533 588 443.5 610 c 128,-1,41
 354 632 354 632 284.5 675 c 128,-1,42
 215 718 215 718 172.5 782 c 128,-1,43
 130 846 130 846 130 930 c 0,44,45
 130 1018 130 1018 175.5 1091 c 128,-1,46
 221 1164 221 1164 294.5 1217 c 128,-1,47
 368 1270 368 1270 462 1299.5 c 128,-1,48
 556 1329 556 1329 652 1329 c 0,49,50
 744 1329 744 1329 831 1299 c 128,-1,51
 918 1269 918 1269 986 1204.5 c 128,-1,52
 1054 1140 1054 1140 1095.5 1038 c 128,-1,53
 1137 936 1137 936 1137 792 c 0,54,55
 1137 713 1137 713 1121.5 626.5 c 128,-1,56
 1106 540 1106 540 1072 453.5 c 128,-1,57
 1038 367 1038 367 984.5 285.5 c 128,-1,58
 931 204 931 204 855.5 135 c 128,-1,59
 780 66 780 66 680.5 13.5 c 128,-1,60
 581 -39 581 -39 455 -68 c 0,21,22
EndSplineSet
Validated: 1
EndChar

StartChar: colon
Encoding: 58 58 28
Width: 570
Flags: W
HStem: 67 342<172.822 377.231> 731 328<190.355 405.004>
VStem: 108 327<125.854 341.266> 132 342<797.727 1000.83>
LayerCount: 2
Fore
SplineSet
474 911 m 0,0,1
 474 869 474 869 456 835.5 c 128,-1,2
 438 802 438 802 409.5 779 c 128,-1,3
 381 756 381 756 345.5 743.5 c 128,-1,4
 310 731 310 731 276 731 c 0,5,6
 247 731 247 731 221 739.5 c 128,-1,7
 195 748 195 748 175.5 765.5 c 128,-1,8
 156 783 156 783 144 810.5 c 128,-1,9
 132 838 132 838 132 876 c 256,10,11
 132 914 132 914 144.5 947.5 c 128,-1,12
 157 981 157 981 181 1005.5 c 128,-1,13
 205 1030 205 1030 239 1044.5 c 128,-1,14
 273 1059 273 1059 315 1059 c 0,15,16
 359 1059 359 1059 389.5 1045.5 c 128,-1,17
 420 1032 420 1032 438.5 1011 c 128,-1,18
 457 990 457 990 465.5 963.5 c 128,-1,19
 474 937 474 937 474 911 c 0,0,1
254 67 m 0,20,21
 215 67 215 67 187.5 78.5 c 128,-1,22
 160 90 160 90 142.5 109.5 c 128,-1,23
 125 129 125 129 116.5 154.5 c 128,-1,24
 108 180 108 180 108 208 c 0,25,26
 108 243 108 243 120 279 c 128,-1,27
 132 315 132 315 154.5 344 c 128,-1,28
 177 373 177 373 207.5 391 c 128,-1,29
 238 409 238 409 276 409 c 0,30,31
 320 409 320 409 350.5 398 c 128,-1,32
 381 387 381 387 399.5 368 c 128,-1,33
 418 349 418 349 426.5 325 c 128,-1,34
 435 301 435 301 435 275 c 0,35,36
 435 232 435 232 424.5 194.5 c 128,-1,37
 414 157 414 157 392.5 128.5 c 128,-1,38
 371 100 371 100 336.5 83.5 c 128,-1,39
 302 67 302 67 254 67 c 0,20,21
EndSplineSet
Validated: 1
EndChar

StartChar: semicolon
Encoding: 59 59 29
Width: 523
Flags: W
HStem: -146 42<87 166.003> 67 342<149.822 327.5> 731 328<167.355 382.004>
VStem: 87 325<98.0938 343.994> 109 342<797.727 1000.83>
LayerCount: 2
Fore
SplineSet
87 -104 m 1,0,1
 123 -104 123 -104 152 -90.5 c 128,-1,2
 181 -77 181 -77 203.5 -53 c 128,-1,3
 226 -29 226 -29 243 2.5 c 128,-1,4
 260 34 260 34 272 70 c 1,5,6
 252 67 252 67 231 67 c 0,7,8
 192 67 192 67 164.5 78.5 c 128,-1,9
 137 90 137 90 119.5 109.5 c 128,-1,10
 102 129 102 129 93.5 154.5 c 128,-1,11
 85 180 85 180 85 208 c 0,12,13
 85 243 85 243 97 279 c 128,-1,14
 109 315 109 315 131.5 344 c 128,-1,15
 154 373 154 373 184.5 391 c 128,-1,16
 215 409 215 409 253 409 c 0,17,18
 297 409 297 409 327.5 398 c 128,-1,19
 358 387 358 387 376.5 368 c 128,-1,20
 395 349 395 349 403.5 325 c 128,-1,21
 412 301 412 301 412 275 c 0,22,23
 412 235 412 235 405.5 188.5 c 128,-1,24
 399 142 399 142 384.5 95 c 128,-1,25
 370 48 370 48 345.5 4.5 c 128,-1,26
 321 -39 321 -39 284.5 -72.5 c 128,-1,27
 248 -106 248 -106 199.5 -126 c 128,-1,28
 151 -146 151 -146 87 -146 c 1,29,-1
 87 -104 l 1,0,1
451 911 m 0,30,31
 451 869 451 869 433 835.5 c 128,-1,32
 415 802 415 802 386.5 779 c 128,-1,33
 358 756 358 756 322.5 743.5 c 128,-1,34
 287 731 287 731 253 731 c 0,35,36
 224 731 224 731 198 739.5 c 128,-1,37
 172 748 172 748 152.5 765.5 c 128,-1,38
 133 783 133 783 121 810.5 c 128,-1,39
 109 838 109 838 109 876 c 256,40,41
 109 914 109 914 121.5 947.5 c 128,-1,42
 134 981 134 981 158 1005.5 c 128,-1,43
 182 1030 182 1030 216 1044.5 c 128,-1,44
 250 1059 250 1059 292 1059 c 0,45,46
 336 1059 336 1059 366.5 1045.5 c 128,-1,47
 397 1032 397 1032 415.5 1011 c 128,-1,48
 434 990 434 990 442.5 963.5 c 128,-1,49
 451 937 451 937 451 911 c 0,30,31
EndSplineSet
Validated: 1
EndChar

StartChar: less
Encoding: 60 60 30
Width: 671
Flags: W
HStem: 807 20G<510.5 530.5>
VStem: 33 548
LayerCount: 2
Fore
SplineSet
74 558 m 0,0,1
 164 625 164 625 234.5 675.5 c 128,-1,2
 305 726 305 726 359.5 759.5 c 128,-1,3
 414 793 414 793 454.5 810 c 128,-1,4
 495 827 495 827 526 827 c 0,5,6
 535 827 535 827 544.5 824.5 c 128,-1,7
 554 822 554 822 562 817 c 128,-1,8
 570 812 570 812 575.5 805 c 128,-1,9
 581 798 581 798 581 788 c 0,10,11
 581 772 581 772 551 746.5 c 128,-1,12
 521 721 521 721 472 687 c 128,-1,13
 423 653 423 653 360 610.5 c 128,-1,14
 297 568 297 568 232 519 c 2,15,-1
 195 491 l 1,16,17
 225 450 225 450 263 408 c 128,-1,18
 301 366 301 366 335.5 330 c 128,-1,19
 370 294 370 294 396 267.5 c 128,-1,20
 422 241 422 241 428 231 c 1,21,22
 469 175 469 175 469 147 c 0,23,24
 469 133 469 133 461.5 123.5 c 128,-1,25
 454 114 454 114 444.5 108.5 c 128,-1,26
 435 103 435 103 426 100.5 c 128,-1,27
 417 98 417 98 414 98 c 0,28,29
 388 98 388 98 343.5 133 c 128,-1,30
 299 168 299 168 247 221 c 128,-1,31
 195 274 195 274 142.5 335.5 c 128,-1,32
 90 397 90 397 49 450 c 0,33,34
 40 461 40 461 36.5 471.5 c 128,-1,35
 33 482 33 482 33 491 c 0,36,37
 33 503 33 503 37.5 513.5 c 128,-1,38
 42 524 42 524 48.5 533 c 128,-1,39
 55 542 55 542 62 548.5 c 128,-1,40
 69 555 69 555 74 558 c 0,0,1
EndSplineSet
Validated: 1
EndChar

StartChar: equal
Encoding: 61 61 31
Width: 1133
Flags: W
HStem: 415 126<153.505 1003.12> 431.5 82<153.505 459.81> 824 142<187.964 964.087> 829.5 127.5<153.505 750.5>
LayerCount: 2
Fore
SplineSet
153 860 m 0,0,1
 140 870 140 870 140 885 c 0,2,3
 140 932 140 932 186.5 951 c 128,-1,4
 233 970 233 970 322 970 c 0,5,6
 382 970 382 970 450.5 966 c 128,-1,7
 519 962 519 962 585 962 c 0,8,9
 685 962 685 962 750.5 957 c 128,-1,10
 816 952 816 952 856 945 c 128,-1,11
 896 938 896 938 915 932.5 c 128,-1,12
 934 927 934 927 941 926 c 0,13,14
 954 925 954 925 967 920 c 128,-1,15
 980 915 980 915 990.5 907 c 128,-1,16
 1001 899 1001 899 1007.5 889.5 c 128,-1,17
 1014 880 1014 880 1014 871 c 0,18,19
 1014 852 1014 852 986.5 841 c 128,-1,20
 959 830 959 830 911 824 c 128,-1,21
 863 818 863 818 799 816.5 c 128,-1,22
 735 815 735 815 662 815 c 0,23,24
 622 815 622 815 590 818.5 c 128,-1,25
 558 822 558 822 544 825 c 1,26,27
 536 825 536 825 514.5 824.5 c 128,-1,28
 493 824 493 824 461 824 c 0,29,30
 423 824 423 824 376 825 c 128,-1,31
 329 826 329 826 284.5 829.5 c 128,-1,32
 240 833 240 833 204.5 840.5 c 128,-1,33
 169 848 169 848 153 860 c 0,0,1
153 451 m 0,34,35
 139 462 139 462 139 480 c 0,36,37
 139 501 139 501 170.5 513.5 c 128,-1,38
 202 526 202 526 253 532 c 128,-1,39
 304 538 304 538 368 539.5 c 128,-1,40
 432 541 432 541 497 541 c 0,41,42
 624 541 624 541 706.5 539 c 128,-1,43
 789 537 789 537 838.5 535 c 128,-1,44
 888 533 888 533 910.5 531 c 128,-1,45
 933 529 933 529 941 529 c 1,46,47
 954 527 954 527 967 521.5 c 128,-1,48
 980 516 980 516 990.5 508 c 128,-1,49
 1001 500 1001 500 1007.5 490.5 c 128,-1,50
 1014 481 1014 481 1014 472 c 0,51,52
 1014 451 1014 451 970.5 439 c 128,-1,53
 927 427 927 427 854.5 421 c 128,-1,54
 782 415 782 415 688.5 413 c 128,-1,55
 595 411 595 411 495 411 c 1,56,57
 508 411 508 411 519 412 c 0,58,59
 528 413 528 413 536 413.5 c 128,-1,60
 544 414 544 414 544 416 c 1,61,62
 536 416 536 416 514.5 415.5 c 128,-1,63
 493 415 493 415 461 415 c 0,64,65
 423 415 423 415 376 416 c 128,-1,66
 329 417 329 417 284.5 420.5 c 128,-1,67
 240 424 240 424 204.5 431.5 c 128,-1,68
 169 439 169 439 153 451 c 0,34,35
EndSplineSet
Validated: 1
EndChar

StartChar: greater
Encoding: 62 62 32
Width: 662
Flags: W
HStem: 834 20G<274.5 284>
VStem: 78 550
LayerCount: 2
Fore
SplineSet
587 384 m 0,0,1
 493 313 493 313 423 260.5 c 128,-1,2
 353 208 353 208 300.5 173 c 128,-1,3
 248 138 248 138 209.5 121 c 128,-1,4
 171 104 171 104 141 104 c 0,5,6
 135 104 135 104 124.5 106 c 128,-1,7
 114 108 114 108 103.5 112.5 c 128,-1,8
 93 117 93 117 85.5 123 c 128,-1,9
 78 129 78 129 78 137 c 0,10,11
 78 152 78 152 110.5 180.5 c 128,-1,12
 143 209 143 209 194.5 247 c 128,-1,13
 246 285 246 285 310.5 330 c 128,-1,14
 375 375 375 375 439 423 c 2,15,-1
 476 451 l 1,16,17
 446 491 446 491 411 534.5 c 128,-1,18
 376 578 376 578 345.5 616.5 c 128,-1,19
 315 655 315 655 292 683 c 128,-1,20
 269 711 269 711 263 721 c 1,21,22
 222 777 222 777 222 805 c 0,23,24
 222 819 222 819 229.5 828.5 c 128,-1,25
 237 838 237 838 246 843.5 c 128,-1,26
 255 849 255 849 264 851.5 c 128,-1,27
 273 854 273 854 276 854 c 0,28,29
 292 854 292 854 315.5 837 c 128,-1,30
 339 820 339 820 367 791.5 c 128,-1,31
 395 763 395 763 426 726 c 128,-1,32
 457 689 457 689 489 648.5 c 128,-1,33
 521 608 521 608 552.5 567.5 c 128,-1,34
 584 527 584 527 612 492 c 0,35,36
 620 481 620 481 623.5 470.5 c 128,-1,37
 627 460 627 460 628 451 c 1,38,39
 628 426 628 426 612.5 408.5 c 128,-1,40
 597 391 597 391 587 384 c 0,0,1
EndSplineSet
Validated: 1
EndChar

StartChar: question
Encoding: 63 63 33
Width: 1497
Flags: W
HStem: -432 386<355.067 520.119> 1547 82<675.378 1110.63>
VStem: 88 194<942.883 1233.36> 263 383<-316.055 -147.57> 1232 222<1004.9 1429.25>
LayerCount: 2
Fore
SplineSet
523 73 m 0,0,1
 487 73 487 73 487 86 c 0,2,3
 487 100 487 100 519 129 c 128,-1,4
 551 158 551 158 603.5 202 c 128,-1,5
 656 246 656 246 723 306 c 128,-1,6
 790 366 790 366 859.5 442 c 128,-1,7
 929 518 929 518 996 611 c 128,-1,8
 1063 704 1063 704 1115.5 814 c 128,-1,9
 1168 924 1168 924 1200 1051.5 c 128,-1,10
 1232 1179 1232 1179 1232 1325 c 0,11,12
 1232 1370 1232 1370 1213.5 1410.5 c 128,-1,13
 1195 1451 1195 1451 1154.5 1481 c 128,-1,14
 1114 1511 1114 1511 1048.5 1529 c 128,-1,15
 983 1547 983 1547 890 1547 c 0,16,17
 775 1547 775 1547 666 1518.5 c 128,-1,18
 557 1490 557 1490 471.5 1433 c 128,-1,19
 386 1376 386 1376 334 1291 c 128,-1,20
 282 1206 282 1206 282 1094 c 0,21,22
 282 1027 282 1027 304.5 980.5 c 128,-1,23
 327 934 327 934 361 904 c 128,-1,24
 395 874 395 874 434.5 856.5 c 128,-1,25
 474 839 474 839 508 830 c 128,-1,26
 542 821 542 821 564.5 817 c 128,-1,27
 587 813 587 813 587 809 c 0,28,29
 587 807 587 807 592 795.5 c 128,-1,30
 597 784 597 784 597 772 c 0,31,32
 597 761 597 761 589 752 c 128,-1,33
 581 743 581 743 557 743 c 0,34,35
 435 743 435 743 346.5 770 c 128,-1,36
 258 797 258 797 200.5 842 c 128,-1,37
 143 887 143 887 115.5 946.5 c 128,-1,38
 88 1006 88 1006 88 1071 c 0,39,40
 88 1149 88 1149 125.5 1221 c 128,-1,41
 163 1293 163 1293 227.5 1355 c 128,-1,42
 292 1417 292 1417 378.5 1467.5 c 128,-1,43
 465 1518 465 1518 564 1554 c 128,-1,44
 663 1590 663 1590 769.5 1609.5 c 128,-1,45
 876 1629 876 1629 979 1629 c 0,46,47
 1076 1629 1076 1629 1162.5 1607.5 c 128,-1,48
 1249 1586 1249 1586 1313.5 1538.5 c 128,-1,49
 1378 1491 1378 1491 1416 1417 c 128,-1,50
 1454 1343 1454 1343 1454 1238 c 0,51,52
 1454 1121 1454 1121 1418 1009 c 128,-1,53
 1382 897 1382 897 1323 793.5 c 128,-1,54
 1264 690 1264 690 1187 596 c 128,-1,55
 1110 502 1110 502 1027.5 422 c 128,-1,56
 945 342 945 342 863 277.5 c 128,-1,57
 781 213 781 213 712 167.5 c 128,-1,58
 643 122 643 122 592.5 97.5 c 128,-1,59
 542 73 542 73 523 73 c 0,0,1
372 -432 m 0,60,61
 343 -432 343 -432 322.5 -421 c 128,-1,62
 302 -410 302 -410 288.5 -392 c 128,-1,63
 275 -374 275 -374 269 -350 c 128,-1,64
 263 -326 263 -326 263 -300 c 0,65,66
 263 -258 263 -258 277.5 -213 c 128,-1,67
 292 -168 292 -168 318.5 -131 c 128,-1,68
 345 -94 345 -94 383 -70 c 128,-1,69
 421 -46 421 -46 468 -46 c 0,70,71
 517 -46 517 -46 551 -58.5 c 128,-1,72
 585 -71 585 -71 606 -92 c 128,-1,73
 627 -113 627 -113 636.5 -140 c 128,-1,74
 646 -167 646 -167 646 -196 c 0,75,76
 646 -244 646 -244 621 -287 c 128,-1,77
 596 -330 596 -330 556.5 -362 c 128,-1,78
 517 -394 517 -394 468 -413 c 128,-1,79
 419 -432 419 -432 372 -432 c 0,60,61
EndSplineSet
Validated: 1
EndChar

StartChar: at
Encoding: 64 64 34
Width: 2639
Flags: W
HStem: -563 73<668.55 1165.2> -49 54<1461 1680.41> -20 65<971.152 1120.5> 692 101<1353.5 1507 1665.96 1783.94> 692 77<1668.32 1773.16> 1309 75<1285.33 1828.33>
VStem: 135 96<-66.4438 492.081> 799 145<70.6045 382.495> 1368 127<5.44482 206.123> 2447 82<358.375 709.308>
LayerCount: 2
Fore
SplineSet
2529 422 m 0,0,1
 2529 370 2529 370 2498.5 322.5 c 128,-1,2
 2468 275 2468 275 2415 232.5 c 128,-1,3
 2362 190 2362 190 2290 152.5 c 128,-1,4
 2218 115 2218 115 2136 83.5 c 128,-1,5
 2054 52 2054 52 1966 27.5 c 128,-1,6
 1878 3 1878 3 1791.5 -14 c 128,-1,7
 1705 -31 1705 -31 1624 -40 c 128,-1,8
 1543 -49 1543 -49 1476 -49 c 0,9,10
 1446 -49 1446 -49 1425.5 -33 c 128,-1,11
 1405 -17 1405 -17 1392.5 10.5 c 128,-1,12
 1380 38 1380 38 1374 76 c 128,-1,13
 1368 114 1368 114 1368 158 c 0,14,15
 1368 190 1368 190 1370 226 c 128,-1,16
 1372 262 1372 262 1378 299 c 1,17,18
 1357 218 1357 218 1316.5 158.5 c 128,-1,19
 1276 99 1276 99 1226 59 c 128,-1,20
 1176 19 1176 19 1120.5 -0.5 c 128,-1,21
 1065 -20 1065 -20 1014 -20 c 0,22,23
 970 -20 970 -20 931 -6.5 c 128,-1,24
 892 7 892 7 862.5 34.5 c 128,-1,25
 833 62 833 62 816 103 c 128,-1,26
 799 144 799 144 799 199 c 0,27,28
 799 223 799 223 802.5 250.5 c 128,-1,29
 806 278 806 278 815 309 c 1,30,31
 831 374 831 374 876.5 435.5 c 128,-1,32
 922 497 922 497 986.5 551 c 128,-1,33
 1051 605 1051 605 1129 649.5 c 128,-1,34
 1207 694 1207 694 1290 726 c 128,-1,35
 1373 758 1373 758 1455 775.5 c 128,-1,36
 1537 793 1537 793 1608 793 c 0,37,38
 1686 793 1686 793 1745.5 769 c 128,-1,39
 1805 745 1805 745 1831 692 c 1,40,-1
 1677 692 l 1,41,42
 1659 617 1659 617 1637 543 c 128,-1,43
 1615 469 1615 469 1591 388.5 c 128,-1,44
 1567 308 1567 308 1542.5 217.5 c 128,-1,45
 1518 127 1518 127 1495 20 c 1,46,-1
 1495 17 l 2,47,48
 1495 5 1495 5 1527 5 c 0,49,50
 1558 5 1558 5 1614.5 16.5 c 128,-1,51
 1671 28 1671 28 1741.5 48 c 128,-1,52
 1812 68 1812 68 1892 95 c 128,-1,53
 1972 122 1972 122 2050 154.5 c 128,-1,54
 2128 187 2128 187 2200 222.5 c 128,-1,55
 2272 258 2272 258 2327 294.5 c 128,-1,56
 2382 331 2382 331 2414.5 367 c 128,-1,57
 2447 403 2447 403 2447 436 c 0,58,59
 2447 547 2447 547 2421.5 654.5 c 128,-1,60
 2396 762 2396 762 2346.5 859 c 128,-1,61
 2297 956 2297 956 2225 1038.5 c 128,-1,62
 2153 1121 2153 1121 2060 1181 c 128,-1,63
 1967 1241 1967 1241 1854 1275 c 128,-1,64
 1741 1309 1741 1309 1610 1309 c 0,65,66
 1465 1309 1465 1309 1306.5 1276.5 c 128,-1,67
 1148 1244 1148 1244 994.5 1180.5 c 128,-1,68
 841 1117 841 1117 703 1023.5 c 128,-1,69
 565 930 565 930 460 808.5 c 128,-1,70
 355 687 355 687 293 538 c 128,-1,71
 231 389 231 389 231 215 c 0,72,73
 231 79 231 79 252.5 -25.5 c 128,-1,74
 274 -130 274 -130 313.5 -208.5 c 128,-1,75
 353 -287 353 -287 408.5 -340.5 c 128,-1,76
 464 -394 464 -394 532.5 -427.5 c 128,-1,77
 601 -461 601 -461 680.5 -475.5 c 128,-1,78
 760 -490 760 -490 847 -490 c 0,79,80
 976 -490 976 -490 1116 -463.5 c 128,-1,81
 1256 -437 1256 -437 1396.5 -396.5 c 128,-1,82
 1537 -356 1537 -356 1672.5 -309 c 128,-1,83
 1808 -262 1808 -262 1926.5 -220 c 128,-1,84
 2045 -178 2045 -178 2141 -148 c 128,-1,85
 2237 -118 2237 -118 2300 -113 c 1,86,-1
 2330 -145 l 1,87,88
 2279 -183 2279 -183 2196 -228.5 c 128,-1,89
 2113 -274 2113 -274 2007 -320.5 c 128,-1,90
 1901 -367 1901 -367 1776.5 -410.5 c 128,-1,91
 1652 -454 1652 -454 1518.5 -488 c 128,-1,92
 1385 -522 1385 -522 1247.5 -542.5 c 128,-1,93
 1110 -563 1110 -563 977 -563 c 0,94,95
 863 -563 863 -563 756.5 -545.5 c 128,-1,96
 650 -528 650 -528 556.5 -489 c 128,-1,97
 463 -450 463 -450 385.5 -387 c 128,-1,98
 308 -324 308 -324 252.5 -232 c 128,-1,99
 197 -140 197 -140 166 -17.5 c 128,-1,100
 135 105 135 105 135 262 c 0,101,102
 135 464 135 464 191 626 c 128,-1,103
 247 788 247 788 344.5 912.5 c 128,-1,104
 442 1037 442 1037 574 1126.5 c 128,-1,105
 706 1216 706 1216 858 1273 c 128,-1,106
 1010 1330 1010 1330 1175.5 1357 c 128,-1,107
 1341 1384 1341 1384 1505 1384 c 0,108,109
 1749 1384 1749 1384 1938.5 1313 c 128,-1,110
 2128 1242 2128 1242 2258 1114.5 c 128,-1,111
 2388 987 2388 987 2457 810 c 128,-1,112
 2526 633 2526 633 2529 422 c 0,0,1
1507 694 m 1,113,114
 1466 694 1466 694 1408.5 688 c 128,-1,115
 1351 682 1351 682 1288.5 664.5 c 128,-1,116
 1226 647 1226 647 1164 613.5 c 128,-1,117
 1102 580 1102 580 1053.5 525.5 c 128,-1,118
 1005 471 1005 471 974.5 392 c 128,-1,119
 944 313 944 313 944 203 c 0,120,121
 944 117 944 117 968 81 c 128,-1,122
 992 45 992 45 1030 45 c 0,123,124
 1060 45 1060 45 1096.5 63.5 c 128,-1,125
 1133 82 1133 82 1170 112 c 128,-1,126
 1207 142 1207 142 1243 180.5 c 128,-1,127
 1279 219 1279 219 1309 258.5 c 128,-1,128
 1339 298 1339 298 1360.5 336 c 128,-1,129
 1382 374 1382 374 1390 403 c 1,130,-1
 1507 694 l 1,113,114
EndSplineSet
Validated: 1
EndChar

StartChar: A
Encoding: 65 65 35
Width: 2917
Flags: W
HStem: -99 103<2093.5 2285.48> -15 75<-35.4209 443.606> 938 72<1994.62 2320> 1599 74<2393.08 2552.86> 1644 142<-391.28 563.821> 1913 59<1988 2767.38> 1934 20G<-797.5 -791.5>
VStem: 1971 139<12.0775 178.38> 2565 172<1341.08 1579.75> 3348 132<1333.53 1618.99>
LayerCount: 2
Fore
SplineSet
2917 411 m 0,0,1
 2923 414 2923 414 2929 414 c 0,2,3
 2941 414 2941 414 2951 402 c 128,-1,4
 2961 390 2961 390 2961 376 c 0,5,6
 2961 361 2961 361 2951 348 c 128,-1,7
 2941 335 2941 335 2920 320.5 c 128,-1,8
 2899 306 2899 306 2866 287 c 128,-1,9
 2833 268 2833 268 2787 241 c 0,10,11
 2759 224 2759 224 2711.5 192.5 c 128,-1,12
 2664 161 2664 161 2605.5 123.5 c 128,-1,13
 2547 86 2547 86 2481 46.5 c 128,-1,14
 2415 7 2415 7 2349 -25.5 c 128,-1,15
 2283 -58 2283 -58 2221 -78.5 c 128,-1,16
 2159 -99 2159 -99 2109 -99 c 0,17,18
 2078 -99 2078 -99 2052.5 -90 c 128,-1,19
 2027 -81 2027 -81 2009 -60.5 c 128,-1,20
 1991 -40 1991 -40 1981 -7.5 c 128,-1,21
 1971 25 1971 25 1971 72 c 0,22,23
 1971 135 1971 135 1992 214.5 c 128,-1,24
 2013 294 2013 294 2045.5 378.5 c 128,-1,25
 2078 463 2078 463 2118 548.5 c 128,-1,26
 2158 634 2158 634 2197 709 c 128,-1,27
 2236 784 2236 784 2269 844 c 128,-1,28
 2302 904 2302 904 2320 938 c 1,29,30
 2256 939 2256 939 2186 943.5 c 128,-1,31
 2116 948 2116 948 2053.5 957 c 128,-1,32
 1991 966 1991 966 1942.5 979 c 128,-1,33
 1894 992 1894 992 1872 1010 c 1,34,35
 1778 896 1778 896 1661.5 775.5 c 128,-1,36
 1545 655 1545 655 1412.5 541.5 c 128,-1,37
 1280 428 1280 428 1134 326.5 c 128,-1,38
 988 225 988 225 835.5 149.5 c 128,-1,39
 683 74 683 74 526.5 29.5 c 128,-1,40
 370 -15 370 -15 217 -15 c 0,41,42
 158 -15 158 -15 104 -11 c 128,-1,43
 50 -7 50 -7 0 3 c 128,-1,44
 -50 13 -50 13 -96 31 c 128,-1,45
 -142 49 -142 49 -185 77 c 0,46,47
 -202 88 -202 88 -220 100 c 128,-1,48
 -238 112 -238 112 -252.5 124 c 128,-1,49
 -267 136 -267 136 -276.5 147.5 c 128,-1,50
 -286 159 -286 159 -287 169 c 1,51,-1
 -266 169 l 2,52,53
 -265 169 -265 169 -242.5 161 c 128,-1,54
 -220 153 -220 153 -183 141 c 128,-1,55
 -146 129 -146 129 -98 114.5 c 128,-1,56
 -50 100 -50 100 3.5 88 c 128,-1,57
 57 76 57 76 112.5 68 c 128,-1,58
 168 60 168 60 219 60 c 0,59,60
 347 60 347 60 468.5 105 c 128,-1,61
 590 150 590 150 706.5 227.5 c 128,-1,62
 823 305 823 305 935.5 408.5 c 128,-1,63
 1048 512 1048 512 1158 628 c 128,-1,64
 1268 744 1268 744 1375.5 866.5 c 128,-1,65
 1483 989 1483 989 1590 1105 c 128,-1,66
 1697 1221 1697 1221 1804 1324.5 c 128,-1,67
 1911 1428 1911 1428 2019.5 1505.5 c 128,-1,68
 2128 1583 2128 1583 2239 1628 c 128,-1,69
 2350 1673 2350 1673 2464 1673 c 0,70,71
 2545 1673 2545 1673 2598 1651.5 c 128,-1,72
 2651 1630 2651 1630 2681.5 1594 c 128,-1,73
 2712 1558 2712 1558 2724.5 1510.5 c 128,-1,74
 2737 1463 2737 1463 2737 1411 c 0,75,76
 2737 1354 2737 1354 2726 1294 c 128,-1,77
 2715 1234 2715 1234 2701 1180 c 128,-1,78
 2687 1126 2687 1126 2674 1082.5 c 128,-1,79
 2661 1039 2661 1039 2657 1015 c 2,80,-1
 2656 1007 l 1,81,82
 2828 1037 2828 1037 2957.5 1087.5 c 128,-1,83
 3087 1138 3087 1138 3174 1201 c 128,-1,84
 3261 1264 3261 1264 3304.5 1335.5 c 128,-1,85
 3348 1407 3348 1407 3348 1479 c 0,86,87
 3348 1562 3348 1562 3289 1640.5 c 128,-1,88
 3230 1719 3230 1719 3110.5 1779.5 c 128,-1,89
 2991 1840 2991 1840 2810.5 1876.5 c 128,-1,90
 2630 1913 2630 1913 2387 1913 c 0,91,92
 2282 1913 2282 1913 2150.5 1901.5 c 128,-1,93
 2019 1890 2019 1890 1869.5 1871 c 128,-1,94
 1720 1852 1720 1852 1556.5 1828 c 128,-1,95
 1393 1804 1393 1804 1223 1778.5 c 128,-1,96
 1053 1753 1053 1753 881 1729 c 128,-1,97
 709 1705 709 1705 542.5 1686 c 128,-1,98
 376 1667 376 1667 219 1655.5 c 128,-1,99
 62 1644 62 1644 -78 1644 c 0,100,101
 -190 1644 -190 1644 -284.5 1654.5 c 128,-1,102
 -379 1665 -379 1665 -451 1689 c 0,103,104
 -462 1692 -462 1692 -492 1710.5 c 128,-1,105
 -522 1729 -522 1729 -561 1756 c 128,-1,106
 -600 1783 -600 1783 -642 1814 c 128,-1,107
 -684 1845 -684 1845 -719 1873 c 128,-1,108
 -754 1901 -754 1901 -777 1922.5 c 128,-1,109
 -800 1944 -800 1944 -800 1951 c 0,110,111
 -800 1954 -800 1954 -795 1954 c 0,112,113
 -788 1954 -788 1954 -771.5 1947.5 c 128,-1,114
 -755 1941 -755 1941 -725 1926 c 0,115,116
 -574 1849 -574 1849 -372.5 1817.5 c 128,-1,117
 -171 1786 -171 1786 89 1786 c 0,118,119
 227 1786 227 1786 401 1800 c 128,-1,120
 575 1814 575 1814 774 1834.5 c 128,-1,121
 973 1855 973 1855 1193 1879 c 128,-1,122
 1413 1903 1413 1903 1643.5 1923.5 c 128,-1,123
 1874 1944 1874 1944 2110.5 1958 c 128,-1,124
 2347 1972 2347 1972 2580 1972 c 0,125,126
 2816 1972 2816 1972 2986 1933 c 128,-1,127
 3156 1894 3156 1894 3266 1828.5 c 128,-1,128
 3376 1763 3376 1763 3428 1678.5 c 128,-1,129
 3480 1594 3480 1594 3480 1503 c 0,130,131
 3480 1436 3480 1436 3453.5 1369 c 128,-1,132
 3427 1302 3427 1302 3375.5 1240.5 c 128,-1,133
 3324 1179 3324 1179 3249 1124 c 128,-1,134
 3174 1069 3174 1069 3077.5 1027.5 c 128,-1,135
 2981 986 2981 986 2864.5 959 c 128,-1,136
 2748 932 2748 932 2613 925 c 1,137,138
 2604 906 2604 906 2577.5 863 c 128,-1,139
 2551 820 2551 820 2514 761.5 c 128,-1,140
 2477 703 2477 703 2432.5 634.5 c 128,-1,141
 2388 566 2388 566 2343 495 c 128,-1,142
 2298 424 2298 424 2256 355 c 128,-1,143
 2214 286 2214 286 2181.5 228 c 128,-1,144
 2149 170 2149 170 2129.5 127.5 c 128,-1,145
 2110 85 2110 85 2110 66 c 0,146,147
 2110 33 2110 33 2124 18.5 c 128,-1,148
 2138 4 2138 4 2164 4 c 0,149,150
 2196 4 2196 4 2245 24 c 128,-1,151
 2294 44 2294 44 2354 77.5 c 128,-1,152
 2414 111 2414 111 2483 153.5 c 128,-1,153
 2552 196 2552 196 2625 241.5 c 128,-1,154
 2698 287 2698 287 2772 331 c 128,-1,155
 2846 375 2846 375 2917 411 c 0,0,1
2361 1010 m 1,156,157
 2390 1071 2390 1071 2425.5 1139.5 c 128,-1,158
 2461 1208 2461 1208 2492 1275.5 c 128,-1,159
 2523 1343 2523 1343 2544 1405.5 c 128,-1,160
 2565 1468 2565 1468 2565 1516 c 0,161,162
 2565 1561 2565 1561 2548 1580 c 128,-1,163
 2531 1599 2531 1599 2502 1599 c 0,164,165
 2466 1599 2466 1599 2415.5 1574 c 128,-1,166
 2365 1549 2365 1549 2308.5 1507 c 128,-1,167
 2252 1465 2252 1465 2194 1411 c 128,-1,168
 2136 1357 2136 1357 2084.5 1299 c 128,-1,169
 2033 1241 2033 1241 1992 1183.5 c 128,-1,170
 1951 1126 1951 1126 1930 1077 c 1,171,172
 1942 1061 1942 1061 1985 1048.5 c 128,-1,173
 2028 1036 2028 1036 2089 1027.5 c 128,-1,174
 2150 1019 2150 1019 2221.5 1014.5 c 128,-1,175
 2293 1010 2293 1010 2361 1010 c 1,156,157
EndSplineSet
Validated: 1
EndChar

StartChar: B
Encoding: 66 66 36
Width: 3313
Flags: W
HStem: -636 76<1867.09 2336.49> -305 149<891.999 1045> 735 170.5<1399.38 1522.09> 736 93<1524.41 1712.5> 967 77<2084.03 2356> 1328 131<750.049 1444.43> 1939 81<2478.94 2892.02>
VStem: 0 87<343.629 772.882> 2912 229<309.321 702.843> 3025 152<1474.19 1819.75>
LayerCount: 2
Fore
SplineSet
0 516 m 0,0,1
 0 630 0 630 34 744 c 128,-1,2
 68 858 68 858 133.5 963 c 128,-1,3
 199 1068 199 1068 293 1158.5 c 128,-1,4
 387 1249 387 1249 507.5 1316 c 128,-1,5
 628 1383 628 1383 772 1421 c 128,-1,6
 916 1459 916 1459 1081 1459 c 0,7,8
 1228 1459 1228 1459 1351 1435.5 c 128,-1,9
 1474 1412 1474 1412 1572.5 1373.5 c 128,-1,10
 1671 1335 1671 1335 1745 1287.5 c 128,-1,11
 1819 1240 1819 1240 1867 1192 c 1,12,13
 1910 1311 1910 1311 1954.5 1419 c 128,-1,14
 1999 1527 1999 1527 2052 1619 c 128,-1,15
 2105 1711 2105 1711 2170.5 1785 c 128,-1,16
 2236 1859 2236 1859 2321.5 1911.5 c 128,-1,17
 2407 1964 2407 1964 2516 1992 c 128,-1,18
 2625 2020 2625 2020 2765 2020 c 0,19,20
 2863 2020 2863 2020 2939.5 1989.5 c 128,-1,21
 3016 1959 3016 1959 3069 1906 c 128,-1,22
 3122 1853 3122 1853 3149.5 1781 c 128,-1,23
 3177 1709 3177 1709 3177 1627 c 0,24,25
 3177 1543 3177 1543 3147 1462 c 128,-1,26
 3117 1381 3117 1381 3054.5 1302.5 c 128,-1,27
 2992 1224 2992 1224 2896 1148 c 128,-1,28
 2800 1072 2800 1072 2667 998 c 1,29,30
 2788 988 2788 988 2877 941.5 c 128,-1,31
 2966 895 2966 895 3024.5 823.5 c 128,-1,32
 3083 752 3083 752 3112 661 c 128,-1,33
 3141 570 3141 570 3141 472 c 0,34,35
 3141 390 3141 390 3122 308 c 1,36,37
 3152 324 3152 324 3185.5 342 c 128,-1,38
 3219 360 3219 360 3248 376 c 2,39,-1
 3313 411 l 1,40,41
 3328 417 3328 417 3338 417 c 0,42,43
 3362 417 3362 417 3362 393 c 0,44,45
 3362 376 3362 376 3350.5 362 c 128,-1,46
 3339 348 3339 348 3320.5 335 c 128,-1,47
 3302 322 3302 322 3278.5 310 c 128,-1,48
 3255 298 3255 298 3231 285 c 0,49,50
 3196 265 3196 265 3168 247.5 c 128,-1,51
 3140 230 3140 230 3107 211 c 1,52,53
 3063 9 3063 9 2969.5 -148.5 c 128,-1,54
 2876 -306 2876 -306 2745.5 -414.5 c 128,-1,55
 2615 -523 2615 -523 2455 -579.5 c 128,-1,56
 2295 -636 2295 -636 2120 -636 c 0,57,58
 2040 -636 2040 -636 1961.5 -622 c 128,-1,59
 1883 -608 1883 -608 1810 -583.5 c 128,-1,60
 1737 -559 1737 -559 1671 -526.5 c 128,-1,61
 1605 -494 1605 -494 1549.5 -457 c 128,-1,62
 1494 -420 1494 -420 1451 -381 c 128,-1,63
 1408 -342 1408 -342 1381 -305 c 1,64,65
 1178 -305 1178 -305 997 -287.5 c 128,-1,66
 816 -270 816 -270 663 -231 c 128,-1,67
 510 -192 510 -192 387 -128.5 c 128,-1,68
 264 -65 264 -65 178 26 c 128,-1,69
 92 117 92 117 46 238.5 c 128,-1,70
 0 360 0 360 0 516 c 0,0,1
1354 834 m 0,71,72
 1354 847 1354 847 1388 866 c 128,-1,73
 1422 885 1422 885 1481 905.5 c 128,-1,74
 1540 926 1540 926 1621 947 c 128,-1,75
 1702 968 1702 968 1797 986 c 1,76,-1
 1845 1131 l 1,77,78
 1798 1174 1798 1174 1735 1210 c 128,-1,79
 1672 1246 1672 1246 1583 1272 c 128,-1,80
 1494 1298 1494 1298 1373 1313 c 128,-1,81
 1252 1328 1252 1328 1090 1328 c 0,82,83
 929 1328 929 1328 792.5 1297 c 128,-1,84
 656 1266 656 1266 544.5 1211.5 c 128,-1,85
 433 1157 433 1157 347.5 1083 c 128,-1,86
 262 1009 262 1009 204 922.5 c 128,-1,87
 146 836 146 836 116.5 741 c 128,-1,88
 87 646 87 646 87 551 c 0,89,90
 87 461 87 461 118 374 c 128,-1,91
 149 287 149 287 207 208.5 c 128,-1,92
 265 130 265 130 349 63 c 128,-1,93
 433 -4 433 -4 538.5 -52.5 c 128,-1,94
 644 -101 644 -101 770 -128.5 c 128,-1,95
 896 -156 896 -156 1039 -156 c 2,96,-1
 1045 -156 l 1,97,98
 1043 -142 1043 -142 1042 -129.5 c 128,-1,99
 1041 -117 1041 -117 1041 -105 c 0,100,101
 1041 -57 1041 -57 1055.5 -23 c 128,-1,102
 1070 11 1070 11 1094 33 c 128,-1,103
 1118 55 1118 55 1149 65 c 128,-1,104
 1180 75 1180 75 1213 75 c 0,105,106
 1252 75 1252 75 1291 62 c 128,-1,107
 1330 49 1330 49 1360 25 c 1,108,109
 1421 87 1421 87 1471 166.5 c 128,-1,110
 1521 246 1521 246 1563.5 338 c 128,-1,111
 1606 430 1606 430 1642.5 531.5 c 128,-1,112
 1679 633 1679 633 1714 740 c 1,113,114
 1666 737 1666 737 1617.5 736 c 128,-1,115
 1569 735 1569 735 1518 735 c 0,116,117
 1442 735 1442 735 1398 759 c 128,-1,118
 1354 783 1354 783 1354 834 c 0,71,72
1470 -208 m 1,119,120
 1633 -195 1633 -195 1803 -166 c 128,-1,121
 1973 -137 1973 -137 2149 -88 c 128,-1,122
 2325 -39 2325 -39 2508.5 31.5 c 128,-1,123
 2692 102 2692 102 2883 198 c 1,124,125
 2887 215 2887 215 2890.5 234.5 c 128,-1,126
 2894 254 2894 254 2897 274 c 0,127,128
 2902 309 2902 309 2907 355.5 c 128,-1,129
 2912 402 2912 402 2912 456 c 0,130,131
 2912 507 2912 507 2906 561.5 c 128,-1,132
 2900 616 2900 616 2884.5 668 c 128,-1,133
 2869 720 2869 720 2843 766.5 c 128,-1,134
 2817 813 2817 813 2776 849.5 c 128,-1,135
 2735 886 2735 886 2678.5 909 c 128,-1,136
 2622 932 2622 932 2546 936 c 1,137,138
 2486 909 2486 909 2429.5 885 c 128,-1,139
 2373 861 2373 861 2312 840 c 128,-1,140
 2251 819 2251 819 2181.5 801.5 c 128,-1,141
 2112 784 2112 784 2027 771 c 1,142,143
 1994 630 1994 630 1948.5 493.5 c 128,-1,144
 1903 357 1903 357 1835.5 235.5 c 128,-1,145
 1768 114 1768 114 1674.5 13.5 c 128,-1,146
 1581 -87 1581 -87 1453 -156 c 1,147,148
 1456 -169 1456 -169 1460.5 -181.5 c 128,-1,149
 1465 -194 1465 -194 1470 -208 c 1,119,120
2291 1044 m 0,150,151
 2396 1044 2396 1044 2492 1032 c 1,152,153
 2758 1179 2758 1179 2891.5 1338.5 c 128,-1,154
 3025 1498 3025 1498 3025 1661 c 0,155,156
 3025 1721 3025 1721 3005.5 1772 c 128,-1,157
 2986 1823 2986 1823 2947 1860 c 128,-1,158
 2908 1897 2908 1897 2848.5 1918 c 128,-1,159
 2789 1939 2789 1939 2710 1939 c 0,160,161
 2587 1939 2587 1939 2500 1907 c 128,-1,162
 2413 1875 2413 1875 2352 1816.5 c 128,-1,163
 2291 1758 2291 1758 2251 1675.5 c 128,-1,164
 2211 1593 2211 1593 2182.5 1492 c 128,-1,165
 2154 1391 2154 1391 2131.5 1274 c 128,-1,166
 2109 1157 2109 1157 2083 1029 c 1,167,168
 2116 1032 2116 1032 2140.5 1034.5 c 128,-1,169
 2165 1037 2165 1037 2187.5 1039.5 c 128,-1,170
 2210 1042 2210 1042 2234 1043 c 128,-1,171
 2258 1044 2258 1044 2291 1044 c 0,150,151
2870 96 m 1,172,173
 2781 53 2781 53 2690 7.5 c 128,-1,174
 2599 -38 2599 -38 2501.5 -82 c 128,-1,175
 2404 -126 2404 -126 2296.5 -166 c 128,-1,176
 2189 -206 2189 -206 2066.5 -236.5 c 128,-1,177
 1944 -267 1944 -267 1803.5 -285.5 c 128,-1,178
 1663 -304 1663 -304 1500 -306 c 1,179,180
 1545 -349 1545 -349 1610 -394 c 128,-1,181
 1675 -439 1675 -439 1752 -476 c 128,-1,182
 1829 -513 1829 -513 1913 -536.5 c 128,-1,183
 1997 -560 1997 -560 2079 -560 c 0,184,185
 2245 -560 2245 -560 2377 -508.5 c 128,-1,186
 2509 -457 2509 -457 2607.5 -367.5 c 128,-1,187
 2706 -278 2706 -278 2771.5 -158.5 c 128,-1,188
 2837 -39 2837 -39 2870 96 c 1,172,173
2063 933 m 1,189,190
 2059 914 2059 914 2056 895.5 c 128,-1,191
 2053 877 2053 877 2047 859 c 1,192,193
 2098 868 2098 868 2137 879 c 128,-1,194
 2176 890 2176 890 2210.5 903.5 c 128,-1,195
 2245 917 2245 917 2279.5 932.5 c 128,-1,196
 2314 948 2314 948 2356 966 c 1,197,198
 2347 967 2347 967 2340 967 c 128,-1,199
 2333 967 2333 967 2324 967 c 0,200,201
 2286 964 2286 964 2256 961 c 128,-1,202
 2226 958 2226 958 2196.5 954 c 128,-1,203
 2167 950 2167 950 2135.5 945 c 128,-1,204
 2104 940 2104 940 2063 933 c 1,189,190
1523 836 m 1,205,206
 1568 832 1568 832 1612 830.5 c 128,-1,207
 1656 829 1656 829 1699 829 c 2,208,-1
 1744 829 l 1,209,210
 1748 840 1748 840 1751 850 c 128,-1,211
 1754 860 1754 860 1758 870 c 1,212,213
 1686 856 1686 856 1628 846 c 128,-1,214
 1570 836 1570 836 1528 836 c 2,215,-1
 1523 836 l 1,205,206
EndSplineSet
Validated: 1
EndChar

StartChar: C
Encoding: 67 67 37
Width: 1796
Flags: W
HStem: -67 85<737.683 1126.8> 603 132<1221.46 1426.47> 1986 59<1222.22 1659.88> 2134 66<2362.82 2654.08>
VStem: 150 268<339.855 924.169> 976 195<785.056 1083.15> 1942 65<1377.99 1736.84>
LayerCount: 2
Fore
SplineSet
1459 2045 m 0,0,1
 1568 2045 1568 2045 1650 2026.5 c 128,-1,2
 1732 2008 1732 2008 1795 1976 c 1,3,4
 1889 2027 1889 2027 1991 2068.5 c 128,-1,5
 2093 2110 2093 2110 2198 2139 c 128,-1,6
 2303 2168 2303 2168 2409 2184 c 128,-1,7
 2515 2200 2515 2200 2617 2200 c 0,8,9
 2641 2200 2641 2200 2654.5 2188.5 c 128,-1,10
 2668 2177 2668 2177 2668 2163 c 0,11,12
 2668 2152 2668 2152 2657 2143 c 128,-1,13
 2646 2134 2646 2134 2623 2134 c 0,14,15
 2544 2134 2544 2134 2451 2118.5 c 128,-1,16
 2358 2103 2358 2103 2260.5 2075 c 128,-1,17
 2163 2047 2163 2047 2065.5 2007 c 128,-1,18
 1968 1967 1968 1967 1880 1918 c 1,19,20
 1947 1858 1947 1858 1977 1778 c 128,-1,21
 2007 1698 2007 1698 2007 1604 c 0,22,23
 2007 1496 2007 1496 1975.5 1380.5 c 128,-1,24
 1944 1265 1944 1265 1889.5 1153.5 c 128,-1,25
 1835 1042 1835 1042 1761 942 c 128,-1,26
 1687 842 1687 842 1602.5 767 c 128,-1,27
 1518 692 1518 692 1427 647.5 c 128,-1,28
 1336 603 1336 603 1247 603 c 0,29,30
 1176 603 1176 603 1125 621 c 128,-1,31
 1074 639 1074 639 1041 671.5 c 128,-1,32
 1008 704 1008 704 992 749.5 c 128,-1,33
 976 795 976 795 976 851 c 0,34,35
 976 929 976 929 1001 1020 c 128,-1,36
 1026 1111 1026 1111 1072.5 1207.5 c 128,-1,37
 1119 1304 1119 1304 1185 1403 c 128,-1,38
 1251 1502 1251 1502 1333.5 1596 c 128,-1,39
 1416 1690 1416 1690 1513.5 1776.5 c 128,-1,40
 1611 1863 1611 1863 1719 1934 c 1,41,42
 1665 1959 1665 1959 1597 1972.5 c 128,-1,43
 1529 1986 1529 1986 1444 1986 c 0,44,45
 1308 1986 1308 1986 1191.5 1948 c 128,-1,46
 1075 1910 1075 1910 977.5 1843.5 c 128,-1,47
 880 1777 880 1777 800.5 1686 c 128,-1,48
 721 1595 721 1595 659 1488.5 c 128,-1,49
 597 1382 597 1382 551.5 1264.5 c 128,-1,50
 506 1147 506 1147 476.5 1027.5 c 128,-1,51
 447 908 447 908 432.5 791 c 128,-1,52
 418 674 418 674 418 568 c 0,53,54
 418 460 418 460 454.5 361 c 128,-1,55
 491 262 491 262 560 185.5 c 128,-1,56
 629 109 629 109 729.5 63.5 c 128,-1,57
 830 18 830 18 958 18 c 0,58,59
 1014 18 1014 18 1083 39 c 128,-1,60
 1152 60 1152 60 1227.5 93.5 c 128,-1,61
 1303 127 1303 127 1381.5 169.5 c 128,-1,62
 1460 212 1460 212 1534.5 255.5 c 128,-1,63
 1609 299 1609 299 1676 340 c 128,-1,64
 1743 381 1743 381 1796 411 c 0,65,66
 1800 414 1800 414 1806 414 c 0,67,68
 1817 414 1817 414 1825 404 c 128,-1,69
 1833 394 1833 394 1833 380 c 0,70,71
 1833 367 1833 367 1824.5 353 c 128,-1,72
 1816 339 1816 339 1796 328 c 0,73,74
 1726 289 1726 289 1654 245 c 128,-1,75
 1582 201 1582 201 1507.5 157 c 128,-1,76
 1433 113 1433 113 1356 72.5 c 128,-1,77
 1279 32 1279 32 1199.5 1 c 128,-1,78
 1120 -30 1120 -30 1037.5 -48.5 c 128,-1,79
 955 -67 955 -67 870 -67 c 0,80,81
 682 -67 682 -67 546.5 -16 c 128,-1,82
 411 35 411 35 322.5 123 c 128,-1,83
 234 211 234 211 192 329 c 128,-1,84
 150 447 150 447 150 581 c 0,85,86
 150 739 150 739 191 909 c 128,-1,87
 232 1079 232 1079 310.5 1241.5 c 128,-1,88
 389 1404 389 1404 502.5 1550 c 128,-1,89
 616 1696 616 1696 761.5 1806 c 128,-1,90
 907 1916 907 1916 1082.5 1980.5 c 128,-1,91
 1258 2045 1258 2045 1459 2045 c 0,0,1
1360 735 m 0,92,93
 1433 735 1433 735 1505 770.5 c 128,-1,94
 1577 806 1577 806 1641.5 867 c 128,-1,95
 1706 928 1706 928 1761 1009.5 c 128,-1,96
 1816 1091 1816 1091 1856.5 1182 c 128,-1,97
 1897 1273 1897 1273 1919.5 1370 c 128,-1,98
 1942 1467 1942 1467 1942 1558 c 0,99,100
 1942 1652 1942 1652 1911 1734 c 128,-1,101
 1880 1816 1880 1816 1810 1876 c 1,102,103
 1717 1812 1717 1812 1633.5 1734 c 128,-1,104
 1550 1656 1550 1656 1479 1571.5 c 128,-1,105
 1408 1487 1408 1487 1351 1398.5 c 128,-1,106
 1294 1310 1294 1310 1254 1224.5 c 128,-1,107
 1214 1139 1214 1139 1192.5 1061 c 128,-1,108
 1171 983 1171 983 1171 918 c 0,109,110
 1171 835 1171 835 1216 785 c 128,-1,111
 1261 735 1261 735 1360 735 c 0,92,93
EndSplineSet
Validated: 1
EndChar

StartChar: D
Encoding: 68 68 38
Width: 2448
Flags: W
HStem: -43 80<90.3466 203.091> -20 81<535.781 1129.5> 45 105<1717.81 1988.28> 61 80<90.75 203.969> 990 51<272.554 490.455> 1917 20G<1044 1054.5 2017.5 2056> 2060 88<775.965 1424.57>
VStem: 55 76<1163.83 1547.76> 1003 83<1585.91 1670.17> 1020 94<1449.94 1662.01> 1020 66<1495.25 1653.84> 2088 212<909.321 1307.61>
LayerCount: 2
Fore
SplineSet
2046 1937 m 2,0,1
 2066 1937 2066 1937 2076.5 1925.5 c 128,-1,2
 2087 1914 2087 1914 2087 1898 c 0,3,4
 2087 1887 2087 1887 2074 1875.5 c 128,-1,5
 2061 1864 2061 1864 2041.5 1852.5 c 128,-1,6
 2022 1841 2022 1841 2000.5 1829.5 c 128,-1,7
 1979 1818 1979 1818 1961 1806 c 1,8,9
 2040 1729 2040 1729 2102.5 1638 c 128,-1,10
 2165 1547 2165 1547 2209 1442 c 128,-1,11
 2253 1337 2253 1337 2276.5 1220 c 128,-1,12
 2300 1103 2300 1103 2300 975 c 0,13,14
 2300 833 2300 833 2255.5 714.5 c 128,-1,15
 2211 596 2211 596 2132.5 499 c 128,-1,16
 2054 402 2054 402 1947.5 325.5 c 128,-1,17
 1841 249 1841 249 1717 191 c 1,18,19
 1743 169 1743 169 1776 159.5 c 128,-1,20
 1809 150 1809 150 1847 150 c 0,21,22
 1891 150 1891 150 1940.5 161.5 c 128,-1,23
 1990 173 1990 173 2040.5 191 c 128,-1,24
 2091 209 2091 209 2141 232.5 c 128,-1,25
 2191 256 2191 256 2236 280 c 0,26,27
 2290 309 2290 309 2342 341.5 c 128,-1,28
 2394 374 2394 374 2448 411 c 0,29,30
 2452 414 2452 414 2459 414 c 0,31,32
 2469 414 2469 414 2477 405 c 128,-1,33
 2485 396 2485 396 2485 382 c 0,34,35
 2485 369 2485 369 2471 352.5 c 128,-1,36
 2457 336 2457 336 2434 318 c 128,-1,37
 2411 300 2411 300 2382 281.5 c 128,-1,38
 2353 263 2353 263 2322.5 245.5 c 128,-1,39
 2292 228 2292 228 2263 212.5 c 128,-1,40
 2234 197 2234 197 2212 186 c 0,41,42
 2161 159 2161 159 2103 133.5 c 128,-1,43
 2045 108 2045 108 1984.5 88.5 c 128,-1,44
 1924 69 1924 69 1862.5 57 c 128,-1,45
 1801 45 1801 45 1743 45 c 0,46,47
 1695 45 1695 45 1650.5 55 c 128,-1,48
 1606 65 1606 65 1566 86 c 2,49,-1
 1518 111 l 1,50,51
 1415 76 1415 76 1309 51 c 128,-1,52
 1203 26 1203 26 1099.5 10.5 c 128,-1,53
 996 -5 996 -5 898.5 -12.5 c 128,-1,54
 801 -20 801 -20 715 -20 c 0,55,56
 643 -20 643 -20 570 -6 c 128,-1,57
 497 8 497 8 422 25 c 1,58,59
 350 -7 350 -7 275 -25 c 128,-1,60
 200 -43 200 -43 119 -43 c 0,61,62
 99 -43 99 -43 78 -37 c 128,-1,63
 57 -31 57 -31 39.5 -19 c 128,-1,64
 22 -7 22 -7 11 11 c 128,-1,65
 0 29 0 29 0 53 c 0,66,67
 0 81 0 81 18.5 98.5 c 128,-1,68
 37 116 37 116 63.5 125.5 c 128,-1,69
 90 135 90 135 119.5 138 c 128,-1,70
 149 141 149 141 172 141 c 0,71,72
 205 141 205 141 238 138.5 c 128,-1,73
 271 136 271 136 303 131 c 1,74,75
 416 211 416 211 515.5 309.5 c 128,-1,76
 615 408 615 408 706 518 c 128,-1,77
 797 628 797 628 882.5 746 c 128,-1,78
 968 864 968 864 1052.5 984 c 128,-1,79
 1137 1104 1137 1104 1223 1222.5 c 128,-1,80
 1309 1341 1309 1341 1401 1450.5 c 128,-1,81
 1493 1560 1493 1560 1594.5 1658 c 128,-1,82
 1696 1756 1696 1756 1811 1835 c 1,83,84
 1692 1938 1692 1938 1520 1999 c 128,-1,85
 1348 2060 1348 2060 1122 2060 c 0,86,87
 1015 2060 1015 2060 900 2042 c 128,-1,88
 785 2024 785 2024 675 1986 c 128,-1,89
 565 1948 565 1948 466 1889.5 c 128,-1,90
 367 1831 367 1831 292.5 1750 c 128,-1,91
 218 1669 218 1669 174.5 1564.5 c 128,-1,92
 131 1460 131 1460 131 1331 c 0,93,94
 131 1251 131 1251 147.5 1196 c 128,-1,95
 164 1141 164 1141 193.5 1106.5 c 128,-1,96
 223 1072 223 1072 263.5 1056.5 c 128,-1,97
 304 1041 304 1041 352 1041 c 0,98,99
 418 1041 418 1041 493 1067 c 128,-1,100
 568 1093 568 1093 642 1136.5 c 128,-1,101
 716 1180 716 1180 784.5 1236.5 c 128,-1,102
 853 1293 853 1293 905.5 1353.5 c 128,-1,103
 958 1414 958 1414 989 1474 c 128,-1,104
 1020 1534 1020 1534 1020 1585 c 0,105,106
 1020 1614 1020 1614 1006 1645 c 1,107,108
 1003 1649 1003 1649 1003 1654 c 0,109,110
 1003 1660 1003 1660 1008 1665 c 128,-1,111
 1013 1670 1013 1670 1019.5 1673.5 c 128,-1,112
 1026 1677 1026 1677 1033.5 1679 c 128,-1,113
 1041 1681 1041 1681 1047 1681 c 0,114,115
 1062 1681 1062 1681 1074 1670.5 c 128,-1,116
 1086 1660 1086 1660 1086 1640 c 2,117,-1
 1086 1634 l 1,118,119
 1114 1565 1114 1565 1114 1493 c 0,120,121
 1114 1420 1114 1420 1085 1354 c 128,-1,122
 1056 1288 1056 1288 1006.5 1232 c 128,-1,123
 957 1176 957 1176 890.5 1131.5 c 128,-1,124
 824 1087 824 1087 749.5 1055.5 c 128,-1,125
 675 1024 675 1024 595.5 1007 c 128,-1,126
 516 990 516 990 440 990 c 0,127,128
 362 990 362 990 292 1009.5 c 128,-1,129
 222 1029 222 1029 169.5 1070 c 128,-1,130
 117 1111 117 1111 86 1176 c 128,-1,131
 55 1241 55 1241 55 1331 c 0,132,133
 55 1461 55 1461 97 1572 c 128,-1,134
 139 1683 139 1683 211.5 1774 c 128,-1,135
 284 1865 284 1865 382 1934.5 c 128,-1,136
 480 2004 480 2004 592 2051.5 c 128,-1,137
 704 2099 704 2099 825 2123.5 c 128,-1,138
 946 2148 946 2148 1065 2148 c 0,139,140
 1304 2148 1304 2148 1509 2079 c 128,-1,141
 1714 2010 1714 2010 1880 1878 c 1,142,143
 1917 1898 1917 1898 1956 1913.5 c 128,-1,144
 1995 1929 1995 1929 2040 1937 c 1,145,-1
 2046 1937 l 2,0,1
1476 289 m 0,146,147
 1523 315 1523 315 1561 315 c 0,148,149
 1577 315 1577 315 1601 307 c 1,150,151
 1721 391 1721 391 1812 496 c 128,-1,152
 1903 601 1903 601 1964.5 718 c 128,-1,153
 2026 835 2026 835 2057 959 c 128,-1,154
 2088 1083 2088 1083 2088 1205 c 0,155,156
 2088 1361 2088 1361 2039.5 1501 c 128,-1,157
 1991 1641 1991 1641 1891 1756 c 1,158,159
 1803 1685 1803 1685 1720 1590 c 128,-1,160
 1637 1495 1637 1495 1556 1384.5 c 128,-1,161
 1475 1274 1475 1274 1396 1153 c 128,-1,162
 1317 1032 1317 1032 1237 909.5 c 128,-1,163
 1157 787 1157 787 1074.5 668 c 128,-1,164
 992 549 992 549 905.5 441.5 c 128,-1,165
 819 334 819 334 726.5 243 c 128,-1,166
 634 152 634 152 534 87 c 1,167,168
 591 76 591 76 647.5 68.5 c 128,-1,169
 704 61 704 61 762 61 c 0,170,171
 954 61 954 61 1114.5 97 c 128,-1,172
 1275 133 1275 133 1414 199 c 1,173,174
 1411 206 1411 206 1411 216 c 0,175,176
 1411 233 1411 233 1426 251 c 128,-1,177
 1441 269 1441 269 1476 289 c 0,146,147
131 37 m 0,178,179
 166 37 166 37 204 61 c 1,180,-1
 189 61 l 2,181,182
 163 61 163 61 137.5 58 c 128,-1,183
 112 55 112 55 90 47 c 1,184,185
 100 41 100 41 110 39 c 128,-1,186
 120 37 120 37 131 37 c 0,178,179
EndSplineSet
Validated: 1
EndChar

StartChar: E
Encoding: 69 69 39
Width: 1933
Flags: W
HStem: -521 78<583.029 1059.2> 141 70<1056.42 1197.89> 193 125<1612.72 1733.62> 1244 72<1701.16 1766.58> 1330 89<646.592 1003> 1875 88<1506.95 1769.06>
VStem: -83 304<22.835 670.455> 870 132<322.025 978.607> 1379 54<619.576 1060.14> 1639 61<1316.33 1499.87> 1826 63<1437.74 1669>
LayerCount: 2
Fore
SplineSet
1682 193 m 0,0,1
 1635 193 1635 193 1612 215.5 c 128,-1,2
 1589 238 1589 238 1589 263 c 0,3,4
 1589 285 1589 285 1605 301.5 c 128,-1,5
 1621 318 1621 318 1653 318 c 0,6,7
 1673 318 1673 318 1696.5 319 c 128,-1,8
 1720 320 1720 320 1741 321.5 c 128,-1,9
 1762 323 1762 323 1778.5 325.5 c 128,-1,10
 1795 328 1795 328 1801 332 c 2,11,-1
 1933 411 l 1,12,13
 1945 417 1945 417 1955 417 c 0,14,15
 1966 417 1966 417 1972 409.5 c 128,-1,16
 1978 402 1978 402 1978 391 c 0,17,18
 1978 373 1978 373 1966.5 358.5 c 128,-1,19
 1955 344 1955 344 1932 329 c 128,-1,20
 1909 314 1909 314 1875.5 295 c 128,-1,21
 1842 276 1842 276 1798 249 c 1,22,23
 1799 241 1799 241 1799 234 c 128,-1,24
 1799 227 1799 227 1799 220 c 0,25,26
 1799 83 1799 83 1749.5 -25 c 128,-1,27
 1700 -133 1700 -133 1616 -215.5 c 128,-1,28
 1532 -298 1532 -298 1421.5 -356 c 128,-1,29
 1311 -414 1311 -414 1189.5 -450.5 c 128,-1,30
 1068 -487 1068 -487 943 -504 c 128,-1,31
 818 -521 818 -521 704 -521 c 0,32,33
 569 -521 569 -521 458 -488.5 c 128,-1,34
 347 -456 347 -456 259.5 -397.5 c 128,-1,35
 172 -339 172 -339 107.5 -258.5 c 128,-1,36
 43 -178 43 -178 0.5 -82.5 c 128,-1,37
 -42 13 -42 13 -62.5 120 c 128,-1,38
 -83 227 -83 227 -83 339 c 0,39,40
 -83 469 -83 469 -55.5 599.5 c 128,-1,41
 -28 730 -28 730 25.5 850 c 128,-1,42
 79 970 79 970 158 1074 c 128,-1,43
 237 1178 237 1178 340 1254.5 c 128,-1,44
 443 1331 443 1331 569.5 1375 c 128,-1,45
 696 1419 696 1419 845 1419 c 0,46,47
 899 1419 899 1419 947 1415.5 c 128,-1,48
 995 1412 995 1412 1038 1405 c 1,49,50
 1090 1519 1090 1519 1157.5 1620.5 c 128,-1,51
 1225 1722 1225 1722 1304.5 1798 c 128,-1,52
 1384 1874 1384 1874 1475 1918.5 c 128,-1,53
 1566 1963 1566 1963 1666 1963 c 0,54,55
 1738 1963 1738 1963 1782 1932 c 128,-1,56
 1826 1901 1826 1901 1851 1850 c 1,57,58
 1890 1909 1890 1909 1929 1961 c 128,-1,59
 1968 2013 1968 2013 2000 2053 c 128,-1,60
 2032 2093 2032 2093 2055 2117 c 128,-1,61
 2078 2141 2078 2141 2085 2144 c 1,62,63
 2092 2136 2092 2136 2102.5 2126 c 128,-1,64
 2113 2116 2113 2116 2123 2105 c 128,-1,65
 2133 2094 2133 2094 2141.5 2082.5 c 128,-1,66
 2150 2071 2150 2071 2153 2061 c 1,67,68
 2138 2044 2138 2044 2109 2013 c 128,-1,69
 2080 1982 2080 1982 2043 1940.5 c 128,-1,70
 2006 1899 2006 1899 1964 1850 c 128,-1,71
 1922 1801 1922 1801 1882 1748 c 1,72,73
 1886 1725 1886 1725 1887.5 1701 c 128,-1,74
 1889 1677 1889 1677 1889 1653 c 0,75,76
 1889 1588 1889 1588 1876 1516.5 c 128,-1,77
 1863 1445 1863 1445 1840 1384 c 128,-1,78
 1817 1323 1817 1323 1785 1283.5 c 128,-1,79
 1753 1244 1753 1244 1715 1244 c 0,80,81
 1695 1244 1695 1244 1680.5 1254 c 128,-1,82
 1666 1264 1666 1264 1657 1281 c 128,-1,83
 1648 1298 1648 1298 1643.5 1320.5 c 128,-1,84
 1639 1343 1639 1343 1639 1369 c 0,85,86
 1639 1408 1639 1408 1651.5 1455 c 128,-1,87
 1664 1502 1664 1502 1685.5 1554.5 c 128,-1,88
 1707 1607 1707 1607 1737.5 1663.5 c 128,-1,89
 1768 1720 1768 1720 1804 1778 c 1,90,91
 1787 1820 1787 1820 1751.5 1847.5 c 128,-1,92
 1716 1875 1716 1875 1653 1875 c 0,93,94
 1578 1875 1578 1875 1509.5 1833 c 128,-1,95
 1441 1791 1441 1791 1380.5 1720.5 c 128,-1,96
 1320 1650 1320 1650 1268 1558.5 c 128,-1,97
 1216 1467 1216 1467 1174 1369 c 1,98,99
 1304 1317 1304 1317 1368.5 1203 c 128,-1,100
 1433 1089 1433 1089 1433 898 c 0,101,102
 1433 847 1433 847 1428.5 792.5 c 128,-1,103
 1424 738 1424 738 1416 677 c 0,104,105
 1378 407 1378 407 1296 274 c 128,-1,106
 1214 141 1214 141 1102 141 c 0,107,108
 1048 141 1048 141 1005 177 c 128,-1,109
 962 213 962 213 932 278.5 c 128,-1,110
 902 344 902 344 886 436 c 128,-1,111
 870 528 870 528 870 641 c 0,112,113
 870 716 870 716 877.5 797.5 c 128,-1,114
 885 879 885 879 901 965.5 c 128,-1,115
 917 1052 917 1052 942 1141 c 128,-1,116
 967 1230 967 1230 1003 1320 c 1,117,118
 965 1325 965 1325 924.5 1327.5 c 128,-1,119
 884 1330 884 1330 841 1330 c 0,120,121
 741 1330 741 1330 656.5 1291 c 128,-1,122
 572 1252 572 1252 503 1184 c 128,-1,123
 434 1116 434 1116 381.5 1023.5 c 128,-1,124
 329 931 329 931 293 824 c 128,-1,125
 257 717 257 717 239 600.5 c 128,-1,126
 221 484 221 484 221 367 c 0,127,128
 221 263 221 263 235.5 162.5 c 128,-1,129
 250 62 250 62 280 -28 c 128,-1,130
 310 -118 310 -118 355.5 -194 c 128,-1,131
 401 -270 401 -270 462 -325.5 c 128,-1,132
 523 -381 523 -381 600 -412 c 128,-1,133
 677 -443 677 -443 771 -443 c 0,134,135
 850 -443 850 -443 940 -429.5 c 128,-1,136
 1030 -416 1030 -416 1122 -385 c 128,-1,137
 1214 -354 1214 -354 1305 -304 c 128,-1,138
 1396 -254 1396 -254 1476.5 -181.5 c 128,-1,139
 1557 -109 1557 -109 1623.5 -11.5 c 128,-1,140
 1690 86 1690 86 1734 211 c 1,141,142
 1722 205 1722 205 1710 199 c 128,-1,143
 1698 193 1698 193 1682 193 c 0,0,1
1366 685 m 0,144,145
 1373 734 1373 734 1376 778.5 c 128,-1,146
 1379 823 1379 823 1379 863 c 0,147,148
 1379 954 1379 954 1362.5 1023.5 c 128,-1,149
 1346 1093 1346 1093 1315.5 1144 c 128,-1,150
 1285 1195 1285 1195 1240.5 1230 c 128,-1,151
 1196 1265 1196 1265 1140 1287 c 1,152,153
 1095 1169 1095 1169 1066.5 1059.5 c 128,-1,154
 1038 950 1038 950 1027 871 c 0,155,156
 1016 790 1016 790 1009 706.5 c 128,-1,157
 1002 623 1002 623 1002 542 c 0,158,159
 1002 474 1002 474 1008 413.5 c 128,-1,160
 1014 353 1014 353 1027.5 308 c 128,-1,161
 1041 263 1041 263 1062.5 237 c 128,-1,162
 1084 211 1084 211 1116 211 c 0,163,164
 1149 211 1149 211 1185 235 c 128,-1,165
 1221 259 1221 259 1255 314.5 c 128,-1,166
 1289 370 1289 370 1318 460.5 c 128,-1,167
 1347 551 1347 551 1366 685 c 0,144,145
1818 1537 m 0,168,169
 1821 1560 1821 1560 1823.5 1588.5 c 128,-1,170
 1826 1617 1826 1617 1826 1647 c 2,171,-1
 1826 1669 l 1,172,173
 1769 1587 1769 1587 1734.5 1509.5 c 128,-1,174
 1700 1432 1700 1432 1700 1369 c 0,175,176
 1700 1346 1700 1346 1706 1331 c 128,-1,177
 1712 1316 1712 1316 1726 1316 c 0,178,179
 1742 1316 1742 1316 1756 1335 c 128,-1,180
 1770 1354 1770 1354 1782 1385 c 128,-1,181
 1794 1416 1794 1416 1803 1456 c 128,-1,182
 1812 1496 1812 1496 1818 1537 c 0,168,169
EndSplineSet
Validated: 1
EndChar

StartChar: F
Encoding: 70 70 40
Width: 1827
Flags: W
HStem: -524 90<44.6875 264.85> 45 105<1100.81 1366.81> 410 65<269.614 547.446> 793 138<729.167 859.328 864.531 986> 826 76<1326 2773.65> 1484 136<2610.76 3377.76> 1700 52<970.797 1597.94> 1838 20G<3847 3899.67>
VStem: 0 136<628.999 1132.15>
LayerCount: 2
Fore
SplineSet
1827 411 m 1,0,1
 1839 417 1839 417 1849 417 c 0,2,3
 1860 417 1860 417 1866 409.5 c 128,-1,4
 1872 402 1872 402 1872 391 c 0,5,6
 1872 377 1872 377 1861 359.5 c 128,-1,7
 1850 342 1850 342 1827 328 c 1,8,9
 1769 288 1769 288 1710 252.5 c 128,-1,10
 1651 217 1651 217 1591 186 c 0,11,12
 1540 159 1540 159 1482 133.5 c 128,-1,13
 1424 108 1424 108 1363 88.5 c 128,-1,14
 1302 69 1302 69 1240.5 57 c 128,-1,15
 1179 45 1179 45 1122 45 c 0,16,17
 1075 45 1075 45 1033 54 c 1,18,19
 978 -41 978 -41 909 -121 c 128,-1,20
 840 -201 840 -201 764 -265 c 128,-1,21
 688 -329 688 -329 607.5 -377.5 c 128,-1,22
 527 -426 527 -426 448 -458.5 c 128,-1,23
 369 -491 369 -491 295 -507.5 c 128,-1,24
 221 -524 221 -524 157 -524 c 0,25,26
 124 -524 124 -524 102.5 -519.5 c 128,-1,27
 81 -515 81 -515 68 -507.5 c 128,-1,28
 55 -500 55 -500 49.5 -491 c 128,-1,29
 44 -482 44 -482 44 -473 c 0,30,31
 44 -457 44 -457 55 -445.5 c 128,-1,32
 66 -434 66 -434 78 -434 c 0,33,34
 138 -434 138 -434 205.5 -412 c 128,-1,35
 273 -390 273 -390 342 -350 c 128,-1,36
 411 -310 411 -310 479 -254.5 c 128,-1,37
 547 -199 547 -199 608.5 -131.5 c 128,-1,38
 670 -64 670 -64 722 13 c 128,-1,39
 774 90 774 90 812 172 c 1,40,41
 791 194 791 194 791 215 c 0,42,43
 791 232 791 232 806 250.5 c 128,-1,44
 821 269 821 269 856 289 c 2,45,-1
 861 292 l 1,46,47
 876 329 876 329 900.5 385.5 c 128,-1,48
 925 442 925 442 955 511 c 128,-1,49
 985 580 985 580 1020 657.5 c 128,-1,50
 1055 735 1055 735 1091 813 c 1,51,52
 1039 810 1039 810 986 806.5 c 128,-1,53
 933 803 933 803 878 799 c 1,54,55
 854 698 854 698 806.5 624.5 c 128,-1,56
 759 551 759 551 697.5 503.5 c 128,-1,57
 636 456 636 456 565 433 c 128,-1,58
 494 410 494 410 422 410 c 0,59,60
 341 410 341 410 265 437.5 c 128,-1,61
 189 465 189 465 130 518 c 128,-1,62
 71 571 71 571 35.5 648 c 128,-1,63
 0 725 0 725 0 823 c 0,64,65
 0 1011 0 1011 51.5 1153.5 c 128,-1,66
 103 1296 103 1296 195 1399 c 128,-1,67
 287 1502 287 1502 414 1570 c 128,-1,68
 541 1638 541 1638 692 1678.5 c 128,-1,69
 843 1719 843 1719 1013 1735.5 c 128,-1,70
 1183 1752 1183 1752 1360 1752 c 0,71,72
 1445 1752 1445 1752 1527 1749 c 128,-1,73
 1609 1746 1609 1746 1694 1741 c 1,74,75
 1713 1747 1713 1747 1732 1747 c 0,76,77
 1753 1747 1753 1747 1769.5 1743 c 128,-1,78
 1786 1739 1786 1739 1797 1733 c 1,79,80
 1972 1719 1972 1719 2140 1699.5 c 128,-1,81
 2308 1680 2308 1680 2457 1662.5 c 128,-1,82
 2606 1645 2606 1645 2730.5 1632.5 c 128,-1,83
 2855 1620 2855 1620 2944 1620 c 0,84,85
 3055 1620 3055 1620 3153.5 1630 c 128,-1,86
 3252 1640 3252 1640 3338.5 1656.5 c 128,-1,87
 3425 1673 3425 1673 3498 1694.5 c 128,-1,88
 3571 1716 3571 1716 3631 1739 c 0,89,90
 3701 1765 3701 1765 3761 1794 c 128,-1,91
 3821 1823 3821 1823 3873 1858 c 1,92,-1
 3961 1792 l 1,93,94
 3881 1704 3881 1704 3785.5 1645 c 128,-1,95
 3690 1586 3690 1586 3582 1550 c 128,-1,96
 3474 1514 3474 1514 3355 1499 c 128,-1,97
 3236 1484 3236 1484 3110 1484 c 0,98,99
 2950 1484 2950 1484 2782 1503.5 c 128,-1,100
 2614 1523 2614 1523 2443.5 1550.5 c 128,-1,101
 2273 1578 2273 1578 2105 1609 c 128,-1,102
 1937 1640 1937 1640 1777 1663 c 1,103,104
 1744 1631 1744 1631 1697 1583 c 128,-1,105
 1650 1535 1650 1535 1602.5 1480.5 c 128,-1,106
 1555 1426 1555 1426 1514.5 1369 c 128,-1,107
 1474 1312 1474 1312 1453 1262 c 0,108,109
 1419 1181 1419 1181 1387.5 1087.5 c 128,-1,110
 1356 994 1356 994 1326 891 c 1,111,112
 1473 891 1473 891 1624 892 c 128,-1,113
 1775 893 1775 893 1917.5 894 c 128,-1,114
 2060 895 2060 895 2187.5 896.5 c 128,-1,115
 2315 898 2315 898 2415.5 899 c 128,-1,116
 2516 900 2516 900 2583 901 c 128,-1,117
 2650 902 2650 902 2671 902 c 0,118,119
 2713 902 2713 902 2738 895 c 128,-1,120
 2763 888 2763 888 2774 881 c 1,121,122
 2780 855 2780 855 2780 843 c 0,123,124
 2780 829 2780 829 2774 824.5 c 128,-1,125
 2768 820 2768 820 2757 820 c 0,126,127
 2744 820 2744 820 2724.5 823 c 128,-1,128
 2705 826 2705 826 2679 826 c 0,129,130
 2547 826 2547 826 2427.5 826.5 c 128,-1,131
 2308 827 2308 827 2198.5 828 c 128,-1,132
 2089 829 2089 829 1988 829.5 c 128,-1,133
 1887 830 1887 830 1791 830 c 0,134,135
 1664 830 1664 830 1545.5 828.5 c 128,-1,136
 1427 827 1427 827 1306 823 c 1,137,138
 1280 736 1280 736 1254 648.5 c 128,-1,139
 1228 561 1228 561 1202.5 479.5 c 128,-1,140
 1177 398 1177 398 1151.5 324 c 128,-1,141
 1126 250 1126 250 1100 189 c 1,142,143
 1126 168 1126 168 1158 159 c 128,-1,144
 1190 150 1190 150 1227 150 c 0,145,146
 1271 150 1271 150 1320.5 161.5 c 128,-1,147
 1370 173 1370 173 1420.5 191 c 128,-1,148
 1471 209 1471 209 1521 232.5 c 128,-1,149
 1571 256 1571 256 1616 280 c 0,150,151
 1670 309 1670 309 1721.5 341.5 c 128,-1,152
 1773 374 1773 374 1827 411 c 1,0,1
1326 1325 m 2,153,154
 1331 1334 1331 1334 1344 1356.5 c 128,-1,155
 1357 1379 1357 1379 1376.5 1410 c 128,-1,156
 1396 1441 1396 1441 1421 1477.5 c 128,-1,157
 1446 1514 1446 1514 1475 1551.5 c 128,-1,158
 1504 1589 1504 1589 1535.5 1623.5 c 128,-1,159
 1567 1658 1567 1658 1600 1685 c 1,160,161
 1534 1692 1534 1692 1470.5 1696 c 128,-1,162
 1407 1700 1407 1700 1346 1700 c 0,163,164
 1185 1700 1185 1700 1033 1684 c 128,-1,165
 881 1668 881 1668 747 1629.5 c 128,-1,166
 613 1591 613 1591 500.5 1527 c 128,-1,167
 388 1463 388 1463 307 1366.5 c 128,-1,168
 226 1270 226 1270 181 1137.5 c 128,-1,169
 136 1005 136 1005 136 831 c 0,170,171
 136 735 136 735 156.5 667 c 128,-1,172
 177 599 177 599 212.5 556.5 c 128,-1,173
 248 514 248 514 295 494.5 c 128,-1,174
 342 475 342 475 396 475 c 0,175,176
 460 475 460 475 528.5 500 c 128,-1,177
 597 525 597 525 660 568.5 c 128,-1,178
 723 612 723 612 775.5 670.5 c 128,-1,179
 828 729 828 729 860 797 c 1,180,-1
 817 794 l 2,181,182
 811 793 811 793 805.5 793 c 128,-1,183
 800 793 800 793 795 793 c 0,184,185
 741 793 741 793 714.5 812.5 c 128,-1,186
 688 832 688 832 688 857 c 0,187,188
 688 889 688 889 728 911 c 0,189,190
 765 931 765 931 847 931 c 0,191,192
 851 931 851 931 855 931 c 0,193,194
 888 931 888 931 910.5 928 c 128,-1,195
 933 925 933 925 950.5 920.5 c 128,-1,196
 968 916 968 916 983 911 c 128,-1,197
 998 906 998 906 1017 901.5 c 128,-1,198
 1036 897 1036 897 1062 894 c 128,-1,199
 1088 891 1088 891 1127 891 c 1,200,201
 1166 978 1166 978 1202 1056.5 c 128,-1,202
 1238 1135 1238 1135 1265.5 1194.5 c 128,-1,203
 1293 1254 1293 1254 1302 1272 c 2,204,-1
 1326 1325 l 2,153,154
EndSplineSet
Validated: 1
EndChar

StartChar: G
Encoding: 71 71 41
Width: 2411
Flags: W
HStem: -1457 98<-105.741 368.449> -816 87<2271.56 2718.11> -529 104<375.787 1054.06> -207 170<598.796 1013.07> 46 104<1756.41 1948.39> 1362 69<2420.96 2717.6> 1736 107<1997.24 2497.89> 1763 20G<-993 -982> 1813 60<172.107 981.23>
VStem: -316 83<-1255.32 -1009.27> 278 180<105.223 530.052> 2735 119<1443.42 1568.31>
LayerCount: 2
Fore
SplineSet
2411 411 m 1,0,1
 2423 417 2423 417 2433 417 c 0,2,3
 2444 417 2444 417 2450 409.5 c 128,-1,4
 2456 402 2456 402 2456 391 c 0,5,6
 2456 377 2456 377 2445 359.5 c 128,-1,7
 2434 342 2434 342 2411 328 c 1,8,9
 2353 288 2353 288 2294.5 253 c 128,-1,10
 2236 218 2236 218 2175 187 c 0,11,12
 2123 160 2123 160 2065 135 c 128,-1,13
 2007 110 2007 110 1946.5 90 c 128,-1,14
 1886 70 1886 70 1824.5 58 c 128,-1,15
 1763 46 1763 46 1705 46 c 0,16,17
 1697 46 1697 46 1688.5 46 c 128,-1,18
 1680 46 1680 46 1672 47 c 1,19,20
 1613 -30 1613 -30 1572 -83 c 128,-1,21
 1531 -136 1531 -136 1500.5 -176.5 c 128,-1,22
 1470 -217 1470 -217 1446 -249 c 128,-1,23
 1422 -281 1422 -281 1396 -315.5 c 128,-1,24
 1370 -350 1370 -350 1338.5 -392 c 128,-1,25
 1307 -434 1307 -434 1262 -493 c 1,26,27
 1459 -526 1459 -526 1655 -566.5 c 128,-1,28
 1851 -607 1851 -607 2034 -643 c 128,-1,29
 2217 -679 2217 -679 2381.5 -703.5 c 128,-1,30
 2546 -728 2546 -728 2681 -729 c 0,31,32
 2706 -729 2706 -729 2718.5 -738 c 128,-1,33
 2731 -747 2731 -747 2731 -759 c 0,34,35
 2731 -779 2731 -779 2700.5 -797.5 c 128,-1,36
 2670 -816 2670 -816 2606 -816 c 1,37,38
 2466 -813 2466 -813 2300 -787 c 128,-1,39
 2134 -761 2134 -761 1952 -725.5 c 128,-1,40
 1770 -690 1770 -690 1578 -650.5 c 128,-1,41
 1386 -611 1386 -611 1195 -581 c 1,42,-1
 1173 -610 l 1,43,44
 1020 -809 1020 -809 886.5 -966 c 128,-1,45
 753 -1123 753 -1123 631.5 -1232 c 128,-1,46
 510 -1341 510 -1341 398.5 -1399 c 128,-1,47
 287 -1457 287 -1457 179 -1457 c 0,48,49
 46 -1457 46 -1457 -48 -1433.5 c 128,-1,50
 -142 -1410 -142 -1410 -201.5 -1369 c 128,-1,51
 -261 -1328 -261 -1328 -288.5 -1272.5 c 128,-1,52
 -316 -1217 -316 -1217 -316 -1153 c 0,53,54
 -316 -1077 -316 -1077 -281 -993.5 c 128,-1,55
 -246 -910 -246 -910 -184 -829 c 128,-1,56
 -122 -748 -122 -748 -37 -675 c 128,-1,57
 48 -602 48 -602 148 -546.5 c 128,-1,58
 248 -491 248 -491 358.5 -458 c 128,-1,59
 469 -425 469 -425 583 -425 c 0,60,61
 714 -425 714 -425 848 -437.5 c 128,-1,62
 982 -450 982 -450 1125 -471 c 1,63,64
 1157 -429 1157 -429 1180 -399 c 128,-1,65
 1203 -369 1203 -369 1225.5 -340.5 c 128,-1,66
 1248 -312 1248 -312 1274 -280 c 128,-1,67
 1300 -248 1300 -248 1338 -201.5 c 128,-1,68
 1376 -155 1376 -155 1429.5 -89.5 c 128,-1,69
 1483 -24 1483 -24 1561 71 c 1,70,71
 1542 79 1542 79 1524.5 87.5 c 128,-1,72
 1507 96 1507 96 1491 106 c 1,73,74
 1381 23 1381 23 1280 -36.5 c 128,-1,75
 1179 -96 1179 -96 1088 -134 c 128,-1,76
 997 -172 997 -172 915.5 -189.5 c 128,-1,77
 834 -207 834 -207 763 -207 c 0,78,79
 646 -207 646 -207 555.5 -164 c 128,-1,80
 465 -121 465 -121 403.5 -45 c 128,-1,81
 342 31 342 31 310 133.5 c 128,-1,82
 278 236 278 236 278 356 c 0,83,84
 278 466 278 466 304.5 584 c 128,-1,85
 331 702 331 702 391 821.5 c 128,-1,86
 451 941 451 941 549.5 1059 c 128,-1,87
 648 1177 648 1177 791.5 1287.5 c 128,-1,88
 935 1398 935 1398 1128 1498 c 128,-1,89
 1321 1598 1321 1598 1571 1682 c 1,90,91
 1493 1718 1493 1718 1389 1743 c 128,-1,92
 1285 1768 1285 1768 1158 1783.5 c 128,-1,93
 1031 1799 1031 1799 882.5 1806 c 128,-1,94
 734 1813 734 1813 567 1813 c 0,95,96
 233 1813 233 1813 -161.5 1792 c 128,-1,97
 -556 1771 -556 1771 -1000 1740 c 1,98,99
 -995 1744 -995 1744 -993.5 1747.5 c 128,-1,100
 -992 1751 -992 1751 -992 1753 c 0,101,102
 -992 1758 -992 1758 -994.5 1762.5 c 128,-1,103
 -997 1767 -997 1767 -997 1770 c 0,104,105
 -997 1775 -997 1775 -989 1783 c 1,106,107
 -975 1783 -975 1783 -962.5 1782.5 c 128,-1,108
 -950 1782 -950 1782 -936 1782 c 0,109,110
 -847 1782 -847 1782 -741.5 1788.5 c 128,-1,111
 -636 1795 -636 1795 -517.5 1805.5 c 128,-1,112
 -399 1816 -399 1816 -268.5 1827.5 c 128,-1,113
 -138 1839 -138 1839 1 1849.5 c 128,-1,114
 140 1860 140 1860 286 1866.5 c 128,-1,115
 432 1873 432 1873 582 1873 c 0,116,117
 854 1873 854 1873 1125.5 1844.5 c 128,-1,118
 1397 1816 1397 1816 1663 1738 c 1,119,120
 1801 1789 1801 1789 1920.5 1816 c 128,-1,121
 2040 1843 2040 1843 2152 1843 c 0,122,123
 2333 1843 2333 1843 2465 1813.5 c 128,-1,124
 2597 1784 2597 1784 2683.5 1737.5 c 128,-1,125
 2770 1691 2770 1691 2812 1635 c 128,-1,126
 2854 1579 2854 1579 2854 1527 c 0,127,128
 2854 1493 2854 1493 2836.5 1463 c 128,-1,129
 2819 1433 2819 1433 2785.5 1410.5 c 128,-1,130
 2752 1388 2752 1388 2701.5 1375 c 128,-1,131
 2651 1362 2651 1362 2585 1362 c 0,132,133
 2534 1362 2534 1362 2473 1372.5 c 128,-1,134
 2412 1383 2412 1383 2347 1400 c 128,-1,135
 2282 1417 2282 1417 2216.5 1439 c 128,-1,136
 2151 1461 2151 1461 2091 1484 c 0,137,138
 2019 1511 2019 1511 1947.5 1541.5 c 128,-1,139
 1876 1572 1876 1572 1803 1606 c 1,140,141
 1571 1518 1571 1518 1381.5 1413.5 c 128,-1,142
 1192 1309 1192 1309 1042.5 1195.5 c 128,-1,143
 893 1082 893 1082 783 963.5 c 128,-1,144
 673 845 673 845 601 729 c 128,-1,145
 529 613 529 613 493.5 503.5 c 128,-1,146
 458 394 458 394 458 299 c 0,147,148
 458 224 458 224 477.5 162.5 c 128,-1,149
 497 101 497 101 537.5 56.5 c 128,-1,150
 578 12 578 12 640 -12.5 c 128,-1,151
 702 -37 702 -37 786 -37 c 0,152,153
 899 -37 899 -37 1050.5 11.5 c 128,-1,154
 1202 60 1202 60 1397 170 c 1,155,156
 1374 193 1374 193 1374 216 c 0,157,158
 1374 228 1374 228 1387 245 c 128,-1,159
 1400 262 1400 262 1421.5 277.5 c 128,-1,160
 1443 293 1443 293 1470 304.5 c 128,-1,161
 1497 316 1497 316 1525 316 c 0,162,163
 1559 316 1559 316 1594 290 c 1,164,165
 1694 356 1694 356 1802 435.5 c 128,-1,166
 1910 515 1910 515 2031 612 c 1,167,-1
 2027 498 l 1,168,-1
 1756 155 l 1,169,170
 1769 152 1769 152 1782 151 c 128,-1,171
 1795 150 1795 150 1809 150 c 0,172,173
 1854 150 1854 150 1903.5 161 c 128,-1,174
 1953 172 1953 172 2003.5 190.5 c 128,-1,175
 2054 209 2054 209 2104 232.5 c 128,-1,176
 2154 256 2154 256 2199 280 c 0,177,178
 2253 309 2253 309 2305 341.5 c 128,-1,179
 2357 374 2357 374 2411 411 c 1,0,1
1058 -561 m 1,180,181
 946 -546 946 -546 838.5 -537.5 c 128,-1,182
 731 -529 731 -529 625 -529 c 0,183,184
 529 -529 529 -529 428.5 -557.5 c 128,-1,185
 328 -586 328 -586 232.5 -634.5 c 128,-1,186
 137 -683 137 -683 52.5 -746 c 128,-1,187
 -32 -809 -32 -809 -95.5 -877.5 c 128,-1,188
 -159 -946 -159 -946 -196 -1016 c 128,-1,189
 -233 -1086 -233 -1086 -233 -1147 c 0,190,191
 -233 -1193 -233 -1193 -210 -1231.5 c 128,-1,192
 -187 -1270 -187 -1270 -137.5 -1298.5 c 128,-1,193
 -88 -1327 -88 -1327 -9 -1343 c 128,-1,194
 70 -1359 70 -1359 183 -1359 c 0,195,196
 274 -1359 274 -1359 361.5 -1318 c 128,-1,197
 449 -1277 449 -1277 530 -1210.5 c 128,-1,198
 611 -1144 611 -1144 685 -1060 c 128,-1,199
 759 -976 759 -976 823.5 -891 c 128,-1,200
 888 -806 888 -806 942 -727 c 128,-1,201
 996 -648 996 -648 1037 -591 c 2,202,-1
 1058 -561 l 1,180,181
2617 1431 m 0,203,204
 2680 1431 2680 1431 2707.5 1446.5 c 128,-1,205
 2735 1462 2735 1462 2735 1488 c 0,206,207
 2735 1510 2735 1510 2716.5 1537 c 128,-1,208
 2698 1564 2698 1564 2666 1591.5 c 128,-1,209
 2634 1619 2634 1619 2591 1645 c 128,-1,210
 2548 1671 2548 1671 2498.5 1691 c 128,-1,211
 2449 1711 2449 1711 2395.5 1723.5 c 128,-1,212
 2342 1736 2342 1736 2290 1736 c 0,213,214
 2237 1736 2237 1736 2189 1731.5 c 128,-1,215
 2141 1727 2141 1727 2095 1717.5 c 128,-1,216
 2049 1708 2049 1708 2003.5 1693.5 c 128,-1,217
 1958 1679 1958 1679 1910 1660 c 1,218,219
 1932 1651 1932 1651 1978.5 1630.5 c 128,-1,220
 2025 1610 2025 1610 2086.5 1584.5 c 128,-1,221
 2148 1559 2148 1559 2219.5 1532 c 128,-1,222
 2291 1505 2291 1505 2362 1482.5 c 128,-1,223
 2433 1460 2433 1460 2499.5 1445.5 c 128,-1,224
 2566 1431 2566 1431 2617 1431 c 0,203,204
1853 426 m 1,225,226
 1799 372 1799 372 1747.5 324.5 c 128,-1,227
 1696 277 1696 277 1645 232 c 1,228,-1
 1651 224 l 2,229,230
 1655 219 1655 219 1659 213.5 c 128,-1,231
 1663 208 1663 208 1668 203 c 1,232,-1
 1853 426 l 1,225,226
EndSplineSet
Validated: 1
EndChar

StartChar: H
Encoding: 72 72 42
Width: 2324
Flags: W
HStem: -585 68<2167.73 2712.4> -460 108<-343.333 -72.408> 6 144<1632.01 1809.31> 15 61<1971 2101.02> 45 105<1592.22 1639> 1796 21G<2379 2382>
VStem: -479 117<-338.934 -205.396> 945 78<2013.99 2201.59> 1355 219<291.438 603.044> 2463 45<1987.07 2102.96> 2845 191<-440.748 -293.576>
LayerCount: 2
Fore
SplineSet
1375 124 m 2,0,1
 1375 146 1375 146 1361.5 159 c 128,-1,2
 1348 172 1348 172 1331.5 180.5 c 128,-1,3
 1315 189 1315 189 1301.5 196.5 c 128,-1,4
 1288 204 1288 204 1288 216 c 0,5,6
 1288 233 1288 233 1303 251 c 128,-1,7
 1318 269 1318 269 1353 289 c 0,8,9
 1354 289 1354 289 1356 291 c 1,10,11
 1355 305 1355 305 1355 319.5 c 128,-1,12
 1355 334 1355 334 1355 348 c 0,13,14
 1355 540 1355 540 1401.5 739.5 c 128,-1,15
 1448 939 1448 939 1526 1137 c 1,16,17
 1423 1066 1423 1066 1310 983 c 128,-1,18
 1197 900 1197 900 1081 816 c 128,-1,19
 965 732 965 732 849 653.5 c 128,-1,20
 733 575 733 575 624 513 c 1,21,22
 557 301 557 301 482 146.5 c 128,-1,23
 407 -8 407 -8 328.5 -116 c 128,-1,24
 250 -224 250 -224 169.5 -291.5 c 128,-1,25
 89 -359 89 -359 12 -396.5 c 128,-1,26
 -65 -434 -65 -434 -136.5 -447 c 128,-1,27
 -208 -460 -208 -460 -270 -460 c 0,28,29
 -379 -460 -379 -460 -429 -429 c 128,-1,30
 -479 -398 -479 -398 -479 -338 c 0,31,32
 -479 -274 -479 -274 -421.5 -183.5 c 128,-1,33
 -364 -93 -364 -93 -255.5 16.5 c 128,-1,34
 -147 126 -147 126 8.5 250 c 128,-1,35
 164 374 164 374 360 504 c 1,36,37
 423 643 423 643 486.5 797 c 128,-1,38
 550 951 550 951 609 1108 c 128,-1,39
 668 1265 668 1265 721.5 1419 c 128,-1,40
 775 1573 775 1573 819 1713 c 128,-1,41
 863 1853 863 1853 895.5 1973.5 c 128,-1,42
 928 2094 928 2094 945 2183 c 1,43,44
 952 2199 952 2199 963 2207 c 128,-1,45
 974 2215 974 2215 986 2215 c 0,46,47
 1005 2215 1005 2215 1014 2202 c 128,-1,48
 1023 2189 1023 2189 1023 2169 c 2,49,-1
 1023 2162 l 1,50,51
 1004 2080 1004 2080 982 1975 c 128,-1,52
 960 1870 960 1870 934.5 1750.5 c 128,-1,53
 909 1631 909 1631 881 1500.5 c 128,-1,54
 853 1370 853 1370 821.5 1235 c 128,-1,55
 790 1100 790 1100 755.5 965 c 128,-1,56
 721 830 721 830 684 703 c 1,57,58
 798 760 798 760 913.5 833.5 c 128,-1,59
 1029 907 1029 907 1144 985 c 128,-1,60
 1259 1063 1259 1063 1370.5 1140 c 128,-1,61
 1482 1217 1482 1217 1588 1282 c 1,62,63
 1645 1406 1645 1406 1710.5 1521.5 c 128,-1,64
 1776 1637 1776 1637 1845 1737.5 c 128,-1,65
 1914 1838 1914 1838 1984.5 1920.5 c 128,-1,66
 2055 2003 2055 2003 2122.5 2061.5 c 128,-1,67
 2190 2120 2190 2120 2251.5 2152.5 c 128,-1,68
 2313 2185 2313 2185 2365 2185 c 0,69,70
 2405 2185 2405 2185 2432.5 2176.5 c 128,-1,71
 2460 2168 2460 2168 2477 2153.5 c 128,-1,72
 2494 2139 2494 2139 2501 2119 c 128,-1,73
 2508 2099 2508 2099 2508 2077 c 0,74,75
 2508 2038 2508 2038 2491.5 1993 c 128,-1,76
 2475 1948 2475 1948 2453 1907.5 c 128,-1,77
 2431 1867 2431 1867 2409 1836.5 c 128,-1,78
 2387 1806 2387 1806 2377 1796 c 1,79,-1
 2379 1800 l 1,80,81
 2373 1798 2373 1798 2340.5 1774.5 c 128,-1,82
 2308 1751 2308 1751 2253.5 1709.5 c 128,-1,83
 2199 1668 2199 1668 2125.5 1611.5 c 128,-1,84
 2052 1555 2052 1555 1964 1486 c 1,85,86
 1890 1345 1890 1345 1820 1188 c 128,-1,87
 1750 1031 1750 1031 1695 869.5 c 128,-1,88
 1640 708 1640 708 1607 548 c 128,-1,89
 1574 388 1574 388 1574 242 c 2,90,-1
 1574 211 l 1,91,92
 1603 176 1603 176 1642.5 163 c 128,-1,93
 1682 150 1682 150 1731 150 c 0,94,95
 1750 150 1750 150 1769 153 c 128,-1,96
 1788 156 1788 156 1810 170 c 1,97,-1
 1835 165 l 1,98,99
 1901 182 1901 182 1964.5 207.5 c 128,-1,100
 2028 233 2028 233 2088.5 265 c 128,-1,101
 2149 297 2149 297 2208 334 c 128,-1,102
 2267 371 2267 371 2324 411 c 1,103,104
 2336 417 2336 417 2346 417 c 0,105,106
 2357 417 2357 417 2363 409.5 c 128,-1,107
 2369 402 2369 402 2369 391 c 0,108,109
 2369 377 2369 377 2358 359.5 c 128,-1,110
 2347 342 2347 342 2324 328 c 1,111,112
 2234 265 2234 265 2145.5 215.5 c 128,-1,113
 2057 166 2057 166 1954 123 c 1,114,115
 1967 112 1967 112 1969 99.5 c 128,-1,116
 1971 87 1971 87 1971 76 c 1,117,118
 2124 76 2124 76 2262 58.5 c 128,-1,119
 2400 41 2400 41 2518.5 10.5 c 128,-1,120
 2637 -20 2637 -20 2732.5 -60 c 128,-1,121
 2828 -100 2828 -100 2895.5 -146 c 128,-1,122
 2963 -192 2963 -192 2999.5 -241 c 128,-1,123
 3036 -290 3036 -290 3036 -337 c 0,124,125
 3036 -399 3036 -399 2993.5 -445 c 128,-1,126
 2951 -491 2951 -491 2878 -522.5 c 128,-1,127
 2805 -554 2805 -554 2706.5 -569.5 c 128,-1,128
 2608 -585 2608 -585 2496 -585 c 0,129,130
 2375 -585 2375 -585 2244.5 -566.5 c 128,-1,131
 2114 -548 2114 -548 1989.5 -510 c 128,-1,132
 1865 -472 1865 -472 1753.5 -415.5 c 128,-1,133
 1642 -359 1642 -359 1558 -282 c 128,-1,134
 1474 -205 1474 -205 1424.5 -108.5 c 128,-1,135
 1375 -12 1375 -12 1375 105 c 2,136,-1
 1375 124 l 2,0,1
1618 45 m 2,137,138
 1611 45 1611 45 1605 45 c 128,-1,139
 1599 45 1599 45 1592 46 c 1,140,141
 1603 -56 1603 -56 1647 -137.5 c 128,-1,142
 1691 -219 1691 -219 1757.5 -281.5 c 128,-1,143
 1824 -344 1824 -344 1909 -388.5 c 128,-1,144
 1994 -433 1994 -433 2086.5 -461.5 c 128,-1,145
 2179 -490 2179 -490 2274 -503.5 c 128,-1,146
 2369 -517 2369 -517 2457 -517 c 0,147,148
 2538 -517 2538 -517 2609 -506.5 c 128,-1,149
 2680 -496 2680 -496 2732.5 -476.5 c 128,-1,150
 2785 -457 2785 -457 2815 -429 c 128,-1,151
 2845 -401 2845 -401 2845 -366 c 0,152,153
 2845 -339 2845 -339 2816 -308.5 c 128,-1,154
 2787 -278 2787 -278 2736.5 -246 c 128,-1,155
 2686 -214 2686 -214 2618 -182.5 c 128,-1,156
 2550 -151 2550 -151 2472.5 -122 c 128,-1,157
 2395 -93 2395 -93 2311 -68 c 128,-1,158
 2227 -43 2227 -43 2144.5 -24.5 c 128,-1,159
 2062 -6 2062 -6 1984.5 4.5 c 128,-1,160
 1907 15 1907 15 1843 15 c 0,161,162
 1780 15 1780 15 1739.5 10.5 c 128,-1,163
 1699 6 1699 6 1690 6 c 0,164,165
 1632 6 1632 6 1632 29 c 0,166,167
 1632 38 1632 38 1639 45 c 1,168,-1
 1618 45 l 2,137,138
239 251 m 1,169,170
 167 197 167 197 94.5 143 c 128,-1,171
 22 89 22 89 -44.5 37.5 c 128,-1,172
 -111 -14 -111 -14 -169 -62.5 c 128,-1,173
 -227 -111 -227 -111 -270 -153.5 c 128,-1,174
 -313 -196 -313 -196 -337.5 -231.5 c 128,-1,175
 -362 -267 -362 -267 -362 -293 c 0,176,177
 -362 -322 -362 -322 -328.5 -337 c 128,-1,178
 -295 -352 -295 -352 -217 -352 c 0,179,180
 -163 -352 -163 -352 -122 -335.5 c 128,-1,181
 -81 -319 -81 -319 -46 -285.5 c 128,-1,182
 -11 -252 -11 -252 19.5 -202 c 128,-1,183
 50 -152 50 -152 83 -85 c 128,-1,184
 116 -18 116 -18 153.5 66 c 128,-1,185
 191 150 191 150 239 251 c 1,169,170
2365 2105 m 0,186,187
 2352 2098 2352 2098 2320 2058.5 c 128,-1,188
 2288 2019 2288 2019 2243 1953.5 c 128,-1,189
 2198 1888 2198 1888 2143 1799.5 c 128,-1,190
 2088 1711 2088 1711 2029 1606 c 1,191,192
 2126 1680 2126 1680 2206 1746 c 128,-1,193
 2286 1812 2286 1812 2343 1869 c 128,-1,194
 2400 1926 2400 1926 2431.5 1972.5 c 128,-1,195
 2463 2019 2463 2019 2463 2054 c 0,196,197
 2463 2109 2463 2109 2385 2130 c 1,198,-1
 2375 2118 l 2,199,200
 2371 2113 2371 2113 2368 2109.5 c 128,-1,201
 2365 2106 2365 2106 2365 2105 c 0,186,187
EndSplineSet
Validated: 1
EndChar

StartChar: I
Encoding: 73 73 43
Width: 2103
Flags: W
HStem: -323 76<249.671 714.161> 57 54<1308.95 1546.46> 940 43<917 1157.36> 1625 20G<1671 1694.5>
VStem: 0 66<-73.2697 232.875> 824 89<634.82 908.936>
LayerCount: 2
Fore
SplineSet
2103 411 m 1,0,1
 2115 417 2115 417 2125 417 c 0,2,3
 2136 417 2136 417 2142 409.5 c 128,-1,4
 2148 402 2148 402 2148 391 c 0,5,6
 2148 376 2148 376 2137 359.5 c 128,-1,7
 2126 343 2126 343 2103 328 c 0,8,9
 2046 290 2046 290 1989 256 c 128,-1,10
 1932 222 1932 222 1872 192 c 0,11,12
 1822 166 1822 166 1766 141.5 c 128,-1,13
 1710 117 1710 117 1652 98.5 c 128,-1,14
 1594 80 1594 80 1535.5 68.5 c 128,-1,15
 1477 57 1477 57 1423 57 c 0,16,17
 1375 57 1375 57 1332.5 66.5 c 128,-1,18
 1290 76 1290 76 1252 99 c 1,19,20
 1191 2 1191 2 1114.5 -76 c 128,-1,21
 1038 -154 1038 -154 939.5 -209 c 128,-1,22
 841 -264 841 -264 718 -293.5 c 128,-1,23
 595 -323 595 -323 441 -323 c 0,24,25
 330 -323 330 -323 247 -294 c 128,-1,26
 164 -265 164 -265 109 -214.5 c 128,-1,27
 54 -164 54 -164 27 -96.5 c 128,-1,28
 0 -29 0 -29 0 48 c 0,29,30
 0 131 0 131 28.5 221.5 c 128,-1,31
 57 312 57 312 109.5 402 c 128,-1,32
 162 492 162 492 236 577.5 c 128,-1,33
 310 663 310 663 401.5 735.5 c 128,-1,34
 493 808 493 808 600 864 c 128,-1,35
 707 920 707 920 825 951 c 1,36,37
 831 1077 831 1077 880 1194.5 c 128,-1,38
 929 1312 929 1312 1029.5 1406 c 128,-1,39
 1130 1500 1130 1500 1287 1563 c 128,-1,40
 1444 1626 1444 1626 1667 1644 c 0,41,42
 1668 1644 1668 1644 1669 1644.5 c 128,-1,43
 1670 1645 1670 1645 1672 1645 c 0,44,45
 1717 1645 1717 1645 1737 1629.5 c 128,-1,46
 1757 1614 1757 1614 1757 1579 c 0,47,48
 1757 1539 1757 1539 1737 1470.5 c 128,-1,49
 1717 1402 1717 1402 1682 1293 c 0,50,51
 1640 1164 1640 1164 1605 1045 c 128,-1,52
 1570 926 1570 926 1535 808 c 1,53,54
 1573 772 1573 772 1606.5 725.5 c 128,-1,55
 1640 679 1640 679 1665.5 620.5 c 128,-1,56
 1691 562 1691 562 1708 490 c 128,-1,57
 1725 418 1725 418 1730 332 c 1,58,59
 1733 323 1733 323 1733 315 c 0,60,61
 1733 304 1733 304 1726.5 294.5 c 128,-1,62
 1720 285 1720 285 1709 285 c 0,63,64
 1697 285 1697 285 1693 293 c 128,-1,65
 1689 301 1689 301 1683 314 c 0,66,67
 1641 396 1641 396 1591.5 481.5 c 128,-1,68
 1542 567 1542 567 1485 646 c 1,69,70
 1442 507 1442 507 1395 386.5 c 128,-1,71
 1348 266 1348 266 1288 160 c 1,72,73
 1321 111 1321 111 1400 111 c 0,74,75
 1443 111 1443 111 1496.5 124 c 128,-1,76
 1550 137 1550 137 1607.5 158 c 128,-1,77
 1665 179 1665 179 1724 206 c 128,-1,78
 1783 233 1783 233 1838 261 c 0,79,80
 1904 294 1904 294 1969 331.5 c 128,-1,81
 2034 369 2034 369 2103 411 c 1,0,1
973 -39 m 0,82,83
 1004 -3 1004 -3 1034 68 c 128,-1,84
 1064 139 1064 139 1099 232 c 1,85,86
 1037 299 1037 299 986.5 378.5 c 128,-1,87
 936 458 936 458 900 545.5 c 128,-1,88
 864 633 864 633 844 725 c 128,-1,89
 824 817 824 817 824 909 c 1,90,91
 724 880 724 880 629 827 c 128,-1,92
 534 774 534 774 450 705 c 128,-1,93
 366 636 366 636 295.5 555 c 128,-1,94
 225 474 225 474 174 390 c 128,-1,95
 123 306 123 306 94.5 222.5 c 128,-1,96
 66 139 66 139 66 64 c 0,97,98
 66 2 66 2 89.5 -54.5 c 128,-1,99
 113 -111 113 -111 161 -154 c 128,-1,100
 209 -197 209 -197 283 -222 c 128,-1,101
 357 -247 357 -247 459 -247 c 0,102,103
 621 -247 621 -247 751.5 -196 c 128,-1,104
 882 -145 882 -145 973 -39 c 0,82,83
1070 983 m 0,105,106
 1090 983 1090 983 1119.5 981 c 128,-1,107
 1149 979 1149 979 1184.5 973.5 c 128,-1,108
 1220 968 1220 968 1260 958 c 128,-1,109
 1300 948 1300 948 1342 931 c 1,110,111
 1381 1044 1381 1044 1418.5 1150.5 c 128,-1,112
 1456 1257 1456 1257 1491.5 1346.5 c 128,-1,113
 1527 1436 1527 1436 1559.5 1504 c 128,-1,114
 1592 1572 1592 1572 1621 1608 c 1,115,116
 1477 1607 1477 1607 1355 1556 c 128,-1,117
 1233 1505 1233 1505 1140.5 1418 c 128,-1,118
 1048 1331 1048 1331 990 1215.5 c 128,-1,119
 932 1100 932 1100 917 970 c 1,120,121
 955 976 955 976 993 979.5 c 128,-1,122
 1031 983 1031 983 1070 983 c 0,105,106
1137 334 m 1,123,124
 1179 449 1179 449 1221.5 575.5 c 128,-1,125
 1264 702 1264 702 1309 835 c 1,126,127
 1246 883 1246 883 1177 911.5 c 128,-1,128
 1108 940 1108 940 1027 940 c 0,129,130
 997 940 997 940 968.5 937.5 c 128,-1,131
 940 935 940 935 914 930 c 1,132,133
 913 919 913 919 913 907.5 c 128,-1,134
 913 896 913 896 913 884 c 0,135,136
 913 745 913 745 966 604 c 128,-1,137
 1019 463 1019 463 1137 334 c 1,123,124
EndSplineSet
Validated: 1
EndChar

StartChar: J
Encoding: 74 74 44
Width: 1581
Flags: W
HStem: -524 90<269.766 593.426> -142 122<644 776.062> 164 147<193.315 428.5> 1667.5 132.5<1433.71 1901 2029 2090 2154 3358.4 3361.59 3562.31> 1677.5 101.5<1007.47 1845.49 3039.8 3877.52> 1690 67<3472.5 3948.69> 1889 20G<4014 4035.5>
VStem: 0 82<-246.082 69.4008> 620 151<1566.72 1633.51> 2090 72<1520.54 1675.59> 3968 114<1770.8 1895.07>
LayerCount: 2
Fore
SplineSet
1581 411 m 1,0,1
 1593 417 1593 417 1603 417 c 0,2,3
 1614 417 1614 417 1620 409.5 c 128,-1,4
 1626 402 1626 402 1626 391 c 0,5,6
 1626 376 1626 376 1615 359.5 c 128,-1,7
 1604 343 1604 343 1581 328 c 2,8,-1
 1506 278 l 2,9,10
 1471 255 1471 255 1422.5 224.5 c 128,-1,11
 1374 194 1374 194 1314 159 c 1,12,-1
 1314 158 l 1,13,14
 1237 -10 1237 -10 1137 -137.5 c 128,-1,15
 1037 -265 1037 -265 926.5 -351 c 128,-1,16
 816 -437 816 -437 702 -480.5 c 128,-1,17
 588 -524 588 -524 483 -524 c 0,18,19
 366 -524 366 -524 276 -482.5 c 128,-1,20
 186 -441 186 -441 124.5 -375 c 128,-1,21
 63 -309 63 -309 31.5 -226 c 128,-1,22
 0 -143 0 -143 0 -59 c 0,23,24
 0 13 0 13 24 80 c 128,-1,25
 48 147 48 147 98 198 c 128,-1,26
 148 249 148 249 223.5 280 c 128,-1,27
 299 311 299 311 403 311 c 0,28,29
 454 311 454 311 500 293 c 128,-1,30
 546 275 546 275 581 239 c 128,-1,31
 616 203 616 203 636.5 148 c 128,-1,32
 657 93 657 93 657 18 c 0,33,34
 657 -4 657 -4 644 -20 c 1,35,36
 691 -20 691 -20 747.5 -7.5 c 128,-1,37
 804 5 804 5 865.5 26.5 c 128,-1,38
 927 48 927 48 992.5 77.5 c 128,-1,39
 1058 107 1058 107 1123 140 c 1,40,41
 1136 165 1136 165 1147.5 191.5 c 128,-1,42
 1159 218 1159 218 1169 246 c 0,43,44
 1178 270 1178 270 1200 322.5 c 128,-1,45
 1222 375 1222 375 1253 446 c 128,-1,46
 1284 517 1284 517 1321 601 c 128,-1,47
 1358 685 1358 685 1397 772 c 128,-1,48
 1436 859 1436 859 1474.5 945 c 128,-1,49
 1513 1031 1513 1031 1547.5 1105 c 128,-1,50
 1582 1179 1582 1179 1609 1236.5 c 128,-1,51
 1636 1294 1636 1294 1652 1325 c 1,52,53
 1381 1369 1381 1369 1186 1409.5 c 128,-1,54
 991 1450 991 1450 865 1487 c 128,-1,55
 739 1524 739 1524 679.5 1557.5 c 128,-1,56
 620 1591 620 1591 620 1620 c 256,57,58
 620 1649 620 1649 662 1673.5 c 128,-1,59
 704 1698 704 1698 798 1718 c 128,-1,60
 892 1738 892 1738 1041.5 1753 c 128,-1,61
 1191 1768 1191 1768 1406.5 1779 c 128,-1,62
 1622 1790 1622 1790 1907 1794.5 c 128,-1,63
 2192 1799 2192 1799 2557 1800 c 0,64,65
 2863 1800 2863 1800 3090.5 1793 c 128,-1,66
 3318 1786 3318 1786 3477.5 1778 c 128,-1,67
 3637 1770 3637 1770 3734.5 1763.5 c 128,-1,68
 3832 1757 3832 1757 3879 1757 c 0,69,70
 3904 1757 3904 1757 3921.5 1759 c 128,-1,71
 3939 1761 3939 1761 3949 1770.5 c 128,-1,72
 3959 1780 3959 1780 3963.5 1800 c 128,-1,73
 3968 1820 3968 1820 3968 1855 c 0,74,75
 3968 1882 3968 1882 3985.5 1895.5 c 128,-1,76
 4003 1909 4003 1909 4025 1909 c 0,77,78
 4046 1909 4046 1909 4064 1895.5 c 128,-1,79
 4082 1882 4082 1882 4082 1855 c 0,80,81
 4082 1816 4082 1816 4079 1785.5 c 128,-1,82
 4076 1755 4076 1755 4061.5 1734 c 128,-1,83
 4047 1713 4047 1713 4017.5 1702 c 128,-1,84
 3988 1691 3988 1691 3936 1691 c 0,85,86
 3846 1691 3846 1691 3777.5 1690 c 128,-1,87
 3709 1689 3709 1689 3653.5 1687.5 c 128,-1,88
 3598 1686 3598 1686 3551 1683.5 c 128,-1,89
 3504 1681 3504 1681 3457.5 1679 c 128,-1,90
 3411 1677 3411 1677 3360 1674.5 c 128,-1,91
 3309 1672 3309 1672 3245.5 1670.5 c 128,-1,92
 3182 1669 3182 1669 3101 1668 c 128,-1,93
 3020 1667 3020 1667 2914 1667 c 0,94,95
 2851 1667 2851 1667 2767.5 1667.5 c 128,-1,96
 2684 1668 2684 1668 2586.5 1669.5 c 128,-1,97
 2489 1671 2489 1671 2379 1672.5 c 128,-1,98
 2269 1674 2269 1674 2154 1676 c 1,99,100
 2159 1663 2159 1663 2160.5 1649.5 c 128,-1,101
 2162 1636 2162 1636 2162 1622 c 0,102,103
 2162 1597 2162 1597 2157 1573 c 128,-1,104
 2152 1549 2152 1549 2146 1532 c 0,105,106
 2111 1439 2111 1439 2067.5 1388 c 128,-1,107
 2024 1337 2024 1337 1976 1311.5 c 128,-1,108
 1928 1286 1928 1286 1877.5 1277.5 c 128,-1,109
 1827 1269 1827 1269 1779 1262 c 1,110,111
 1759 1214 1759 1214 1730 1143 c 128,-1,112
 1701 1072 1701 1072 1666 987.5 c 128,-1,113
 1631 903 1631 903 1592.5 809 c 128,-1,114
 1554 715 1554 715 1515 621.5 c 128,-1,115
 1476 528 1476 528 1438 439.5 c 128,-1,116
 1400 351 1400 351 1367 276 c 1,117,118
 1415 304 1415 304 1453.5 329 c 128,-1,119
 1492 354 1492 354 1521 372 c 2,120,-1
 1581 411 l 1,0,1
407 -434 m 256,121,122
 483 -434 483 -434 569 -399.5 c 128,-1,123
 655 -365 655 -365 740.5 -304.5 c 128,-1,124
 826 -244 826 -244 906 -162 c 128,-1,125
 986 -80 986 -80 1051 16 c 1,126,127
 984 -17 984 -17 915.5 -46 c 128,-1,128
 847 -75 847 -75 780.5 -96 c 128,-1,129
 714 -117 714 -117 651.5 -129.5 c 128,-1,130
 589 -142 589 -142 535 -142 c 0,131,132
 483 -142 483 -142 443.5 -129.5 c 128,-1,133
 404 -117 404 -117 377.5 -98.5 c 128,-1,134
 351 -80 351 -80 337.5 -58.5 c 128,-1,135
 324 -37 324 -37 324 -18 c 0,136,137
 324 14 324 14 349 38.5 c 128,-1,138
 374 63 374 63 407 73 c 1,139,140
 401 91 401 91 395.5 107.5 c 128,-1,141
 390 124 390 124 381 136.5 c 128,-1,142
 372 149 372 149 358.5 156.5 c 128,-1,143
 345 164 345 164 323 164 c 0,144,145
 260 164 260 164 214.5 144 c 128,-1,146
 169 124 169 124 139.5 91 c 128,-1,147
 110 58 110 58 96 14 c 128,-1,148
 82 -30 82 -30 82 -78 c 0,149,150
 82 -140 82 -140 104.5 -203.5 c 128,-1,151
 127 -267 127 -267 169 -318 c 128,-1,152
 211 -369 211 -369 271 -401.5 c 128,-1,153
 331 -434 331 -434 407 -434 c 256,121,122
1677 1372 m 1,154,155
 1696 1406 1696 1406 1720 1447 c 128,-1,156
 1744 1488 1744 1488 1772.5 1529.5 c 128,-1,157
 1801 1571 1801 1571 1833 1609.5 c 128,-1,158
 1865 1648 1865 1648 1901 1678 c 1,159,160
 1847 1679 1847 1679 1794 1679 c 128,-1,161
 1741 1679 1741 1679 1687 1679 c 0,162,163
 1565 1679 1565 1679 1449.5 1677.5 c 128,-1,164
 1334 1676 1334 1676 1232.5 1673 c 128,-1,165
 1131 1670 1131 1670 1046 1664.5 c 128,-1,166
 961 1659 961 1659 900 1650.5 c 128,-1,167
 839 1642 839 1642 805 1630.5 c 128,-1,168
 771 1619 771 1619 771 1604 c 0,169,170
 771 1587 771 1587 820 1564.5 c 128,-1,171
 869 1542 869 1542 977 1513.5 c 128,-1,172
 1085 1485 1085 1485 1257.5 1449.5 c 128,-1,173
 1430 1414 1430 1414 1677 1372 c 1,154,155
2029 1677 m 1,174,-1
 1783 1313 l 1,175,176
 1787 1311 1787 1311 1790.5 1311 c 128,-1,177
 1794 1311 1794 1311 1797 1311 c 0,178,179
 1832 1311 1832 1311 1867.5 1327.5 c 128,-1,180
 1903 1344 1903 1344 1935.5 1370.5 c 128,-1,181
 1968 1397 1968 1397 1996 1431.5 c 128,-1,182
 2024 1466 2024 1466 2045 1502 c 128,-1,183
 2066 1538 2066 1538 2078 1573 c 128,-1,184
 2090 1608 2090 1608 2090 1636 c 0,185,186
 2090 1665 2090 1665 2074 1677 c 1,187,-1
 2029 1677 l 1,174,-1
EndSplineSet
Validated: 1
EndChar

StartChar: K
Encoding: 75 75 45
Width: 2495
Flags: W
HStem: -30 182<1738 1974.69> 814 109<1884.28 2173.98> 890 131<252.656 501.32> 1565 183<2194.55 2379.18> 2356 95<2562.99 3044.95>
VStem: 75 146<1052.27 1295.95> 1553 172<205.47 582.465> 1587 187<1786.64 2012.1> 2412 234<1323.56 1530.46>
LayerCount: 2
Fore
SplineSet
2495 411 m 1,0,1
 2507 417 2507 417 2517 417 c 0,2,3
 2528 417 2528 417 2534 409.5 c 128,-1,4
 2540 402 2540 402 2540 391 c 0,5,6
 2540 377 2540 377 2529 359.5 c 128,-1,7
 2518 342 2518 342 2495 328 c 1,8,-1
 2267 173 l 1,9,10
 2176 113 2176 113 2102 74 c 128,-1,11
 2028 35 2028 35 1967.5 11.5 c 128,-1,12
 1907 -12 1907 -12 1857.5 -21 c 128,-1,13
 1808 -30 1808 -30 1766 -30 c 0,14,15
 1710 -30 1710 -30 1669.5 -6.5 c 128,-1,16
 1629 17 1629 17 1603 58.5 c 128,-1,17
 1577 100 1577 100 1565 157.5 c 128,-1,18
 1553 215 1553 215 1553 283 c 0,19,20
 1553 401 1553 401 1585.5 536 c 128,-1,21
 1618 671 1618 671 1675 808 c 0,22,23
 1678 815 1678 815 1678 825 c 0,24,25
 1678 838 1678 838 1674 854 c 128,-1,26
 1670 870 1670 870 1665.5 885.5 c 128,-1,27
 1661 901 1661 901 1657 915.5 c 128,-1,28
 1653 930 1653 930 1653 939 c 0,29,30
 1653 957 1653 957 1667 974.5 c 128,-1,31
 1681 992 1681 992 1700.5 1006 c 128,-1,32
 1720 1020 1720 1020 1742 1028.5 c 128,-1,33
 1764 1037 1764 1037 1779 1037 c 0,34,35
 1796 1037 1796 1037 1817 1026.5 c 128,-1,36
 1838 1016 1838 1016 1856 996 c 0,37,38
 1881 967 1881 967 1906.5 952 c 128,-1,39
 1932 937 1932 937 1957.5 930.5 c 128,-1,40
 1983 924 1983 924 2009 923.5 c 128,-1,41
 2035 923 2035 923 2061 923 c 0,42,43
 2101 923 2101 923 2143 944.5 c 128,-1,44
 2185 966 2185 966 2224 1002.5 c 128,-1,45
 2263 1039 2263 1039 2297 1087 c 128,-1,46
 2331 1135 2331 1135 2356.5 1187.5 c 128,-1,47
 2382 1240 2382 1240 2397 1294 c 128,-1,48
 2412 1348 2412 1348 2412 1397 c 0,49,50
 2412 1487 2412 1487 2378 1526 c 128,-1,51
 2344 1565 2344 1565 2286 1565 c 0,52,53
 2240 1565 2240 1565 2181 1543.5 c 128,-1,54
 2122 1522 2122 1522 2055 1485 c 128,-1,55
 1988 1448 1988 1448 1915.5 1397.5 c 128,-1,56
 1843 1347 1843 1347 1769 1289.5 c 128,-1,57
 1695 1232 1695 1232 1622.5 1169.5 c 128,-1,58
 1550 1107 1550 1107 1483 1046 c 128,-1,59
 1416 985 1416 985 1357.5 927.5 c 128,-1,60
 1299 870 1299 870 1253.5 822 c 128,-1,61
 1208 774 1208 774 1177.5 738 c 128,-1,62
 1147 702 1147 702 1136 684 c 0,63,64
 1095 616 1095 616 1046.5 538.5 c 128,-1,65
 998 461 998 461 947.5 382 c 128,-1,66
 897 303 897 303 847.5 226.5 c 128,-1,67
 798 150 798 150 754 83 c 128,-1,68
 710 16 710 16 675 -38 c 128,-1,69
 640 -92 640 -92 619 -125 c 1,70,71
 605 -143 605 -143 592 -164 c 128,-1,72
 579 -185 579 -185 566.5 -204 c 128,-1,73
 554 -223 554 -223 542.5 -238 c 128,-1,74
 531 -253 531 -253 522 -260 c 1,75,76
 472 -284 472 -284 425 -284 c 0,77,78
 377 -284 377 -284 345 -261.5 c 128,-1,79
 313 -239 313 -239 313 -201 c 0,80,81
 313 -197 313 -197 327 -184.5 c 128,-1,82
 341 -172 341 -172 361 -154 c 128,-1,83
 381 -136 381 -136 403.5 -114 c 128,-1,84
 426 -92 426 -92 443 -68 c 0,85,86
 497 4 497 4 562 98 c 128,-1,87
 627 192 627 192 699 299 c 128,-1,88
 771 406 771 406 847.5 523.5 c 128,-1,89
 924 641 924 641 1000 761 c 128,-1,90
 1076 881 1076 881 1149 999.5 c 128,-1,91
 1222 1118 1222 1118 1287 1228.5 c 128,-1,92
 1352 1339 1352 1339 1407 1437.5 c 128,-1,93
 1462 1536 1462 1536 1502 1615 c 128,-1,94
 1542 1694 1542 1694 1564.5 1749.5 c 128,-1,95
 1587 1805 1587 1805 1587 1830 c 0,96,97
 1587 1848 1587 1848 1574 1848 c 0,98,99
 1569 1848 1569 1848 1532.5 1807 c 128,-1,100
 1496 1766 1496 1766 1435.5 1698.5 c 128,-1,101
 1375 1631 1375 1631 1295 1545 c 128,-1,102
 1215 1459 1215 1459 1122.5 1369 c 128,-1,103
 1030 1279 1030 1279 928 1193 c 128,-1,104
 826 1107 826 1107 723 1039.5 c 128,-1,105
 620 972 620 972 519 931 c 128,-1,106
 418 890 418 890 326 890 c 0,107,108
 281 890 281 890 236 909 c 128,-1,109
 191 928 191 928 155 965.5 c 128,-1,110
 119 1003 119 1003 97 1058 c 128,-1,111
 75 1113 75 1113 75 1185 c 0,112,113
 75 1264 75 1264 125 1349 c 128,-1,114
 175 1434 175 1434 265.5 1520 c 128,-1,115
 356 1606 356 1606 482.5 1692 c 128,-1,116
 609 1778 609 1778 762.5 1859.5 c 128,-1,117
 916 1941 916 1941 1092 2016.5 c 128,-1,118
 1268 2092 1268 2092 1457 2157.5 c 128,-1,119
 1646 2223 1646 2223 1843.5 2277.5 c 128,-1,120
 2041 2332 2041 2332 2237.5 2370.5 c 128,-1,121
 2434 2409 2434 2409 2625.5 2430 c 128,-1,122
 2817 2451 2817 2451 2994 2451 c 0,123,124
 3029 2451 3029 2451 3046 2436.5 c 128,-1,125
 3063 2422 3063 2422 3063 2405 c 0,126,127
 3063 2386 3063 2386 3045.5 2371 c 128,-1,128
 3028 2356 3028 2356 2994 2356 c 0,129,130
 2776 2356 2776 2356 2541 2321 c 128,-1,131
 2306 2286 2306 2286 2070 2225.5 c 128,-1,132
 1834 2165 1834 2165 1605.5 2084 c 128,-1,133
 1377 2003 1377 2003 1171.5 1910 c 128,-1,134
 966 1817 966 1817 792 1717.5 c 128,-1,135
 618 1618 618 1618 491 1521 c 128,-1,136
 364 1424 364 1424 292.5 1334 c 128,-1,137
 221 1244 221 1244 221 1171 c 0,138,139
 221 1131 221 1131 232 1102.5 c 128,-1,140
 243 1074 243 1074 261 1056 c 128,-1,141
 279 1038 279 1038 302 1029.5 c 128,-1,142
 325 1021 325 1021 349 1021 c 0,143,144
 400 1021 400 1021 466.5 1049.5 c 128,-1,145
 533 1078 533 1078 609 1126.5 c 128,-1,146
 685 1175 685 1175 767.5 1239.5 c 128,-1,147
 850 1304 850 1304 934.5 1377 c 128,-1,148
 1019 1450 1019 1450 1102 1526.5 c 128,-1,149
 1185 1603 1185 1603 1262 1676 c 128,-1,150
 1339 1749 1339 1749 1406 1813.5 c 128,-1,151
 1473 1878 1473 1878 1526 1926.5 c 128,-1,152
 1579 1975 1579 1975 1614 2003.5 c 128,-1,153
 1649 2032 1649 2032 1662 2032 c 1,154,-1
 1682 2037 l 2,155,156
 1691 2039 1691 2039 1702.5 2041 c 128,-1,157
 1714 2043 1714 2043 1726 2043 c 0,158,159
 1745 2043 1745 2043 1759.5 2035.5 c 128,-1,160
 1774 2028 1774 2028 1774 2007 c 0,161,162
 1774 1914 1774 1914 1736 1805 c 128,-1,163
 1698 1696 1698 1696 1629 1564 c 128,-1,164
 1560 1432 1560 1432 1465 1273.5 c 128,-1,165
 1370 1115 1370 1115 1256 922 c 1,166,167
 1326 998 1326 998 1415.5 1089 c 128,-1,168
 1505 1180 1505 1180 1604 1271.5 c 128,-1,169
 1703 1363 1703 1363 1807.5 1449 c 128,-1,170
 1912 1535 1912 1535 2012 1601.5 c 128,-1,171
 2112 1668 2112 1668 2204 1708 c 128,-1,172
 2296 1748 2296 1748 2370 1748 c 256,173,174
 2444 1748 2444 1748 2496.5 1730.5 c 128,-1,175
 2549 1713 2549 1713 2582 1682.5 c 128,-1,176
 2615 1652 2615 1652 2630.5 1609.5 c 128,-1,177
 2646 1567 2646 1567 2646 1518 c 0,178,179
 2646 1449 2646 1449 2619 1370 c 128,-1,180
 2592 1291 2592 1291 2545.5 1212.5 c 128,-1,181
 2499 1134 2499 1134 2435.5 1062 c 128,-1,182
 2372 990 2372 990 2299 935 c 128,-1,183
 2226 880 2226 880 2147 847 c 128,-1,184
 2068 814 2068 814 1990 814 c 0,185,186
 1971 814 1971 814 1949 817.5 c 128,-1,187
 1927 821 1927 821 1907 827 c 2,188,-1
 1860 841 l 1,189,190
 1829 783 1829 783 1804 722 c 128,-1,191
 1779 661 1779 661 1761.5 600.5 c 128,-1,192
 1744 540 1744 540 1734.5 482.5 c 128,-1,193
 1725 425 1725 425 1725 374 c 0,194,195
 1725 324 1725 324 1734.5 283.5 c 128,-1,196
 1744 243 1744 243 1764 213.5 c 128,-1,197
 1784 184 1784 184 1815 168 c 128,-1,198
 1846 152 1846 152 1889 152 c 0,199,200
 1974 152 1974 152 2050 174.5 c 128,-1,201
 2126 197 2126 197 2192.5 230 c 128,-1,202
 2259 263 2259 263 2317 300.5 c 128,-1,203
 2375 338 2375 338 2425 368 c 2,204,-1
 2495 411 l 1,0,1
EndSplineSet
Validated: 1
EndChar

StartChar: L
Encoding: 76 76 46
Width: 1807
Flags: W
HStem: -490 160<1796.01 2216.92> -324 76<327.525 684.873> 394 111<268.987 675.27> 1076 53<1397.7 1514> 1808 33<2094.17 2171.49>
VStem: 0 163<-86.7982 277.592> 2179 96<1590.44 1799.23>
LayerCount: 2
Fore
SplineSet
1358 1169 m 1,0,1
 1406 1151 1406 1151 1449.5 1141.5 c 128,-1,2
 1493 1132 1493 1132 1536 1129 c 1,3,4
 1576 1225 1576 1225 1617 1315 c 128,-1,5
 1658 1405 1658 1405 1702 1484 c 128,-1,6
 1746 1563 1746 1563 1794.5 1629 c 128,-1,7
 1843 1695 1843 1695 1898 1742 c 128,-1,8
 1953 1789 1953 1789 2016 1815 c 128,-1,9
 2079 1841 2079 1841 2152 1841 c 0,10,11
 2218 1841 2218 1841 2246.5 1805.5 c 128,-1,12
 2275 1770 2275 1770 2275 1710 c 0,13,14
 2275 1665 2275 1665 2258.5 1611 c 128,-1,15
 2242 1557 2242 1557 2211 1500 c 128,-1,16
 2180 1443 2180 1443 2135 1386 c 128,-1,17
 2090 1329 2090 1329 2033 1277.5 c 128,-1,18
 1976 1226 1976 1226 1907.5 1184 c 128,-1,19
 1839 1142 1839 1142 1761 1115 c 1,20,21
 1710 990 1710 990 1653.5 857 c 128,-1,22
 1597 724 1597 724 1533 592 c 128,-1,23
 1469 460 1469 460 1395.5 333.5 c 128,-1,24
 1322 207 1322 207 1237 95 c 1,25,26
 1326 16 1326 16 1413.5 -60.5 c 128,-1,27
 1501 -137 1501 -137 1592 -197 c 128,-1,28
 1683 -257 1683 -257 1780 -293.5 c 128,-1,29
 1877 -330 1877 -330 1985 -330 c 0,30,31
 2103 -330 2103 -330 2237 -278 c 128,-1,32
 2371 -226 2371 -226 2528 -104 c 1,33,34
 2634 -34 2634 -34 2704 -1 c 128,-1,35
 2774 32 2774 32 2806 32 c 0,36,37
 2831 32 2831 32 2831 13 c 0,38,39
 2831 -14 2831 -14 2773.5 -77.5 c 128,-1,40
 2716 -141 2716 -141 2592 -238 c 1,41,42
 2508 -306 2508 -306 2431.5 -354 c 128,-1,43
 2355 -402 2355 -402 2283.5 -432 c 128,-1,44
 2212 -462 2212 -462 2146 -476 c 128,-1,45
 2080 -490 2080 -490 2019 -490 c 0,46,47
 1938 -490 1938 -490 1863.5 -468.5 c 128,-1,48
 1789 -447 1789 -447 1718.5 -410 c 128,-1,49
 1648 -373 1648 -373 1580.5 -323 c 128,-1,50
 1513 -273 1513 -273 1447 -215.5 c 128,-1,51
 1381 -158 1381 -158 1315 -96 c 128,-1,52
 1249 -34 1249 -34 1181 27 c 1,53,54
 1115 -51 1115 -51 1040 -115.5 c 128,-1,55
 965 -180 965 -180 879.5 -226.5 c 128,-1,56
 794 -273 794 -273 697.5 -298.5 c 128,-1,57
 601 -324 601 -324 492 -324 c 0,58,59
 366 -324 366 -324 273 -288 c 128,-1,60
 180 -252 180 -252 119.5 -193 c 128,-1,61
 59 -134 59 -134 29.5 -58.5 c 128,-1,62
 0 17 0 17 0 95 c 0,63,64
 0 172 0 172 28 246 c 128,-1,65
 56 320 56 320 110 377.5 c 128,-1,66
 164 435 164 435 244 470 c 128,-1,67
 324 505 324 505 428 505 c 0,68,69
 530 505 530 505 621 481 c 128,-1,70
 712 457 712 457 796 416.5 c 128,-1,71
 880 376 880 376 957 322 c 128,-1,72
 1034 268 1034 268 1107 208 c 1,73,74
 1165 307 1165 307 1218 414.5 c 128,-1,75
 1271 522 1271 522 1320.5 633 c 128,-1,76
 1370 744 1370 744 1418 856 c 128,-1,77
 1466 968 1466 968 1514 1076 c 1,78,79
 1472 1076 1472 1076 1430 1081 c 128,-1,80
 1388 1086 1388 1086 1340 1095 c 0,81,82
 1295 1103 1295 1103 1248 1107 c 128,-1,83
 1201 1111 1201 1111 1158.5 1121.5 c 128,-1,84
 1116 1132 1116 1132 1082.5 1154 c 128,-1,85
 1049 1176 1049 1176 1031 1221 c 0,86,87
 1023 1242 1023 1242 1023 1258 c 0,88,89
 1023 1272 1023 1272 1029 1286 c 128,-1,90
 1035 1300 1035 1300 1046.5 1311.5 c 128,-1,91
 1058 1323 1058 1323 1073.5 1330 c 128,-1,92
 1089 1337 1089 1337 1108 1337 c 0,93,94
 1139 1337 1139 1337 1174 1318 c 128,-1,95
 1209 1299 1209 1299 1243 1272 c 128,-1,96
 1277 1245 1277 1245 1307 1216.5 c 128,-1,97
 1337 1188 1337 1188 1358 1169 c 1,0,1
481 -248 m 0,98,99
 577 -248 577 -248 659 -220 c 128,-1,100
 741 -192 741 -192 812 -142 c 128,-1,101
 883 -92 883 -92 944 -22.5 c 128,-1,102
 1005 47 1005 47 1059 130 c 1,103,104
 989 185 989 185 914.5 233 c 128,-1,105
 840 281 840 281 759 317 c 128,-1,106
 678 353 678 353 589.5 373.5 c 128,-1,107
 501 394 501 394 402 394 c 0,108,109
 343 394 343 394 298.5 369 c 128,-1,110
 254 344 254 344 224 303 c 128,-1,111
 194 262 194 262 178.5 209 c 128,-1,112
 163 156 163 156 163 99 c 0,113,114
 163 36 163 36 182.5 -26.5 c 128,-1,115
 202 -89 202 -89 241 -138 c 128,-1,116
 280 -187 280 -187 340 -217.5 c 128,-1,117
 400 -248 400 -248 481 -248 c 0,98,99
2148 1808 m 0,118,119
 2100 1808 2100 1808 2056.5 1759 c 128,-1,120
 2013 1710 2013 1710 1969.5 1625.5 c 128,-1,121
 1926 1541 1926 1541 1881.5 1427 c 128,-1,122
 1837 1313 1837 1313 1788 1184 c 1,123,124
 1848 1216 1848 1216 1900 1262.5 c 128,-1,125
 1952 1309 1952 1309 1995.5 1362.5 c 128,-1,126
 2039 1416 2039 1416 2073 1472.5 c 128,-1,127
 2107 1529 2107 1529 2130.5 1582 c 128,-1,128
 2154 1635 2154 1635 2166.5 1680.5 c 128,-1,129
 2179 1726 2179 1726 2179 1757 c 0,130,131
 2179 1781 2179 1781 2171.5 1794.5 c 128,-1,132
 2164 1808 2164 1808 2148 1808 c 0,118,119
EndSplineSet
Validated: 1
EndChar

StartChar: M
Encoding: 77 77 47
Width: 3253
Flags: W
HStem: -382 47<559.629 689.452> -323 66<71.3961 340.717> -97 138<2414 2596.11> 314 103<359.581 854.281> 1894 20G<2815.5 2849>
VStem: -110 105<-202.142 59.8999> 973 90<-95.9012 136.976> 2318 202<-27 352.531>
LayerCount: 2
Fore
SplineSet
3253 411 m 1,0,1
 3265 417 3265 417 3275 417 c 0,2,3
 3286 417 3286 417 3292 409.5 c 128,-1,4
 3298 402 3298 402 3298 391 c 0,5,6
 3298 377 3298 377 3287 359.5 c 128,-1,7
 3276 342 3276 342 3253 328 c 2,8,-1
 3104 241 l 2,9,10
 3032 199 3032 199 2937 142.5 c 128,-1,11
 2842 86 2842 86 2727 17 c 0,12,13
 2621 -46 2621 -46 2549.5 -71.5 c 128,-1,14
 2478 -97 2478 -97 2430 -97 c 0,15,16
 2398 -97 2398 -97 2377 -87.5 c 128,-1,17
 2356 -78 2356 -78 2342.5 -62.5 c 128,-1,18
 2329 -47 2329 -47 2323.5 -27 c 128,-1,19
 2318 -7 2318 -7 2318 14 c 0,20,21
 2318 70 2318 70 2329.5 156 c 128,-1,22
 2341 242 2341 242 2360.5 346.5 c 128,-1,23
 2380 451 2380 451 2405.5 567 c 128,-1,24
 2431 683 2431 683 2459 799.5 c 128,-1,25
 2487 916 2487 916 2515 1027 c 128,-1,26
 2543 1138 2543 1138 2567.5 1232 c 128,-1,27
 2592 1326 2592 1326 2611.5 1396.5 c 128,-1,28
 2631 1467 2631 1467 2641 1502 c 1,29,-1
 1688 46 l 2,30,31
 1688 45 1688 45 1678 30 c 128,-1,32
 1668 15 1668 15 1651 -3 c 128,-1,33
 1634 -21 1634 -21 1610.5 -35.5 c 128,-1,34
 1587 -50 1587 -50 1559 -50 c 0,35,36
 1533 -50 1533 -50 1525.5 -35 c 128,-1,37
 1518 -20 1518 -20 1518 -5 c 0,38,39
 1518 1 1518 1 1518.5 7.5 c 128,-1,40
 1519 14 1519 14 1521 16 c 1,41,-1
 1623 1087 l 1,42,43
 1582 1016 1582 1016 1521.5 916.5 c 128,-1,44
 1461 817 1461 817 1385.5 702.5 c 128,-1,45
 1310 588 1310 588 1221.5 463.5 c 128,-1,46
 1133 339 1133 339 1036 218 c 1,47,48
 1063 156 1063 156 1063 85 c 0,49,50
 1063 30 1063 30 1047.5 -26 c 128,-1,51
 1032 -82 1032 -82 1002.5 -134 c 128,-1,52
 973 -186 973 -186 930.5 -231.5 c 128,-1,53
 888 -277 888 -277 834.5 -310.5 c 128,-1,54
 781 -344 781 -344 717 -363 c 128,-1,55
 653 -382 653 -382 580 -382 c 0,56,57
 577 -382 577 -382 572.5 -378 c 128,-1,58
 568 -374 568 -374 564.5 -368 c 128,-1,59
 561 -362 561 -362 558 -355 c 128,-1,60
 555 -348 555 -348 555 -343 c 0,61,62
 555 -341 555 -341 557.5 -338 c 128,-1,63
 560 -335 560 -335 564 -335 c 0,64,65
 648 -335 648 -335 722.5 -297.5 c 128,-1,66
 797 -260 797 -260 852.5 -201.5 c 128,-1,67
 908 -143 908 -143 940.5 -71.5 c 128,-1,68
 973 0 973 0 973 69 c 0,69,70
 973 105 973 105 964 138 c 1,71,72
 875 43 875 43 781 -41 c 128,-1,73
 687 -125 687 -125 591.5 -187.5 c 128,-1,74
 496 -250 496 -250 400 -286.5 c 128,-1,75
 304 -323 304 -323 211 -323 c 0,76,77
 138 -323 138 -323 79 -309.5 c 128,-1,78
 20 -296 20 -296 -22 -267.5 c 128,-1,79
 -64 -239 -64 -239 -87 -194 c 128,-1,80
 -110 -149 -110 -149 -110 -87 c 0,81,82
 -110 -5 -110 -5 -74.5 64 c 128,-1,83
 -39 133 -39 133 19.5 189 c 128,-1,84
 78 245 78 245 155 288 c 128,-1,85
 232 331 232 331 315.5 359.5 c 128,-1,86
 399 388 399 388 482.5 402.5 c 128,-1,87
 566 417 566 417 639 417 c 0,88,89
 745 417 745 417 821.5 393.5 c 128,-1,90
 898 370 898 370 950 328 c 1,91,92
 1073 479 1073 479 1187.5 646 c 128,-1,93
 1302 813 1302 813 1396 982 c 128,-1,94
 1490 1151 1490 1151 1557 1314.5 c 128,-1,95
 1624 1478 1624 1478 1652 1622 c 0,96,97
 1652 1624 1652 1624 1659 1652.5 c 128,-1,98
 1666 1681 1666 1681 1680 1722.5 c 128,-1,99
 1694 1764 1694 1764 1713.5 1812 c 128,-1,100
 1733 1860 1733 1860 1757.5 1900.5 c 128,-1,101
 1782 1941 1782 1941 1811.5 1968 c 128,-1,102
 1841 1995 1841 1995 1875 1995 c 0,103,104
 1903 1995 1903 1995 1920 1982.5 c 128,-1,105
 1937 1970 1937 1970 1946.5 1951.5 c 128,-1,106
 1956 1933 1956 1933 1959.5 1910 c 128,-1,107
 1963 1887 1963 1887 1963 1866 c 0,108,109
 1963 1854 1963 1854 1962.5 1843 c 128,-1,110
 1962 1832 1962 1832 1961 1824 c 2,111,-1
 1772 345 l 1,112,-1
 2707 1751 l 1,113,114
 2710 1776 2710 1776 2717.5 1804.5 c 128,-1,115
 2725 1833 2725 1833 2739.5 1857.5 c 128,-1,116
 2754 1882 2754 1882 2776.5 1898 c 128,-1,117
 2799 1914 2799 1914 2832 1914 c 0,118,119
 2866 1914 2866 1914 2885.5 1908.5 c 128,-1,120
 2905 1903 2905 1903 2915 1895 c 128,-1,121
 2925 1887 2925 1887 2927.5 1876.5 c 128,-1,122
 2930 1866 2930 1866 2930 1856 c 0,123,124
 2930 1795 2930 1795 2912.5 1696 c 128,-1,125
 2895 1597 2895 1597 2866 1474.5 c 128,-1,126
 2837 1352 2837 1352 2800 1214 c 128,-1,127
 2763 1076 2763 1076 2725 937.5 c 128,-1,128
 2687 799 2687 799 2650 667.5 c 128,-1,129
 2613 536 2613 536 2584 427 c 128,-1,130
 2555 318 2555 318 2537.5 239 c 128,-1,131
 2520 160 2520 160 2520 126 c 0,132,133
 2520 114 2520 114 2521.5 99 c 128,-1,134
 2523 84 2523 84 2529 71.5 c 128,-1,135
 2535 59 2535 59 2547 50 c 128,-1,136
 2559 41 2559 41 2580 41 c 0,137,138
 2600 41 2600 41 2630.5 51.5 c 128,-1,139
 2661 62 2661 62 2707 88 c 0,140,141
 2862 176 2862 176 2999 257.5 c 128,-1,142
 3136 339 3136 339 3253 411 c 1,0,1
226 -257 m 0,143,144
 279 -257 279 -257 352.5 -219 c 128,-1,145
 426 -181 426 -181 512 -113.5 c 128,-1,146
 598 -46 598 -46 693 47.5 c 128,-1,147
 788 141 788 141 884 251 c 1,148,149
 845 280 845 280 785.5 297 c 128,-1,150
 726 314 726 314 645 314 c 0,151,152
 575 314 575 314 500 302 c 128,-1,153
 425 290 425 290 352.5 267 c 128,-1,154
 280 244 280 244 215 210.5 c 128,-1,155
 150 177 150 177 101.5 132.5 c 128,-1,156
 53 88 53 88 24 33.5 c 128,-1,157
 -5 -21 -5 -21 -5 -85 c 0,158,159
 -5 -175 -5 -175 57 -216 c 128,-1,160
 119 -257 119 -257 226 -257 c 0,143,144
EndSplineSet
Validated: 1
EndChar

StartChar: N
Encoding: 78 78 48
Width: 2432
Flags: W
HStem: -272 71<-51.9713 194.822> 240 67<773 855.773> 260 81<314.114 560.822> 1835 20G<1393 1423 2458.5 2492>
VStem: -202 118<-176.2 8.80219> 1024 91<-178.896 116.625>
LayerCount: 2
Fore
SplineSet
2432 411 m 0,0,1
 2444 417 2444 417 2454 417 c 0,2,3
 2465 417 2465 417 2471 409.5 c 128,-1,4
 2477 402 2477 402 2477 391 c 0,5,6
 2477 377 2477 377 2466 359.5 c 128,-1,7
 2455 342 2455 342 2432 328 c 0,8,9
 2375 294 2375 294 2311.5 256 c 128,-1,10
 2248 218 2248 218 2183.5 179.5 c 128,-1,11
 2119 141 2119 141 2055.5 105.5 c 128,-1,12
 1992 70 1992 70 1935.5 42.5 c 128,-1,13
 1879 15 1879 15 1832.5 -3 c 128,-1,14
 1786 -21 1786 -21 1754 -24 c 1,15,16
 1754 -28 1754 -28 1729 -42.5 c 128,-1,17
 1704 -57 1704 -57 1667.5 -73 c 128,-1,18
 1631 -89 1631 -89 1590 -102 c 128,-1,19
 1549 -115 1549 -115 1517 -115 c 0,20,21
 1492 -115 1492 -115 1475.5 -104.5 c 128,-1,22
 1459 -94 1459 -94 1459 -68 c 0,23,24
 1459 -66 1459 -66 1460 -61 c 128,-1,25
 1461 -56 1461 -56 1461 -53 c 2,26,-1
 1214 1397 l 1,27,28
 1082 1060 1082 1060 976.5 786.5 c 128,-1,29
 871 513 871 513 773 307 c 1,30,31
 862 286 862 286 926.5 252 c 128,-1,32
 991 218 991 218 1033 174.5 c 128,-1,33
 1075 131 1075 131 1095 78 c 128,-1,34
 1115 25 1115 25 1115 -33 c 0,35,36
 1115 -96 1115 -96 1090.5 -169.5 c 128,-1,37
 1066 -243 1066 -243 1022.5 -318.5 c 128,-1,38
 979 -394 979 -394 919 -468 c 128,-1,39
 859 -542 859 -542 788 -606 c 0,40,41
 780 -613 780 -613 764.5 -623.5 c 128,-1,42
 749 -634 749 -634 731.5 -644 c 128,-1,43
 714 -654 714 -654 697.5 -661 c 128,-1,44
 681 -668 681 -668 671 -668 c 0,45,46
 662 -668 662 -668 662 -660 c 0,47,48
 662 -651 662 -651 676 -626 c 0,49,50
 730 -534 730 -534 791.5 -453 c 128,-1,51
 853 -372 853 -372 904.5 -298.5 c 128,-1,52
 956 -225 956 -225 990 -158 c 128,-1,53
 1024 -91 1024 -91 1024 -26 c 0,54,55
 1024 22 1024 22 1008 64.5 c 128,-1,56
 992 107 992 107 957.5 141.5 c 128,-1,57
 923 176 923 176 869.5 201 c 128,-1,58
 816 226 816 226 740 240 c 1,59,60
 699 109 699 109 622.5 13 c 128,-1,61
 546 -83 546 -83 453 -146.5 c 128,-1,62
 360 -210 360 -210 259.5 -241 c 128,-1,63
 159 -272 159 -272 70 -272 c 0,64,65
 12 -272 12 -272 -37.5 -259 c 128,-1,66
 -87 -246 -87 -246 -123.5 -220.5 c 128,-1,67
 -160 -195 -160 -195 -181 -157.5 c 128,-1,68
 -202 -120 -202 -120 -202 -70 c 0,69,70
 -202 -27 -202 -27 -178 20.5 c 128,-1,71
 -154 68 -154 68 -111 114 c 128,-1,72
 -68 160 -68 160 -8 201 c 128,-1,73
 52 242 52 242 124 273 c 128,-1,74
 196 304 196 304 278 322.5 c 128,-1,75
 360 341 360 341 447 341 c 0,76,77
 489 341 489 341 527 339 c 128,-1,78
 565 337 565 337 600 334 c 1,79,80
 657 448 657 448 714 574 c 128,-1,81
 771 700 771 700 827 828 c 128,-1,82
 883 956 883 956 937.5 1082 c 128,-1,83
 992 1208 992 1208 1044.5 1322.5 c 128,-1,84
 1097 1437 1097 1437 1147 1534.5 c 128,-1,85
 1197 1632 1197 1632 1243 1703 c 128,-1,86
 1289 1774 1289 1774 1331.5 1814.5 c 128,-1,87
 1374 1855 1374 1855 1412 1855 c 0,88,89
 1434 1855 1434 1855 1449 1846.5 c 128,-1,90
 1464 1838 1464 1838 1472.5 1824.5 c 128,-1,91
 1481 1811 1481 1811 1484.5 1793 c 128,-1,92
 1488 1775 1488 1775 1488 1757 c 0,93,94
 1488 1741 1488 1741 1486 1725.5 c 128,-1,95
 1484 1710 1484 1710 1482 1697.5 c 128,-1,96
 1480 1685 1480 1685 1478 1676.5 c 128,-1,97
 1476 1668 1476 1668 1476 1667 c 2,98,-1
 1730 174 l 1,99,-1
 2272 1542 l 2,100,101
 2287 1578 2287 1578 2308.5 1618.5 c 128,-1,102
 2330 1659 2330 1659 2356 1693.5 c 128,-1,103
 2382 1728 2382 1728 2412 1751 c 128,-1,104
 2442 1774 2442 1774 2475 1774 c 0,105,106
 2509 1774 2509 1774 2529.5 1768.5 c 128,-1,107
 2550 1763 2550 1763 2561.5 1755 c 128,-1,108
 2573 1747 2573 1747 2577.5 1736.5 c 128,-1,109
 2582 1726 2582 1726 2584 1716 c 1,110,-1
 1808 90 l 1,111,112
 1885 114 1885 114 1961 149.5 c 128,-1,113
 2037 185 2037 185 2114 227 c 128,-1,114
 2191 269 2191 269 2270 316 c 128,-1,115
 2349 363 2349 363 2432 411 c 0,0,1
561 256 m 1,116,117
 561 260 561 260 557 260 c 0,118,119
 483 260 483 260 407 244 c 128,-1,120
 331 228 331 228 260 201 c 128,-1,121
 189 174 189 174 126.5 138.5 c 128,-1,122
 64 103 64 103 17 64 c 128,-1,123
 -30 25 -30 25 -57 -14.5 c 128,-1,124
 -84 -54 -84 -54 -84 -89 c 0,125,126
 -84 -146 -84 -146 -48 -173.5 c 128,-1,127
 -12 -201 -12 -201 46 -201 c 0,128,129
 107 -201 107 -201 183 -171 c 128,-1,130
 259 -141 259 -141 332.5 -83 c 128,-1,131
 406 -25 406 -25 467.5 60 c 128,-1,132
 529 145 529 145 561 256 c 1,116,117
EndSplineSet
Validated: 1
EndChar

StartChar: O
Encoding: 79 79 49
Width: 2396
Flags: W
HStem: -207 170<557.796 980.369> 156 87<1951.65 2176.48> 1341 68<2083.75 2440.43> 1479 49<2111.06 2384.8> 1688 59<-1195.9 -844.479 934.781 1051.49> 1712 109<1783.86 2291.54> 1760 91<-51.8574 801.925>
VStem: 237 180<105.223 502.901> 1576 180<591.303 1078.89> 2469 123<1080.12 1351.5> 2526 58<1460.8 1605.74>
LayerCount: 2
Fore
SplineSet
2396 411 m 2,0,1
 2408 417 2408 417 2418 417 c 0,2,3
 2429 417 2429 417 2435 409.5 c 128,-1,4
 2441 402 2441 402 2441 391 c 0,5,6
 2441 377 2441 377 2430 359.5 c 128,-1,7
 2419 342 2419 342 2396 328 c 2,8,-1
 2173 196 l 2,9,10
 2137 175 2137 175 2102 165.5 c 128,-1,11
 2067 156 2067 156 2036 156 c 0,12,13
 1976 156 1976 156 1923 183 c 128,-1,14
 1870 210 1870 210 1822 256 c 1,15,16
 1673 154 1673 154 1518 69 c 128,-1,17
 1363 -16 1363 -16 1217.5 -77.5 c 128,-1,18
 1072 -139 1072 -139 944 -173 c 128,-1,19
 816 -207 816 -207 722 -207 c 0,20,21
 605 -207 605 -207 514.5 -164 c 128,-1,22
 424 -121 424 -121 362.5 -45 c 128,-1,23
 301 31 301 31 269 133.5 c 128,-1,24
 237 236 237 236 237 356 c 0,25,26
 237 443 237 443 264.5 549 c 128,-1,27
 292 655 292 655 346 770 c 128,-1,28
 400 885 400 885 479.5 1003.5 c 128,-1,29
 559 1122 559 1122 663 1233.5 c 128,-1,30
 767 1345 767 1345 895 1444.5 c 128,-1,31
 1023 1544 1023 1544 1173 1620 c 1,32,33
 1088 1649 1088 1649 999 1674.5 c 128,-1,34
 910 1700 910 1700 812 1719 c 128,-1,35
 714 1738 714 1738 606 1749 c 128,-1,36
 498 1760 498 1760 376 1760 c 0,37,38
 42 1760 42 1760 -348 1738 c 128,-1,39
 -738 1716 -738 1716 -1185 1688 c 0,40,41
 -1191 1688 -1191 1688 -1193.5 1694 c 128,-1,42
 -1196 1700 -1196 1700 -1197.5 1707.5 c 128,-1,43
 -1199 1715 -1199 1715 -1199 1722.5 c 128,-1,44
 -1199 1730 -1199 1730 -1199 1733 c 0,45,46
 -1199 1738 -1199 1738 -1196 1742.5 c 128,-1,47
 -1193 1747 -1193 1747 -1182 1747 c 0,48,49
 -1179 1747 -1179 1747 -1128.5 1751.5 c 128,-1,50
 -1078 1756 -1078 1756 -993.5 1763.5 c 128,-1,51
 -909 1771 -909 1771 -796.5 1780 c 128,-1,52
 -684 1789 -684 1789 -558 1799 c 128,-1,53
 -432 1809 -432 1809 -299 1818 c 128,-1,54
 -166 1827 -166 1827 -40 1834.5 c 128,-1,55
 86 1842 86 1842 198.5 1846.5 c 128,-1,56
 311 1851 311 1851 397 1851 c 0,57,58
 508 1851 508 1851 617.5 1837 c 128,-1,59
 727 1823 727 1823 836 1799 c 128,-1,60
 945 1775 945 1775 1054 1743.5 c 128,-1,61
 1163 1712 1163 1712 1271 1677 c 1,62,63
 1426 1744 1426 1744 1595.5 1782.5 c 128,-1,64
 1765 1821 1765 1821 1959 1821 c 0,65,66
 2101 1821 2101 1821 2216.5 1795.5 c 128,-1,67
 2332 1770 2332 1770 2413.5 1727.5 c 128,-1,68
 2495 1685 2495 1685 2539.5 1628.5 c 128,-1,69
 2584 1572 2584 1572 2584 1511 c 0,70,71
 2584 1487 2584 1487 2577 1462 c 128,-1,72
 2570 1437 2570 1437 2554 1414 c 1,73,74
 2592 1358 2592 1358 2592 1284 c 0,75,76
 2592 1159 2592 1159 2539 1032.5 c 128,-1,77
 2486 906 2486 906 2394 783 c 128,-1,78
 2302 660 2302 660 2178.5 543 c 128,-1,79
 2055 426 2055 426 1915 322 c 1,80,81
 1945 286 1945 286 1981.5 264.5 c 128,-1,82
 2018 243 2018 243 2061 243 c 0,83,84
 2089 243 2089 243 2121.5 255.5 c 128,-1,85
 2154 268 2154 268 2188 286.5 c 128,-1,86
 2222 305 2222 305 2255.5 326.5 c 128,-1,87
 2289 348 2289 348 2318 365 c 2,88,-1
 2396 411 l 2,0,1
745 -37 m 0,89,90
 826 -37 826 -37 940.5 -10 c 128,-1,91
 1055 17 1055 17 1187.5 67.5 c 128,-1,92
 1320 118 1320 118 1462.5 189.5 c 128,-1,93
 1605 261 1605 261 1743 350 c 1,94,95
 1704 405 1704 405 1673 467.5 c 128,-1,96
 1642 530 1642 530 1620.5 592 c 128,-1,97
 1599 654 1599 654 1587.5 712 c 128,-1,98
 1576 770 1576 770 1576 815 c 0,99,100
 1576 902 1576 902 1594.5 986.5 c 128,-1,101
 1613 1071 1613 1071 1648.5 1148 c 128,-1,102
 1684 1225 1684 1225 1736 1291.5 c 128,-1,103
 1788 1358 1788 1358 1856 1408 c 1,104,105
 1747 1436 1747 1436 1647 1471 c 128,-1,106
 1547 1506 1547 1506 1447 1544 c 1,107,108
 1291 1467 1291 1467 1154 1365 c 128,-1,109
 1017 1263 1017 1263 902.5 1149 c 128,-1,110
 788 1035 788 1035 698 915 c 128,-1,111
 608 795 608 795 545.5 682.5 c 128,-1,112
 483 570 483 570 450 471 c 128,-1,113
 417 372 417 372 417 299 c 0,114,115
 417 224 417 224 436.5 162.5 c 128,-1,116
 456 101 456 101 496.5 56.5 c 128,-1,117
 537 12 537 12 599 -12.5 c 128,-1,118
 661 -37 661 -37 745 -37 c 0,89,90
1756 805 m 0,119,120
 1756 772 1756 772 1761.5 726.5 c 128,-1,121
 1767 681 1767 681 1779 629.5 c 128,-1,122
 1791 578 1791 578 1808.5 524.5 c 128,-1,123
 1826 471 1826 471 1850 423 c 1,124,125
 1978 514 1978 514 2090.5 618 c 128,-1,126
 2203 722 2203 722 2287 835 c 128,-1,127
 2371 948 2371 948 2420 1069 c 128,-1,128
 2469 1190 2469 1190 2469 1315 c 0,129,130
 2469 1337 2469 1337 2465 1352 c 1,131,132
 2426 1341 2426 1341 2385 1341 c 0,133,134
 2273 1341 2273 1341 2174 1351 c 128,-1,135
 2075 1361 2075 1361 1981 1379 c 1,136,137
 1924 1330 1924 1330 1881.5 1263.5 c 128,-1,138
 1839 1197 1839 1197 1811 1121.5 c 128,-1,139
 1783 1046 1783 1046 1769.5 965 c 128,-1,140
 1756 884 1756 884 1756 805 c 0,119,120
2141 1712 m 0,141,142
 1978 1712 1978 1712 1831 1679 c 128,-1,143
 1684 1646 1684 1646 1543 1588 c 1,144,145
 1649 1554 1649 1554 1750 1523.5 c 128,-1,146
 1851 1493 1851 1493 1957 1468 c 1,147,148
 2018 1497 2018 1497 2086 1512.5 c 128,-1,149
 2154 1528 2154 1528 2232 1528 c 0,150,151
 2331 1528 2331 1528 2397.5 1510 c 128,-1,152
 2464 1492 2464 1492 2509 1460 c 1,153,154
 2526 1497 2526 1497 2526 1538 c 0,155,156
 2526 1583 2526 1583 2495 1615.5 c 128,-1,157
 2464 1648 2464 1648 2411.5 1669.5 c 128,-1,158
 2359 1691 2359 1691 2289 1701.5 c 128,-1,159
 2219 1712 2219 1712 2141 1712 c 0,141,142
2254 1479 m 0,160,161
 2206 1479 2206 1479 2162.5 1469.5 c 128,-1,162
 2119 1460 2119 1460 2081 1443 c 1,163,164
 2169 1427 2169 1427 2251.5 1418 c 128,-1,165
 2334 1409 2334 1409 2422 1409 c 0,166,167
 2427 1409 2427 1409 2431.5 1409 c 128,-1,168
 2436 1409 2436 1409 2441 1410 c 1,169,170
 2418 1442 2418 1442 2372.5 1460.5 c 128,-1,171
 2327 1479 2327 1479 2254 1479 c 0,160,161
EndSplineSet
Validated: 1
EndChar

StartChar: P
Encoding: 80 80 50
Width: 2167
Flags: W
HStem: 46 104<1301.26 1611.84> 783 61<1172.8 1296 1570 1884.49> 1093.5 114<663.776 780.36> 1354 51<1233.17 1436.62> 1754 72<986.867 1992.55>
VStem: 240 175<1242.63 1461.52> 1003 51<961.734 1182.64> 1473 166<1065.12 1290.46> 2676 213<1192.14 1470.11>
LayerCount: 2
Fore
SplineSet
2167 411 m 0,0,1
 2179 417 2179 417 2189 417 c 0,2,3
 2200 417 2200 417 2206 409.5 c 128,-1,4
 2212 402 2212 402 2212 391 c 0,5,6
 2212 377 2212 377 2201 359.5 c 128,-1,7
 2190 342 2190 342 2167 328 c 0,8,9
 2095 286 2095 286 2020.5 252 c 128,-1,10
 1946 218 1946 218 1871 187 c 1,11,12
 1811 160 1811 160 1744 134.5 c 128,-1,13
 1677 109 1677 109 1607.5 89.5 c 128,-1,14
 1538 70 1538 70 1467.5 58 c 128,-1,15
 1397 46 1397 46 1331 46 c 0,16,17
 1304 46 1304 46 1279 48.5 c 128,-1,18
 1254 51 1254 51 1230 57 c 1,19,20
 1215 21 1215 21 1193.5 -24.5 c 128,-1,21
 1172 -70 1172 -70 1149 -114.5 c 128,-1,22
 1126 -159 1126 -159 1105 -197.5 c 128,-1,23
 1084 -236 1084 -236 1072 -257 c 1,24,25
 1054 -299 1054 -299 1015.5 -318 c 128,-1,26
 977 -337 977 -337 934 -337 c 0,27,28
 912 -337 912 -337 891.5 -330.5 c 128,-1,29
 871 -324 871 -324 855 -312 c 128,-1,30
 839 -300 839 -300 829.5 -283 c 128,-1,31
 820 -266 820 -266 820 -244 c 0,32,33
 820 -231 820 -231 824 -224 c 0,34,35
 836 -197 836 -197 859 -149 c 128,-1,36
 882 -101 882 -101 909 -44 c 128,-1,37
 936 13 936 13 963 73.5 c 128,-1,38
 990 134 990 134 1010 185 c 1,39,40
 1002 193 1002 193 1000.5 200.5 c 128,-1,41
 999 208 999 208 999 216 c 0,42,43
 999 231 999 231 1010 246 c 128,-1,44
 1021 261 1021 261 1046 278 c 1,45,46
 1086 358 1086 358 1126 435.5 c 128,-1,47
 1166 513 1166 513 1200 580 c 128,-1,48
 1234 647 1234 647 1259.5 700 c 128,-1,49
 1285 753 1285 753 1296 783 c 1,50,51
 1231 784 1231 784 1177 804.5 c 128,-1,52
 1123 825 1123 825 1084.5 860.5 c 128,-1,53
 1046 896 1046 896 1024.5 945 c 128,-1,54
 1003 994 1003 994 1003 1053 c 0,55,56
 1003 1132 1003 1132 1034.5 1197 c 128,-1,57
 1066 1262 1066 1262 1117 1308 c 128,-1,58
 1168 1354 1168 1354 1232.5 1379.5 c 128,-1,59
 1297 1405 1297 1405 1362 1405 c 0,60,61
 1449 1405 1449 1405 1503 1376.5 c 128,-1,62
 1557 1348 1557 1348 1587.5 1302 c 128,-1,63
 1618 1256 1618 1256 1628.5 1198 c 128,-1,64
 1639 1140 1639 1140 1639 1082 c 0,65,66
 1639 1044 1639 1044 1628 1008.5 c 128,-1,67
 1617 973 1617 973 1604.5 942.5 c 128,-1,68
 1592 912 1592 912 1581 887.5 c 128,-1,69
 1570 863 1570 863 1570 847 c 2,70,-1
 1570 842 l 1,71,72
 1618 848 1618 848 1690.5 854 c 128,-1,73
 1763 860 1763 860 1850 870 c 128,-1,74
 1937 880 1937 880 2031.5 896 c 128,-1,75
 2126 912 2126 912 2218 937 c 128,-1,76
 2310 962 2310 962 2393 998 c 128,-1,77
 2476 1034 2476 1034 2539 1085 c 128,-1,78
 2602 1136 2602 1136 2639 1204 c 128,-1,79
 2676 1272 2676 1272 2676 1360 c 0,80,81
 2676 1424 2676 1424 2624 1478.5 c 128,-1,82
 2572 1533 2572 1533 2485 1577 c 128,-1,83
 2398 1621 2398 1621 2284.5 1654 c 128,-1,84
 2171 1687 2171 1687 2049.5 1709 c 128,-1,85
 1928 1731 1928 1731 1806.5 1742.5 c 128,-1,86
 1685 1754 1685 1754 1581 1754 c 0,87,88
 1464 1754 1464 1754 1332 1749.5 c 128,-1,89
 1200 1745 1200 1745 1070.5 1730 c 128,-1,90
 941 1715 941 1715 822.5 1685 c 128,-1,91
 704 1655 704 1655 613.5 1603.5 c 128,-1,92
 523 1552 523 1552 469 1476 c 128,-1,93
 415 1400 415 1400 415 1292 c 0,94,95
 415 1263 415 1263 443 1249.5 c 128,-1,96
 471 1236 471 1236 513 1230 c 128,-1,97
 555 1224 555 1224 604 1220.5 c 128,-1,98
 653 1217 653 1217 695 1207.5 c 128,-1,99
 737 1198 737 1198 765 1178 c 128,-1,100
 793 1158 793 1158 793 1119 c 0,101,102
 793 1102 793 1102 756 1093.5 c 128,-1,103
 719 1085 719 1085 662 1085 c 0,104,105
 621 1085 621 1085 574 1090 c 128,-1,106
 527 1095 527 1095 480 1105.5 c 128,-1,107
 433 1116 433 1116 389.5 1132 c 128,-1,108
 346 1148 346 1148 313 1170.5 c 128,-1,109
 280 1193 280 1193 260 1222 c 128,-1,110
 240 1251 240 1251 240 1287 c 0,111,112
 240 1379 240 1379 278.5 1450.5 c 128,-1,113
 317 1522 317 1522 383.5 1577.5 c 128,-1,114
 450 1633 450 1633 540 1672.5 c 128,-1,115
 630 1712 630 1712 732.5 1739.5 c 128,-1,116
 835 1767 835 1767 945.5 1784 c 128,-1,117
 1056 1801 1056 1801 1164.5 1810.5 c 128,-1,118
 1273 1820 1273 1820 1373.5 1823 c 128,-1,119
 1474 1826 1474 1826 1557 1826 c 0,120,121
 1653 1826 1653 1826 1761.5 1821.5 c 128,-1,122
 1870 1817 1870 1817 1982 1806 c 128,-1,123
 2094 1795 2094 1795 2204.5 1777 c 128,-1,124
 2315 1759 2315 1759 2416 1732.5 c 128,-1,125
 2517 1706 2517 1706 2603.5 1670.5 c 128,-1,126
 2690 1635 2690 1635 2753.5 1589 c 128,-1,127
 2817 1543 2817 1543 2853 1485 c 128,-1,128
 2889 1427 2889 1427 2889 1356 c 0,129,130
 2889 1272 2889 1272 2851 1203.5 c 128,-1,131
 2813 1135 2813 1135 2747.5 1080 c 128,-1,132
 2682 1025 2682 1025 2592.5 982.5 c 128,-1,133
 2503 940 2503 940 2400 908 c 128,-1,134
 2297 876 2297 876 2184.5 853 c 128,-1,135
 2072 830 2072 830 1960.5 814 c 128,-1,136
 1849 798 1849 798 1743 788 c 128,-1,137
 1637 778 1637 778 1546 772 c 1,138,139
 1527 749 1527 749 1499.5 693 c 128,-1,140
 1472 637 1472 637 1438 560.5 c 128,-1,141
 1404 484 1404 484 1365 393.5 c 128,-1,142
 1326 303 1326 303 1285 212 c 1,143,144
 1312 179 1312 179 1350.5 164.5 c 128,-1,145
 1389 150 1389 150 1435 150 c 0,146,147
 1488 150 1488 150 1546.5 161 c 128,-1,148
 1605 172 1605 172 1664.5 190.5 c 128,-1,149
 1724 209 1724 209 1782.5 232.5 c 128,-1,150
 1841 256 1841 256 1895 280 c 0,151,152
 1962 309 1962 309 2030 342.5 c 128,-1,153
 2098 376 2098 376 2167 411 c 0,0,1
1320 844 m 1,154,155
 1341 889 1341 889 1367.5 939.5 c 128,-1,156
 1394 990 1394 990 1417.5 1041 c 128,-1,157
 1441 1092 1441 1092 1457 1140 c 128,-1,158
 1473 1188 1473 1188 1473 1229 c 0,159,160
 1473 1285 1473 1285 1445.5 1319.5 c 128,-1,161
 1418 1354 1418 1354 1348 1354 c 0,162,163
 1289 1354 1289 1354 1235.5 1334 c 128,-1,164
 1182 1314 1182 1314 1141.5 1276.5 c 128,-1,165
 1101 1239 1101 1239 1077.5 1186 c 128,-1,166
 1054 1133 1054 1133 1054 1067 c 0,167,168
 1054 1013 1054 1013 1074 971.5 c 128,-1,169
 1094 930 1094 930 1129 901.5 c 128,-1,170
 1164 873 1164 873 1213 858.5 c 128,-1,171
 1262 844 1262 844 1320 844 c 1,154,155
EndSplineSet
Validated: 1
EndChar

StartChar: Q
Encoding: 81 81 51
Width: 2496
Flags: W
HStem: -828 202<2846.59 3586.31> -426 99<657.456 1169.48> 93 97<521.846 1001.48> 629 111<937.103 1149.89> 1363 101<1151.25 1378.03> 1883 180<1766.64 2110.3>
VStem: 0 99<-34.0828 321.26> 361 105<-173.419 40.0017> 845 78<752.632 1096.65> 1406 199<1044.53 1335.34> 2383 294<1047.7 1571.76> 4150 100<-361.819 -84.1641>
LayerCount: 2
Fore
SplineSet
845 793 m 0,0,1
 845 908 845 908 864.5 1011 c 128,-1,2
 884 1114 884 1114 919 1214 c 1,3,4
 829 1158 829 1158 733.5 1084.5 c 128,-1,5
 638 1011 638 1011 547 923 c 128,-1,6
 456 835 456 835 374.5 734.5 c 128,-1,7
 293 634 293 634 232 524 c 128,-1,8
 171 414 171 414 135 296.5 c 128,-1,9
 99 179 99 179 99 57 c 0,10,11
 99 33 99 33 93 15.5 c 128,-1,12
 87 -2 87 -2 79 -13 c 128,-1,13
 71 -24 71 -24 62.5 -29.5 c 128,-1,14
 54 -35 54 -35 50 -35 c 0,15,16
 38 -35 38 -35 29 -22 c 128,-1,17
 20 -9 20 -9 13.5 10 c 128,-1,18
 7 29 7 29 3.5 51 c 128,-1,19
 0 73 0 73 0 92 c 0,20,21
 0 244 0 244 43 382.5 c 128,-1,22
 86 521 86 521 159 644 c 128,-1,23
 232 767 232 767 329 874 c 128,-1,24
 426 981 426 981 534.5 1069.5 c 128,-1,25
 643 1158 643 1158 757 1228.5 c 128,-1,26
 871 1299 871 1299 978 1349 c 1,27,28
 1034 1459 1034 1459 1108 1554.5 c 128,-1,29
 1182 1650 1182 1650 1269 1729.5 c 128,-1,30
 1356 1809 1356 1809 1452.5 1871 c 128,-1,31
 1549 1933 1549 1933 1649.5 1975.5 c 128,-1,32
 1750 2018 1750 2018 1851.5 2040.5 c 128,-1,33
 1953 2063 1953 2063 2050 2063 c 0,34,35
 2179 2063 2179 2063 2293 2021.5 c 128,-1,36
 2407 1980 2407 1980 2492.5 1892 c 128,-1,37
 2578 1804 2578 1804 2627.5 1667 c 128,-1,38
 2677 1530 2677 1530 2677 1340 c 0,39,40
 2677 1221 2677 1221 2644 1089.5 c 128,-1,41
 2611 958 2611 958 2551 822.5 c 128,-1,42
 2491 687 2491 687 2405.5 552 c 128,-1,43
 2320 417 2320 417 2215 291 c 128,-1,44
 2110 165 2110 165 1987.5 52.5 c 128,-1,45
 1865 -60 1865 -60 1731 -151 c 1,46,47
 1902 -235 1902 -235 2077 -319.5 c 128,-1,48
 2252 -404 2252 -404 2433 -472.5 c 128,-1,49
 2614 -541 2614 -541 2800 -583.5 c 128,-1,50
 2986 -626 2986 -626 3178 -626 c 0,51,52
 3239 -626 3239 -626 3313.5 -624.5 c 128,-1,53
 3388 -623 3388 -623 3468 -617.5 c 128,-1,54
 3548 -612 3548 -612 3629.5 -600.5 c 128,-1,55
 3711 -589 3711 -589 3786.5 -568 c 128,-1,56
 3862 -547 3862 -547 3928.5 -515.5 c 128,-1,57
 3995 -484 3995 -484 4044 -438.5 c 128,-1,58
 4093 -393 4093 -393 4121.5 -332.5 c 128,-1,59
 4150 -272 4150 -272 4150 -193 c 0,60,61
 4150 -177 4150 -177 4135 -145 c 128,-1,62
 4120 -113 4120 -113 4102 -77.5 c 128,-1,63
 4084 -42 4084 -42 4069 -8.5 c 128,-1,64
 4054 25 4054 25 4054 45 c 0,65,66
 4054 66 4054 66 4086 66 c 0,67,68
 4129 66 4129 66 4160 40 c 128,-1,69
 4191 14 4191 14 4211 -24.5 c 128,-1,70
 4231 -63 4231 -63 4240.5 -105.5 c 128,-1,71
 4250 -148 4250 -148 4250 -181 c 0,72,73
 4250 -276 4250 -276 4218.5 -354.5 c 128,-1,74
 4187 -433 4187 -433 4133 -496.5 c 128,-1,75
 4079 -560 4079 -560 4007 -609 c 128,-1,76
 3935 -658 3935 -658 3853 -695 c 128,-1,77
 3771 -732 3771 -732 3684 -757.5 c 128,-1,78
 3597 -783 3597 -783 3513 -798.5 c 128,-1,79
 3429 -814 3429 -814 3353 -821 c 128,-1,80
 3277 -828 3277 -828 3218 -828 c 0,81,82
 3072 -828 3072 -828 2931 -801.5 c 128,-1,83
 2790 -775 2790 -775 2653.5 -730 c 128,-1,84
 2517 -685 2517 -685 2384 -625.5 c 128,-1,85
 2251 -566 2251 -566 2122 -498.5 c 128,-1,86
 1993 -431 1993 -431 1867 -360 c 128,-1,87
 1741 -289 1741 -289 1618 -222 c 1,88,89
 1452 -319 1452 -319 1282 -372.5 c 128,-1,90
 1112 -426 1112 -426 933 -426 c 0,91,92
 786 -426 786 -426 678.5 -393 c 128,-1,93
 571 -360 571 -360 500.5 -308 c 128,-1,94
 430 -256 430 -256 395.5 -191.5 c 128,-1,95
 361 -127 361 -127 361 -63 c 0,96,97
 361 -13 361 -13 382 33 c 128,-1,98
 403 79 403 79 443.5 114 c 128,-1,99
 484 149 484 149 544 169.5 c 128,-1,100
 604 190 604 190 683 190 c 0,101,102
 790 190 790 190 899 169 c 128,-1,103
 1008 148 1008 148 1119 112 c 128,-1,104
 1230 76 1230 76 1343.5 28 c 128,-1,105
 1457 -20 1457 -20 1573 -75 c 1,106,107
 1688 8 1688 8 1793 111 c 128,-1,108
 1898 214 1898 214 1988 329 c 128,-1,109
 2078 444 2078 444 2151 567 c 128,-1,110
 2224 690 2224 690 2275.5 813 c 128,-1,111
 2327 936 2327 936 2355 1054.5 c 128,-1,112
 2383 1173 2383 1173 2383 1280 c 0,113,114
 2383 1440 2383 1440 2345 1554.5 c 128,-1,115
 2307 1669 2307 1669 2241 1742 c 128,-1,116
 2175 1815 2175 1815 2086.5 1849 c 128,-1,117
 1998 1883 1998 1883 1898 1883 c 0,118,119
 1793 1883 1793 1883 1680.5 1848.5 c 128,-1,120
 1568 1814 1568 1814 1460.5 1750.5 c 128,-1,121
 1353 1687 1353 1687 1257 1597 c 128,-1,122
 1161 1507 1161 1507 1088 1397 c 1,123,124
 1176 1430 1176 1430 1246.5 1447 c 128,-1,125
 1317 1464 1317 1464 1368 1464 c 0,126,127
 1431 1464 1431 1464 1475.5 1447 c 128,-1,128
 1520 1430 1520 1430 1549 1400 c 128,-1,129
 1578 1370 1578 1370 1591.5 1329 c 128,-1,130
 1605 1288 1605 1288 1605 1240 c 0,131,132
 1605 1178 1605 1178 1584 1109 c 128,-1,133
 1563 1040 1563 1040 1525.5 972 c 128,-1,134
 1488 904 1488 904 1435 842 c 128,-1,135
 1382 780 1382 780 1318.5 732.5 c 128,-1,136
 1255 685 1255 685 1182 657 c 128,-1,137
 1109 629 1109 629 1031 629 c 0,138,139
 1001 629 1001 629 968 638.5 c 128,-1,140
 935 648 935 648 908 668 c 128,-1,141
 881 688 881 688 863 719 c 128,-1,142
 845 750 845 750 845 793 c 0,0,1
887 -327 m 0,143,144
 1039 -327 1039 -327 1183 -278 c 128,-1,145
 1327 -229 1327 -229 1469 -144 c 1,146,147
 1369 -93 1369 -93 1271 -49.5 c 128,-1,148
 1173 -6 1173 -6 1076.5 25.5 c 128,-1,149
 980 57 980 57 885 75 c 128,-1,150
 790 93 790 93 696 93 c 0,151,152
 637 93 637 93 593.5 81 c 128,-1,153
 550 69 550 69 521.5 48.5 c 128,-1,154
 493 28 493 28 479.5 0.5 c 128,-1,155
 466 -27 466 -27 466 -57 c 0,156,157
 466 -102 466 -102 494.5 -150 c 128,-1,158
 523 -198 523 -198 577 -237.5 c 128,-1,159
 631 -277 631 -277 709.5 -302 c 128,-1,160
 788 -327 788 -327 887 -327 c 0,143,144
1277 1363 m 0,161,162
 1235 1363 1235 1363 1168 1339 c 128,-1,163
 1101 1315 1101 1315 1016 1270 c 1,164,165
 971 1176 971 1176 947 1077.5 c 128,-1,166
 923 979 923 979 923 870 c 0,167,168
 923 851 923 851 925.5 828.5 c 128,-1,169
 928 806 928 806 936 786.5 c 128,-1,170
 944 767 944 767 960 753.5 c 128,-1,171
 976 740 976 740 1003 740 c 0,172,173
 1057 740 1057 740 1108 762.5 c 128,-1,174
 1159 785 1159 785 1204 823 c 128,-1,175
 1249 861 1249 861 1286 910.5 c 128,-1,176
 1323 960 1323 960 1349.5 1013 c 128,-1,177
 1376 1066 1376 1066 1391 1119.5 c 128,-1,178
 1406 1173 1406 1173 1406 1219 c 0,179,180
 1406 1250 1406 1250 1398.5 1276.5 c 128,-1,181
 1391 1303 1391 1303 1375.5 1322 c 128,-1,182
 1360 1341 1360 1341 1335.5 1352 c 128,-1,183
 1311 1363 1311 1363 1277 1363 c 0,161,162
EndSplineSet
Validated: 1
EndChar

StartChar: R
Encoding: 82 82 52
Width: 2798
Flags: W
HStem: -106 123<1877.5 2087.93> -15 69<235.757 626.57> 817 53<1771.75 1926.22> 1425 102<1794.57 2023.53> 2023 41<1920.42 2368.29>
VStem: 566 217<884.122 1308.4> 1618 45<1003.62 1253.57> 1732 239<30.3483 243.978> 2050 211<1079.31 1387.85> 2800 187<1283.36 1687.72>
LayerCount: 2
Fore
SplineSet
2798 411 m 0,0,1
 2810 417 2810 417 2820 417 c 0,2,3
 2831 417 2831 417 2837 409.5 c 128,-1,4
 2843 402 2843 402 2843 391 c 0,5,6
 2843 377 2843 377 2832 359.5 c 128,-1,7
 2821 342 2821 342 2798 328 c 0,8,9
 2665 250 2665 250 2535.5 172.5 c 128,-1,10
 2406 95 2406 95 2289 33 c 128,-1,11
 2172 -29 2172 -29 2072 -67.5 c 128,-1,12
 1972 -106 1972 -106 1897 -106 c 0,13,14
 1858 -106 1858 -106 1827.5 -94 c 128,-1,15
 1797 -82 1797 -82 1776 -56 c 128,-1,16
 1755 -30 1755 -30 1743.5 10.5 c 128,-1,17
 1732 51 1732 51 1732 109 c 0,18,19
 1732 151 1732 151 1738.5 202 c 128,-1,20
 1745 253 1745 253 1758 316 c 0,21,22
 1772 383 1772 383 1795 454 c 128,-1,23
 1818 525 1818 525 1843 592.5 c 128,-1,24
 1868 660 1868 660 1891 719 c 128,-1,25
 1914 778 1914 778 1927 820 c 1,26,27
 1904 817 1904 817 1885 817 c 0,28,29
 1816 817 1816 817 1765.5 842.5 c 128,-1,30
 1715 868 1715 868 1682.5 910.5 c 128,-1,31
 1650 953 1650 953 1634 1009 c 128,-1,32
 1618 1065 1618 1065 1618 1125 c 0,33,34
 1618 1197 1618 1197 1640 1269 c 128,-1,35
 1662 1341 1662 1341 1704.5 1398 c 128,-1,36
 1747 1455 1747 1455 1808.5 1491 c 128,-1,37
 1870 1527 1870 1527 1949 1527 c 0,38,39
 2046 1527 2046 1527 2107 1495 c 128,-1,40
 2168 1463 2168 1463 2202.5 1411.5 c 128,-1,41
 2237 1360 2237 1360 2249 1295.5 c 128,-1,42
 2261 1231 2261 1231 2261 1166 c 0,43,44
 2261 1121 2261 1121 2257.5 1078 c 128,-1,45
 2254 1035 2254 1035 2250 998.5 c 128,-1,46
 2246 962 2246 962 2242.5 933 c 128,-1,47
 2239 904 2239 904 2239 888 c 1,48,49
 2398 934 2398 934 2505.5 1003 c 128,-1,50
 2613 1072 2613 1072 2678.5 1154.5 c 128,-1,51
 2744 1237 2744 1237 2772 1329.5 c 128,-1,52
 2800 1422 2800 1422 2800 1515 c 0,53,54
 2800 1646 2800 1646 2749.5 1742 c 128,-1,55
 2699 1838 2699 1838 2612.5 1900.5 c 128,-1,56
 2526 1963 2526 1963 2410.5 1993 c 128,-1,57
 2295 2023 2295 2023 2165 2023 c 0,58,59
 1998 2023 1998 2023 1811 1982 c 1,60,61
 1756 1763 1756 1763 1695 1571.5 c 128,-1,62
 1634 1380 1634 1380 1572 1217.5 c 128,-1,63
 1510 1055 1510 1055 1451 921 c 128,-1,64
 1392 787 1392 787 1340 682.5 c 128,-1,65
 1288 578 1288 578 1247 504 c 128,-1,66
 1206 430 1206 430 1181 386 c 1,67,68
 1255 329 1255 329 1313 288.5 c 128,-1,69
 1371 248 1371 248 1414 219 c 128,-1,70
 1457 190 1457 190 1486 170.5 c 128,-1,71
 1515 151 1515 151 1532 136 c 1,72,-1
 1515 108 l 1,73,74
 1500 108 1500 108 1472.5 119 c 128,-1,75
 1445 130 1445 130 1411 148 c 128,-1,76
 1377 166 1377 166 1339 189 c 128,-1,77
 1301 212 1301 212 1265.5 237 c 128,-1,78
 1230 262 1230 262 1200 286 c 128,-1,79
 1170 310 1170 310 1152 330 c 1,80,81
 1103 248 1103 248 1035.5 184 c 128,-1,82
 968 120 968 120 886.5 75.5 c 128,-1,83
 805 31 805 31 711 8 c 128,-1,84
 617 -15 617 -15 514 -15 c 0,85,86
 402 -15 402 -15 303 2.5 c 128,-1,87
 204 20 204 20 112 74 c 1,88,89
 94 83 94 83 75 94 c 128,-1,90
 56 105 56 105 40 116.5 c 128,-1,91
 24 128 24 128 13 138.5 c 128,-1,92
 2 149 2 149 0 158 c 1,93,-1
 18 158 l 2,94,95
 20 158 20 158 57.5 141.5 c 128,-1,96
 95 125 95 125 154 105.5 c 128,-1,97
 213 86 213 86 287 70 c 128,-1,98
 361 54 361 54 436 54 c 0,99,100
 510 54 510 54 576 72 c 128,-1,101
 642 90 642 90 698.5 121 c 128,-1,102
 755 152 755 152 801 192.5 c 128,-1,103
 847 233 847 233 882 277.5 c 128,-1,104
 917 322 917 322 940.5 367.5 c 128,-1,105
 964 413 964 413 975 454 c 1,106,107
 866 539 866 539 788.5 622 c 128,-1,108
 711 705 711 705 661.5 786 c 128,-1,109
 612 867 612 867 589 945 c 128,-1,110
 566 1023 566 1023 566 1098 c 0,111,112
 566 1211 566 1211 613.5 1315 c 128,-1,113
 661 1419 661 1419 744.5 1511.5 c 128,-1,114
 828 1604 828 1604 941.5 1683.5 c 128,-1,115
 1055 1763 1055 1763 1187 1828 c 128,-1,116
 1319 1893 1319 1893 1463.5 1941.5 c 128,-1,117
 1608 1990 1608 1990 1754 2020 c 1,118,119
 1771 2059 1771 2059 1787.5 2098 c 128,-1,120
 1804 2137 1804 2137 1821 2177 c 1,121,-1
 1857 2177 l 1,122,123
 1849 2140 1849 2140 1840.5 2104 c 128,-1,124
 1832 2068 1832 2068 1823 2033 c 1,125,126
 1911 2048 1911 2048 1994.5 2056 c 128,-1,127
 2078 2064 2078 2064 2159 2064 c 0,128,129
 2271 2064 2271 2064 2376.5 2048 c 128,-1,130
 2482 2032 2482 2032 2574 1999.5 c 128,-1,131
 2666 1967 2666 1967 2742 1917.5 c 128,-1,132
 2818 1868 2818 1868 2872.5 1801.5 c 128,-1,133
 2927 1735 2927 1735 2957 1651 c 128,-1,134
 2987 1567 2987 1567 2987 1465 c 0,135,136
 2987 1402 2987 1402 2975 1333 c 0,137,138
 2959 1243 2959 1243 2906 1159 c 128,-1,139
 2853 1075 2853 1075 2760 1005 c 128,-1,140
 2667 935 2667 935 2532 884 c 128,-1,141
 2397 833 2397 833 2216 809 c 1,142,143
 2209 788 2209 788 2190.5 736 c 128,-1,144
 2172 684 2172 684 2148 616 c 128,-1,145
 2124 548 2124 548 2096.5 472.5 c 128,-1,146
 2069 397 2069 397 2045 328.5 c 128,-1,147
 2021 260 2021 260 2002.5 206 c 128,-1,148
 1984 152 1984 152 1977 128 c 0,149,150
 1971 108 1971 108 1971 91 c 0,151,152
 1971 56 1971 56 1993 36.5 c 128,-1,153
 2015 17 2015 17 2055 17 c 0,154,155
 2086 17 2086 17 2125.5 29.5 c 128,-1,156
 2165 42 2165 42 2213 70 c 0,157,158
 2263 99 2263 99 2318 130.5 c 128,-1,159
 2373 162 2373 162 2441.5 201.5 c 128,-1,160
 2510 241 2510 241 2597 292 c 128,-1,161
 2684 343 2684 343 2798 411 c 0,0,1
1055 541 m 1,162,163
 1065 556 1065 556 1097.5 619 c 128,-1,164
 1130 682 1130 682 1180 782 c 128,-1,165
 1230 882 1230 882 1293 1013.5 c 128,-1,166
 1356 1145 1356 1145 1428 1298 c 128,-1,167
 1500 1451 1500 1451 1576.5 1619.5 c 128,-1,168
 1653 1788 1653 1788 1729 1962 c 1,169,170
 1608 1929 1608 1929 1490.5 1880.5 c 128,-1,171
 1373 1832 1373 1832 1268 1769.5 c 128,-1,172
 1163 1707 1163 1707 1074 1632 c 128,-1,173
 985 1557 985 1557 920.5 1471.5 c 128,-1,174
 856 1386 856 1386 819.5 1290.5 c 128,-1,175
 783 1195 783 1195 783 1092 c 0,176,177
 783 963 783 963 847 824.5 c 128,-1,178
 911 686 911 686 1055 541 c 1,162,163
1937 879 m 1,179,180
 1952 927 1952 927 1971.5 981 c 128,-1,181
 1991 1035 1991 1035 2008.5 1089.5 c 128,-1,182
 2026 1144 2026 1144 2038 1196 c 128,-1,183
 2050 1248 2050 1248 2050 1292 c 0,184,185
 2050 1352 2050 1352 2021 1388.5 c 128,-1,186
 1992 1425 1992 1425 1917 1425 c 0,187,188
 1853 1425 1853 1425 1805.5 1399 c 128,-1,189
 1758 1373 1758 1373 1726.5 1331 c 128,-1,190
 1695 1289 1695 1289 1679 1236 c 128,-1,191
 1663 1183 1663 1183 1663 1128 c 0,192,193
 1663 1078 1663 1078 1676 1031.5 c 128,-1,194
 1689 985 1689 985 1715 949 c 128,-1,195
 1741 913 1741 913 1780 891.5 c 128,-1,196
 1819 870 1819 870 1871 870 c 0,197,198
 1902 870 1902 870 1937 879 c 1,179,180
EndSplineSet
Validated: 1
EndChar

